{
.appVersion = "1352";
classes = (
{
automatic = 1;
code = "A Aacute Acircumflex Adieresis Agrave Aring Atilde AE B C Ccedilla D Eth E Eacute Ecircumflex Edieresis Egrave F G H I Iacute Icircumflex Idieresis Igrave J K L M N Ntilde O Oacute Ocircumflex Odieresis Ograve Oslash Otilde OE P Thorn Q R S Germandbls T U Uacute Ucircumflex Udieresis Ugrave V W Wacute Wcircumflex Wdieresis Wgrave X Y Yacute Ycircumflex Ydieresis Ygrave Z";
name = Uppercase;
}
);
copyright = "Copyright 2021 The Gulzar Project Authors (http://github.com/googlefonts/gulzar/)";
customParameters = (
{
name = glyphOrder;
value = (

glyphs = (
{
color = 3;
glyphname = A;
layers = (
{
anchors = (
{
name = top;
position = "{312, 650}";
}
);
guideLines = (
{
position = "{617, 31}";
}
);
layerId = "6E34CE51-C086-4FF0-804E-D019E96D60E0";
paths = (
{
closed = 1;
nodes = (
"686 0 LINE",
"686 39 LINE",
"622 43 LINE",
"354 704 LINE",
"344 704 LINE",
"330 686 OFFCURVE",
"304 673 OFFCURVE",
"261 673 CURVE",
"257 662 LINE",
"288 604 LINE",
"497 70 LINE SMOOTH",
"506 47 OFFCURVE",
"490 42 OFFCURVE",
"472 41 CURVE SMOOTH",
"422 39 LINE",
"422 0 LINE"
);
},
{
closed = 1;
nodes = (
"214 0 LINE",
"214 39 LINE",
"134 43 LINE",
"338 655 LINE",
"300 655 LINE",
"72 65 LINE SMOOTH",
"64 44 OFFCURVE",
"58 43 OFFCURVE",
"33 41 CURVE SMOOTH",
"5 39 LINE",
"5 0 LINE"
);
},
{
closed = 1;
nodes = (
"485 228 LINE",
"485 275 LINE",
"172 275 LINE",
"172 228 LINE"
);
}
);
width = 690;
},
{
associatedMasterId = "6E34CE51-C086-4FF0-804E-D019E96D60E0";
guideLines = (
{
position = "{738, 43}";
}
);
layerId = "DC733755-26AE-491C-BA1D-551B97DBA411";
name = "May 6 21, 14:53";
paths = (
{
closed = 1;
nodes = (
"685 0 LINE",
"391 775 LINE",
"380 775 LINE",
"369 758 OFFCURVE",
"347 750 OFFCURVE",
"295 750 CURVE",
"295 735 LINE",
"572 0 LINE"
);
},
{
closed = 1;
nodes = (
"232 0 LINE",
"232 43 LINE",
"148 47 LINE",
"165 100 LINE",
"95 102 LINE",
"84 72 LINE SMOOTH",
"76 49 OFFCURVE",
"69 47 OFFCURVE",
"41 45 CURVE SMOOTH",
"10 43 LINE",
"10 0 LINE"
);
},
{
closed = 1;
nodes = (
"133 0 LINE",
"369 728 LINE",
"321 728 LINE",
"58 0 LINE"
);
},
{
closed = 1;
nodes = (
"522 256 LINE",
"522 306 LINE",
"174 306 LINE",
"174 256 LINE"
);
},
{
closed = 1;
nodes = (
"739 0 LINE",
"739 43 LINE",
"667 48 LINE",
"649 98 LINE",
"534 106 LINE",
"543 80 LINE SMOOTH",
"553 52 OFFCURVE",
"535 46 OFFCURVE",
"515 45 CURVE SMOOTH",
"464 43 LINE",
"464 0 LINE"
);
}
);
width = 746;
},
{
associatedMasterId = "6E34CE51-C086-4FF0-804E-D019E96D60E0";
guideLines = (
{
position = "{738, 43}";
}
);
layerId = "ADF8DE35-C204-4937-B6D1-A86AE049C1B7";
name = "May 7 21, 15:39";
paths = (
{
closed = 1;
nodes = (
"685 0 LINE",
"389 782 LINE",
"378 782 LINE",
"363 764 OFFCURVE",
"342 750 OFFCURVE",
"298 750 CURVE SMOOTH",
"289 750 LINE",
"289 735 LINE",
"323 671 LINE",
"576 0 LINE"
);
},
{
closed = 1;
nodes = (
"237 0 LINE",
"237 43 LINE",
"148 47 LINE",
"165 100 LINE",
"95 102 LINE",
"84 72 LINE SMOOTH",
"76 49 OFFCURVE",
"69 47 OFFCURVE",
"41 45 CURVE SMOOTH",
"10 43 LINE",
"10 0 LINE"
);
},
{
closed = 1;
nodes = (
"133 0 LINE",
"369 728 LINE",
"321 728 LINE",
"58 0 LINE"
);
},
{
closed = 1;
nodes = (
"532 256 LINE",
"532 306 LINE",
"184 306 LINE",
"184 256 LINE"
);
},
{
closed = 1;
nodes = (
"739 0 LINE",
"739 43 LINE",
"667 48 LINE",
"647 98 LINE",
"536 106 LINE",
"546 80 LINE SMOOTH",
"557 52 OFFCURVE",
"539 46 OFFCURVE",
"519 45 CURVE SMOOTH",
"463 43 LINE",
"463 0 LINE"
);
}
);
width = 746;
}
);
leftKerningGroup = A;
rightKerningGroup = A;
unicode = 0041;
},
{
color = 3;
glyphname = AE;
layers = (
{
anchors = (
{
name = top;
position = "{252, 650}";
}
);
components = (
{
name = E;
transform = "{1, 0, 0, 1, 328, 0}";
}
);
guideLines = (
{
angle = 270;
position = "{514, 483}";
}
);
layerId = "6E34CE51-C086-4FF0-804E-D019E96D60E0";
paths = (
{
closed = 1;
nodes = (
"514 43 LINE",
"514 656 LINE",
"437 656 LINE",
"437 45 LINE"
);
},
{
closed = 1;
nodes = (
"201 0 LINE",
"201 39 LINE",
"131 42 LINE",
"483 655 LINE",
"439 655 LINE",
"72 65 LINE SMOOTH",
"61 47 OFFCURVE",
"58 43 OFFCURVE",
"33 41 CURVE SMOOTH",
"5 39 LINE",
"5 0 LINE"
);
},
{
closed = 1;
nodes = (
"485 228 LINE",
"485 275 LINE",
"243 275 LINE",
"223 228 LINE"
);
}
);
width = 956;
}
);
leftKerningGroup = A;
leftMetricsKey = A;
rightKerningGroup = E;
rightMetricsKey = E;
unicode = 00C6;
},
{
color = 3;
glyphname = B;
layers = (
{
components = (
{
name = _verticalstem_cap;
transform = "{1, 0, 0, 1, 4, 0}";
},
{
name = _bottomserif_cap;
transform = "{1, 0, 0, 1, 13, 0}";
},
{
name = _topleftserif_cap;
transform = "{1, 0, 0, 1, 1, 0}";
}
);
layerId = "6E34CE51-C086-4FF0-804E-D019E96D60E0";
paths = (
{
closed = 1;
nodes = (
"297 0 LINE SMOOTH",
"507 0 OFFCURVE",
"611 73 OFFCURVE",
"611 185 CURVE SMOOTH",
"611 303 OFFCURVE",
"495 353 OFFCURVE",
"374 353 CURVE",
"374 361 LINE",
"472 370 OFFCURVE",
"562 416 OFFCURVE",
"562 511 CURVE SMOOTH",
"562 616 OFFCURVE",
"455 675 OFFCURVE",
"310 675 CURVE SMOOTH",
"179 675 LINE",
"179 617 LINE",
"230 624 OFFCURVE",
"259 628 OFFCURVE",
"314 628 CURVE SMOOTH",
"382 628 OFFCURVE",
"447 594 OFFCURVE",
"447 500 CURVE SMOOTH",
"447 437 OFFCURVE",
"405 374 OFFCURVE",
"297 374 CURVE",
"186 374 LINE",
"186 327 LINE",
"282 327 LINE SMOOTH",
"425 327 OFFCURVE",
"495 281 OFFCURVE",
"495 181 CURVE SMOOTH",
"495 99 OFFCURVE",
"450 44 OFFCURVE",
"321 44 CURVE SMOOTH",
"211 44 OFFCURVE",
"214 63 OFFCURVE",
"214 155 CURVE",
"179 0 LINE"
);
}
);
width = 641;
},
{
associatedMasterId = "6E34CE51-C086-4FF0-804E-D019E96D60E0";
components = (
{
name = _bottomserif_cap;
transform = "{1, 0, 0, 1, 13, 0}";
},
{
name = _verticalstem_cap;
transform = "{1, 0, 0, 1, 3, 0}";
}
);
layerId = "23905566-9A03-494C-A1D6-5FB873E131B7";
name = "May 7 21, 15:39";
paths = (
{
closed = 1;
nodes = (
"227 642 LINE",
"227 750 LINE",
"40 750 LINE",
"40 707 LINE",
"122 703 LINE",
"122 642 LINE"
);
},
{
closed = 1;
nodes = (
"202 415 LINE",
"202 365 LINE",
"318 365 LINE SMOOTH",
"472 365 OFFCURVE",
"550 319 OFFCURVE",
"550 208 CURVE SMOOTH",
"550 117 OFFCURVE",
"493 46 OFFCURVE",
"349 46 CURVE SMOOTH",
"227 46 OFFCURVE",
"227 68 OFFCURVE",
"227 170 CURVE",
"194 0 LINE",
"326 0 LINE SMOOTH",
"555 0 OFFCURVE",
"674 88 OFFCURVE",
"674 212 CURVE SMOOTH",
"674 343 OFFCURVE",
"539 402 OFFCURVE",
"361 397 CURVE",
"361 395 LINE",
"499 395 OFFCURVE",
"617 462 OFFCURVE",
"617 568 CURVE SMOOTH",
"617 684 OFFCURVE",
"498 750 OFFCURVE",
"340 750 CURVE SMOOTH",
"194 750 LINE",
"194 688 LINE",
"251 696 OFFCURVE",
"287 700 OFFCURVE",
"348 700 CURVE SMOOTH",
"427 700 OFFCURVE",
"499 660 OFFCURVE",
"499 555 CURVE SMOOTH",
"499 486 OFFCURVE",
"452 415 OFFCURVE",
"334 415 CURVE"
);
}
);
width = 714;
},
{
associatedMasterId = "6E34CE51-C086-4FF0-804E-D019E96D60E0";
components = (
{
name = _verticalstem_cap;
transform = "{1, 0, 0, 1, 3, 0}";
},
{
name = _bottomserif_cap;
transform = "{1, 0, 0, 1, 12, 0}";
},
{
name = _topleftserif_cap;
}
);
layerId = "B33E85CB-26AF-42E8-A724-2F3C1E653875";
name = "May 10 21, 16:45";
paths = (
{
closed = 1;
nodes = (
"185 374 LINE",
"185 329 LINE",
"281 329 LINE SMOOTH",
"424 329 OFFCURVE",
"494 281 OFFCURVE",
"494 181 CURVE SMOOTH",
"494 99 OFFCURVE",
"449 42 OFFCURVE",
"320 42 CURVE SMOOTH",
"210 42 OFFCURVE",
"213 61 OFFCURVE",
"213 153 CURVE",
"178 0 LINE",
"296 0 LINE SMOOTH",
"506 0 OFFCURVE",
"610 73 OFFCURVE",
"610 185 CURVE SMOOTH",
"610 303 OFFCURVE",
"496 364 OFFCURVE",
"333 359 CURVE",
"333 355 LINE",
"460 355 OFFCURVE",
"561 416 OFFCURVE",
"561 511 CURVE SMOOTH",
"561 616 OFFCURVE",
"454 675 OFFCURVE",
"309 675 CURVE SMOOTH",
"178 675 LINE",
"178 619 LINE",
"229 626 OFFCURVE",
"258 630 OFFCURVE",
"313 630 CURVE SMOOTH",
"381 630 OFFCURVE",
"446 594 OFFCURVE",
"446 500 CURVE SMOOTH",
"446 437 OFFCURVE",
"404 374 OFFCURVE",
"296 374 CURVE"
);
}
);
visible = 1;
width = 645;
}
);
leftKerningGroup = H;
leftMetricsKey = H;
unicode = 0042;
},
{
color = 3;
glyphname = C;
layers = (
{
anchors = (
{
name = bottom;
position = "{356, -15}";
}
);
layerId = "6E34CE51-C086-4FF0-804E-D019E96D60E0";
paths = (
{
closed = 1;
nodes = (
"483 -15 OFFCURVE",
"589 42 OFFCURVE",
"639 165 CURVE",
"621 177 LINE",
"558 104 OFFCURVE",
"500 63 OFFCURVE",
"396 63 CURVE SMOOTH",
"262 63 OFFCURVE",
"152 151 OFFCURVE",
"152 334 CURVE SMOOTH",
"152 517 OFFCURVE",
"242 632 OFFCURVE",
"393 632 CURVE SMOOTH",
"501 632 OFFCURVE",
"543 559 OFFCURVE",
"591 458 CURVE",
"621 458 LINE",
"609 645 LINE",
"575 663 OFFCURVE",
"508 685 OFFCURVE",
"411 685 CURVE SMOOTH",
"190 685 OFFCURVE",
"35 525 OFFCURVE",
"35 327 CURVE SMOOTH",
"35 145 OFFCURVE",
"135 -15 OFFCURVE",
"368 -15 CURVE SMOOTH"
);
}
);
width = 664;
},
{
associatedMasterId = "6E34CE51-C086-4FF0-804E-D019E96D60E0";
layerId = "8AC445AC-F937-4AA4-A66D-B3456EB28912";
name = "May 6 21, 15:56";
paths = (
{
closed = 1;
nodes = (
"664 189 LINE",
"592 83 OFFCURVE",
"511 67 OFFCURVE",
"426 67 CURVE SMOOTH",
"278 67 OFFCURVE",
"159 168 OFFCURVE",
"159 371 CURVE SMOOTH",
"159 574 OFFCURVE",
"265 704 OFFCURVE",
"410 704 CURVE SMOOTH",
"532 704 OFFCURVE",
"592 631 OFFCURVE",
"631 525 CURVE",
"664 525 LINE",
"654 723 LINE",
"615 739 OFFCURVE",
"537 760 OFFCURVE",
"422 760 CURVE SMOOTH",
"201 760 OFFCURVE",
"35 586 OFFCURVE",
"35 366 CURVE SMOOTH",
"35 151 OFFCURVE",
"151 -15 OFFCURVE",
"402 -15 CURVE SMOOTH",
"535 -15 OFFCURVE",
"628 27 OFFCURVE",
"684 176 CURVE"
);
}
);
width = 714;
},
{
associatedMasterId = "6E34CE51-C086-4FF0-804E-D019E96D60E0";
layerId = "09ACC290-6778-4347-BE70-74432C5FECFF";
name = "May 7 21, 15:39";
paths = (
{
closed = 1;
nodes = (
"545 -15 OFFCURVE",
"653 39 OFFCURVE",
"709 176 CURVE",
"689 189 LINE",
"624 94 OFFCURVE",
"554 57 OFFCURVE",
"439 57 CURVE SMOOTH",
"265 57 OFFCURVE",
"169 168 OFFCURVE",
"169 371 CURVE SMOOTH",
"169 574 OFFCURVE",
"268 704 OFFCURVE",
"435 704 CURVE SMOOTH",
"556 704 OFFCURVE",
"616 647 OFFCURVE",
"656 530 CURVE",
"689 530 LINE",
"676 717 LINE",
"638 737 OFFCURVE",
"563 760 OFFCURVE",
"456 760 CURVE SMOOTH",
"216 760 OFFCURVE",
"45 586 OFFCURVE",
"45 366 CURVE SMOOTH",
"45 151 OFFCURVE",
"168 -15 OFFCURVE",
"418 -15 CURVE SMOOTH"
);
}
);
width = 739;
}
);
leftKerningGroup = O;
leftMetricsKey = O;
rightKerningGroup = C;
unicode = 0043;
},
{
color = 3;
glyphname = D;
layers = (
{
anchors = (
{
name = bottom;
position = "{331, -15}";
}
);
components = (
{
name = _verticalstem_cap;
transform = "{1, 0, 0, 1, 4, 0}";
},
{
name = _bottomserif_cap;
transform = "{1, 0, 0, 1, 13, 0}";
},
{
name = _topleftserif_cap;
transform = "{1, 0, 0, 1, 1, 0}";
}
);
guideLines = (
{
angle = 270;
position = "{109, 517}";
}
);
layerId = "6E34CE51-C086-4FF0-804E-D019E96D60E0";
paths = (
{
closed = 1;
nodes = (
"311 0 LINE SMOOTH",
"550 0 OFFCURVE",
"705 135 OFFCURVE",
"705 342 CURVE SMOOTH",
"705 554 OFFCURVE",
"530 675 OFFCURVE",
"321 675 CURVE SMOOTH",
"182 675 LINE",
"182 617 LINE",
"233 624 OFFCURVE",
"269 628 OFFCURVE",
"324 628 CURVE SMOOTH",
"468 628 OFFCURVE",
"588 532 OFFCURVE",
"588 338 CURVE SMOOTH",
"588 131 OFFCURVE",
"465 44 OFFCURVE",
"321 44 CURVE SMOOTH",
"211 44 OFFCURVE",
"214 63 OFFCURVE",
"214 155 CURVE",
"182 0 LINE"
);
}
);
width = 740;
},
{
associatedMasterId = "6E34CE51-C086-4FF0-804E-D019E96D60E0";
components = (
{
alignment = -1;
name = _bottomserif_cap;
transform = "{1, 0, 0, 1, 23, 0}";
},
{
alignment = -1;
name = _verticalstem_cap;
transform = "{1, 0, 0, 1, 13, 0}";
}
);
layerId = "E418C54A-C0D7-464F-86C3-C0D6D9947A02";
name = "May 5 21, 21:43";
paths = (
{
closed = 1;
nodes = (
"237 752 LINE",
"50 752 LINE",
"50 709 LINE",
"132 705 LINE",
"132 644 LINE",
"237 644 LINE"
);
},
{
closed = 1;
nodes = (
"433 0 LINE SMOOTH",
"433 0 OFFCURVE",
"436 0 OFFCURVE",
"438 0 CURVE SMOOTH",
"445 0 LINE SMOOTH",
"638 0 OFFCURVE",
"813 159 OFFCURVE",
"813 380 CURVE SMOOTH",
"813 605 OFFCURVE",
"656 752 OFFCURVE",
"446 752 CURVE SMOOTH",
"204 752 LINE",
"204 688 LINE",
"278 697 OFFCURVE",
"324 702 OFFCURVE",
"444 702 CURVE SMOOTH",
"591 702 OFFCURVE",
"689 579 OFFCURVE",
"689 376 CURVE SMOOTH",
"689 172 OFFCURVE",
"590 50 OFFCURVE",
"446 50 CURVE SMOOTH",
"445 50 OFFCURVE",
"441 50 OFFCURVE",
"438 50 CURVE SMOOTH",
"433 50 LINE",
"204 50 LINE",
"204 0 LINE"
);
}
);
width = 858;
},
{
associatedMasterId = "6E34CE51-C086-4FF0-804E-D019E96D60E0";
components = (
{
alignment = -1;
name = _bottomserif_cap;
transform = "{1, 0, 0, 1, 13, 0}";
},
{
alignment = -1;
name = _verticalstem_cap;
transform = "{1, 0, 0, 1, 3, 0}";
}
);
guideLines = (
{
angle = 270;
position = "{40, 709}";
}
);
layerId = "AC171F2A-51F5-4F5F-81FA-1D6413611A0C";
name = "May 7 21, 15:39";
paths = (
{
closed = 1;
nodes = (
"338 0 LINE SMOOTH",
"601 0 OFFCURVE",
"773 150 OFFCURVE",
"773 380 CURVE SMOOTH",
"773 616 OFFCURVE",
"579 750 OFFCURVE",
"349 750 CURVE SMOOTH",
"194 750 LINE",
"194 688 LINE",
"251 696 OFFCURVE",
"291 700 OFFCURVE",
"352 700 CURVE SMOOTH",
"514 700 OFFCURVE",
"648 591 OFFCURVE",
"648 376 CURVE SMOOTH",
"648 146 OFFCURVE",
"511 46 OFFCURVE",
"349 46 CURVE SMOOTH",
"227 46 OFFCURVE",
"227 68 OFFCURVE",
"227 170 CURVE",
"194 0 LINE"
);
},
{
closed = 1;
nodes = (
"227 642 LINE",
"227 750 LINE",
"40 750 LINE",
"40 707 LINE",
"122 703 LINE",
"122 642 LINE"
);
}
);
width = 818;
}
);
leftKerningGroup = H;
leftMetricsKey = H;
rightKerningGroup = O;
rightMetricsKey = O;
unicode = 0044;
},
{
color = 3;
glyphname = Eth;
layers = (
{
components = (
{
name = D;
}
);
guideLines = (
{
angle = 270;
position = "{32, 637}";
}
);
layerId = "6E34CE51-C086-4FF0-804E-D019E96D60E0";
paths = (
{
closed = 1;
nodes = (
"32 323 LINE",
"372 323 LINE",
"382 370 LINE",
"42 370 LINE"
);
}
);
width = 740;
}
);
leftKerningGroup = H;
rightKerningGroup = O;
unicode = 00D0;
},
{
color = 3;
glyphname = E;
layers = (
{
associatedMasterId = "6E34CE51-C086-4FF0-804E-D019E96D60E0";
components = (
{
alignment = -1;
name = _bottomserif_cap;
transform = "{1, 0, 0, 1, 13, 0}";
},
{
alignment = -1;
name = _verticalstem_cap;
transform = "{1, 0, 0, 1, 3, 0}";
}
);
guideLines = (
{
angle = 270;
position = "{448, 382}";
}
);
layerId = "F5B1CEEA-ED90-4B2E-895A-65A68991198D";
name = "May 7 21, 12:40";
paths = (
{
closed = 1;
nodes = (
"475 253 LINE",
"475 510 LINE",
"439 510 LINE",
"402 407 LINE",
"194 407 LINE",
"194 357 LINE",
"402 357 LINE",
"439 253 LINE"
);
},
{
closed = 1;
nodes = (
"419 0 LINE",
"419 50 LINE",
"368 50 LINE SMOOTH",
"246 50 OFFCURVE",
"227 72 OFFCURVE",
"227 170 CURVE",
"210 0 LINE"
);
},
{
closed = 1;
nodes = (
"629 0 LINE",
"656 230 LINE",
"625 230 LINE",
"582 132 LINE SMOOTH",
"554 67 OFFCURVE",
"526 50 OFFCURVE",
"428 50 CURVE SMOOTH",
"411 50 LINE",
"411 0 LINE"
);
},
{
closed = 1;
nodes = (
"227 642 LINE",
"227 750 LINE",
"40 750 LINE",
"40 707 LINE",
"122 703 LINE",
"122 642 LINE"
);
},
{
closed = 1;
nodes = (
"556 700 LINE",
"556 750 LINE",
"194 750 LINE",
"194 700 LINE"
);
},
{
closed = 1;
nodes = (
"609 530 LINE",
"594 750 LINE",
"416 750 LINE",
"416 700 LINE",
"431 700 LINE SMOOTH",
"485 700 OFFCURVE",
"515 681 OFFCURVE",
"538 626 CURVE SMOOTH",
"578 530 LINE"
);
}
);
width = 691;
},
{
associatedMasterId = "6E34CE51-C086-4FF0-804E-D019E96D60E0";
components = (
{
alignment = -1;
name = _bottomserif_cap;
transform = "{1, 0, 0, 1, 13, 0}";
},
{
alignment = -1;
name = _verticalstem_cap;
transform = "{1, 0, 0, 1, 3, 0}";
}
);
guideLines = (
{
angle = 270;
position = "{448, 382}";
}
);
layerId = "62F36C1F-15C1-4181-805F-FBCEB1D90E73";
name = "May 7 21, 13:06";
paths = (
{
closed = 1;
nodes = (
"475 253 LINE",
"475 510 LINE",
"439 510 LINE",
"402 407 LINE",
"194 407 LINE",
"194 357 LINE",
"402 357 LINE",
"439 253 LINE"
);
},
{
closed = 1;
nodes = (
"419 0 LINE",
"419 50 LINE",
"227 50 LINE",
"210 0 LINE"
);
},
{
closed = 1;
nodes = (
"623 0 LINE",
"644 240 LINE",
"613 240 LINE",
"533 50 LINE",
"428 50 LINE",
"411 50 LINE",
"411 0 LINE"
);
},
{
closed = 1;
nodes = (
"227 642 LINE",
"227 750 LINE",
"40 750 LINE",
"40 707 LINE",
"122 703 LINE",
"122 642 LINE"
);
},
{
closed = 1;
nodes = (
"556 700 LINE",
"556 750 LINE",
"194 750 LINE",
"194 700 LINE"
);
},
{
closed = 1;
nodes = (
"609 530 LINE",
"594 750 LINE",
"416 750 LINE",
"416 700 LINE",
"431 700 LINE SMOOTH",
"458 700 OFFCURVE",
"478 700 OFFCURVE",
"499 700 CURVE",
"578 530 LINE"
);
}
);
width = 691;
},
{
associatedMasterId = "6E34CE51-C086-4FF0-804E-D019E96D60E0";
components = (
{
alignment = -1;
name = _bottomserif_cap;
transform = "{1, 0, 0, 1, 13, 0}";
},
{
alignment = -1;
name = _verticalstem_cap;
transform = "{1, 0, 0, 1, 3, 0}";
}
);
guideLines = (
{
angle = 270;
position = "{448, 382}";
}
);
layerId = "E67208CA-129E-4FA2-88ED-D216070CDBFE";
name = "May 7 21, 15:39";
paths = (
{
closed = 1;
nodes = (
"475 253 LINE",
"475 510 LINE",
"439 510 LINE",
"402 407 LINE",
"194 407 LINE",
"194 357 LINE",
"402 357 LINE",
"439 253 LINE"
);
},
{
closed = 1;
nodes = (
"227 642 LINE",
"227 750 LINE",
"40 750 LINE",
"40 707 LINE",
"122 703 LINE",
"122 642 LINE"
);
},
{
closed = 1;
nodes = (
"556 700 LINE",
"556 750 LINE",
"194 750 LINE",
"194 700 LINE"
);
},
{
closed = 1;
nodes = (
"623 0 LINE",
"644 240 LINE",
"613 240 LINE",
"533 50 LINE",
"428 50 LINE",
"411 50 LINE",
"411 0 LINE"
);
},
{
closed = 1;
nodes = (
"609 530 LINE",
"594 750 LINE",
"416 750 LINE",
"416 700 LINE",
"431 700 LINE SMOOTH",
"458 700 OFFCURVE",
"478 700 OFFCURVE",
"499 700 CURVE",
"578 530 LINE"
);
},
{
closed = 1;
nodes = (
"419 0 LINE",
"419 50 LINE",
"227 50 LINE",
"210 0 LINE"
);
}
);
width = 691;
},
{
anchors = (
{
name = top;
position = "{321, 650}";
}
);
associatedMasterId = "6E34CE51-C086-4FF0-804E-D019E96D60E0";
components = (
{
name = _verticalstem_cap;
transform = "{1, 0, 0, 1, 4, 0}";
},
{
name = _topleftserif_cap;
transform = "{1, 0, 0, 1, 1, 0}";
},
{
name = _bottomserif_cap;
transform = "{1, 0, 0, 1, 13, 0}";
}
);
guideLines = (
{
angle = 270;
position = "{403, 278}";
}
);
layerId = "BF1BAFE6-2728-450F-AA99-AD102428ABA8";
name = "May 17 21, 10:44";
paths = (
{
closed = 1;
nodes = (
"436 226 LINE",
"436 459 LINE",
"401 459 LINE",
"359 366 LINE",
"179 366 LINE",
"179 319 LINE",
"359 319 LINE",
"401 226 LINE"
);
},
{
closed = 1;
nodes = (
"381 0 LINE",
"381 47 LINE",
"289 47 LINE SMOOTH",
"236 47 OFFCURVE",
"214 56 OFFCURVE",
"214 125 CURVE",
"193 0 LINE"
);
},
{
closed = 1;
nodes = (
"569 0 LINE",
"588 216 LINE",
"556 216 LINE",
"517 121 LINE SMOOTH",
"494 64 OFFCURVE",
"473 47 OFFCURVE",
"426 47 CURVE SMOOTH",
"389 47 LINE",
"374 47 LINE",
"374 0 LINE"
);
},
{
closed = 1;
nodes = (
"504 628 LINE",
"504 675 LINE",
"179 675 LINE",
"179 628 LINE"
);
},
{
closed = 1;
nodes = (
"556 477 LINE",
"543 675 LINE",
"378 675 LINE",
"378 628 LINE",
"392 628 LINE SMOOTH",
"440 628 OFFCURVE",
"455 624 OFFCURVE",
"474 583 CURVE SMOOTH",
"524 477 LINE"
);
}
);
width = 628;
},
{
anchors = (
{
name = top;
position = "{321, 650}";
}
);
associatedMasterId = "6E34CE51-C086-4FF0-804E-D019E96D60E0";
components = (
{
name = _verticalstem_cap;
transform = "{1, 0, 0, 1, 4, 0}";
},
{
name = _topleftserif_cap;
transform = "{1, 0, 0, 1, 1, 0}";
},
{
name = _bottomserif_cap;
transform = "{1, 0, 0, 1, 13, 0}";
}
);
guideLines = (
{
angle = 270;
position = "{403, 278}";
}
);
layerId = "986C365B-E75D-4E99-94F3-776C3CAE1500";
name = "May 17 21, 10:44";
paths = (
{
closed = 1;
nodes = (
"436 226 LINE",
"436 459 LINE",
"401 459 LINE",
"359 366 LINE",
"179 366 LINE",
"179 319 LINE",
"359 319 LINE",
"401 226 LINE"
);
},
{
closed = 1;
nodes = (
"381 0 LINE",
"381 47 LINE",
"289 47 LINE SMOOTH",
"236 47 OFFCURVE",
"214 56 OFFCURVE",
"214 125 CURVE",
"193 0 LINE"
);
},
{
closed = 1;
nodes = (
"569 0 LINE",
"588 216 LINE",
"556 216 LINE",
"517 121 LINE SMOOTH",
"494 64 OFFCURVE",
"473 47 OFFCURVE",
"426 47 CURVE SMOOTH",
"389 47 LINE",
"374 47 LINE",
"374 0 LINE"
);
},
{
closed = 1;
nodes = (
"504 628 LINE",
"504 675 LINE",
"179 675 LINE",
"179 628 LINE"
);
},
{
closed = 1;
nodes = (
"556 477 LINE",
"543 675 LINE",
"378 675 LINE",
"378 628 LINE",
"392 628 LINE SMOOTH",
"440 628 OFFCURVE",
"455 624 OFFCURVE",
"474 583 CURVE SMOOTH",
"524 477 LINE"
);
}
);
width = 628;
},
{
anchors = (
{
name = top;
position = "{321, 650}";
}
);
components = (
{
name = _verticalstem_cap;
transform = "{1, 0, 0, 1, 4, 0}";
},
{
name = _topleftserif_cap;
transform = "{1, 0, 0, 1, 1, 0}";
},
{
name = _bottomserif_cap;
transform = "{1, 0, 0, 1, 13, 0}";
}
);
guideLines = (
{
angle = 270;
position = "{403, 278}";
}
);
layerId = "6E34CE51-C086-4FF0-804E-D019E96D60E0";
paths = (
{
closed = 1;
nodes = (
"436 226 LINE",
"436 459 LINE",
"401 459 LINE",
"359 366 LINE",
"179 366 LINE",
"179 319 LINE",
"359 319 LINE",
"401 226 LINE"
);
},
{
closed = 1;
nodes = (
"381 0 LINE",
"381 47 LINE",
"208 47 LINE",
"193 0 LINE"
);
},
{
closed = 1;
nodes = (
"569 0 LINE",
"588 216 LINE",
"556 216 LINE",
"478 47 LINE",
"389 47 LINE",
"374 47 LINE",
"374 0 LINE"
);
},
{
closed = 1;
nodes = (
"504 628 LINE",
"504 675 LINE",
"179 675 LINE",
"179 628 LINE"
);
},
{
closed = 1;
nodes = (
"556 477 LINE",
"543 675 LINE",
"378 675 LINE",
"378 628 LINE",
"392 628 LINE SMOOTH",
"416 628 OFFCURVE",
"429 628 OFFCURVE",
"448 628 CURVE",
"524 477 LINE"
);
}
);
width = 628;
}
);
leftKerningGroup = H;
leftMetricsKey = H;
rightKerningGroup = E;
unicode = 0045;
},
{
color = 3;
glyphname = F;
layers = (
{
associatedMasterId = "6E34CE51-C086-4FF0-804E-D019E96D60E0";
components = (
{
name = _bottomserif_cap;
transform = "{1, 0, 0, 1, 13, 0}";
},
{
name = _verticalstem_cap;
transform = "{1, 0, 0, 1, 3, 0}";
}
);
layerId = "5E113D4B-9A68-4ABC-878D-E93CDEF0249F";
name = "May 7 21, 12:47";
paths = (
{
closed = 1;
nodes = (
"475 243 LINE",
"475 500 LINE",
"439 500 LINE",
"402 397 LINE",
"194 397 LINE",
"194 347 LINE",
"402 347 LINE",
"439 243 LINE"
);
},
{
closed = 1;
nodes = (
"227 642 LINE",
"227 750 LINE",
"40 750 LINE",
"40 707 LINE",
"122 703 LINE",
"122 642 LINE"
);
},
{
closed = 1;
nodes = (
"556 700 LINE",
"556 750 LINE",
"194 750 LINE",
"194 700 LINE"
);
},
{
closed = 1;
nodes = (
"609 530 LINE",
"594 750 LINE",
"416 750 LINE",
"416 700 LINE",
"431 700 LINE SMOOTH",
"485 700 OFFCURVE",
"515 681 OFFCURVE",
"538 626 CURVE SMOOTH",
"578 530 LINE"
);
}
);
width = 629;
},
{
associatedMasterId = "6E34CE51-C086-4FF0-804E-D019E96D60E0";
components = (
{
name = _bottomserif_cap;
transform = "{1, 0, 0, 1, 13, 0}";
},
{
name = _verticalstem_cap;
transform = "{1, 0, 0, 1, 3, 0}";
}
);
layerId = "7D701D39-6A4A-418D-AF2C-6DA2E509FDE3";
name = "May 7 21, 13:06";
paths = (
{
closed = 1;
nodes = (
"475 233 LINE",
"475 490 LINE",
"439 490 LINE",
"402 387 LINE",
"194 387 LINE",
"194 337 LINE",
"402 337 LINE",
"439 233 LINE"
);
},
{
closed = 1;
nodes = (
"227 642 LINE",
"227 750 LINE",
"40 750 LINE",
"40 707 LINE",
"122 703 LINE",
"122 642 LINE"
);
},
{
closed = 1;
nodes = (
"556 700 LINE",
"556 750 LINE",
"194 750 LINE",
"194 700 LINE"
);
},
{
closed = 1;
nodes = (
"609 530 LINE",
"594 750 LINE",
"416 750 LINE",
"416 700 LINE",
"431 700 LINE SMOOTH",
"458 700 OFFCURVE",
"478 700 OFFCURVE",
"499 700 CURVE",
"578 530 LINE"
);
}
);
width = 629;
},
{
associatedMasterId = "6E34CE51-C086-4FF0-804E-D019E96D60E0";
components = (
{
name = _bottomserif_cap;
transform = "{1, 0, 0, 1, 13, 0}";
},
{
name = _verticalstem_cap;
transform = "{1, 0, 0, 1, 3, 0}";
}
);
layerId = "B298C7C6-6AA0-4DBD-B760-C3D8C203B223";
name = "May 7 21, 15:39";
paths = (
{
closed = 1;
nodes = (
"475 233 LINE",
"475 490 LINE",
"439 490 LINE",
"402 387 LINE",
"194 387 LINE",
"194 337 LINE",
"402 337 LINE",
"439 233 LINE"
);
},
{
closed = 1;
nodes = (
"227 642 LINE",
"227 750 LINE",
"40 750 LINE",
"40 707 LINE",
"122 703 LINE",
"122 642 LINE"
);
},
{
closed = 1;
nodes = (
"556 700 LINE",
"556 750 LINE",
"194 750 LINE",
"194 700 LINE"
);
},
{
closed = 1;
nodes = (
"609 530 LINE",
"594 750 LINE",
"416 750 LINE",
"416 700 LINE",
"431 700 LINE SMOOTH",
"458 700 OFFCURVE",
"478 700 OFFCURVE",
"499 700 CURVE",
"578 530 LINE"
);
}
);
width = 629;
},
{
associatedMasterId = "6E34CE51-C086-4FF0-804E-D019E96D60E0";
components = (
{
name = _verticalstem_cap;
transform = "{1, 0, 0, 1, 4, 0}";
},
{
name = _topleftserif_cap;
transform = "{1, 0, 0, 1, 1, 0}";
},
{
name = _bottomserif_cap;
transform = "{1, 0, 0, 1, 13, 0}";
}
);
layerId = "DAC0D530-DC01-41E2-BE54-46D1DFD322EE";
name = "May 17 21, 10:44";
paths = (
{
closed = 1;
nodes = (
"434 208 LINE",
"434 441 LINE",
"399 441 LINE",
"357 348 LINE",
"177 348 LINE",
"177 301 LINE",
"357 301 LINE",
"399 208 LINE"
);
},
{
closed = 1;
nodes = (
"501 628 LINE",
"501 675 LINE",
"176 675 LINE",
"176 628 LINE"
);
},
{
closed = 1;
nodes = (
"553 474 LINE",
"540 675 LINE",
"375 675 LINE",
"375 628 LINE",
"389 628 LINE SMOOTH",
"437 628 OFFCURVE",
"453 623 OFFCURVE",
"471 583 CURVE SMOOTH",
"521 474 LINE"
);
}
);
width = 568;
},
{
associatedMasterId = "6E34CE51-C086-4FF0-804E-D019E96D60E0";
components = (
{
name = _verticalstem_cap;
transform = "{1, 0, 0, 1, 4, 0}";
},
{
name = _topleftserif_cap;
transform = "{1, 0, 0, 1, 1, 0}";
},
{
name = _bottomserif_cap;
transform = "{1, 0, 0, 1, 13, 0}";
}
);
layerId = "68839379-0643-4855-A61D-97E3F272E4DD";
name = "May 17 21, 10:45";
paths = (
{
closed = 1;
nodes = (
"434 208 LINE",
"434 441 LINE",
"399 441 LINE",
"357 348 LINE",
"177 348 LINE",
"177 301 LINE",
"357 301 LINE",
"399 208 LINE"
);
},
{
closed = 1;
nodes = (
"501 628 LINE",
"501 675 LINE",
"176 675 LINE",
"176 628 LINE"
);
},
{
closed = 1;
nodes = (
"553 474 LINE",
"540 675 LINE",
"375 675 LINE",
"375 628 LINE",
"389 628 LINE SMOOTH",
"437 628 OFFCURVE",
"453 623 OFFCURVE",
"471 583 CURVE SMOOTH",
"521 474 LINE"
);
}
);
width = 568;
},
{
components = (
{
name = _verticalstem_cap;
transform = "{1, 0, 0, 1, 4, 0}";
},
{
name = _topleftserif_cap;
transform = "{1, 0, 0, 1, 1, 0}";
},
{
name = _bottomserif_cap;
transform = "{1, 0, 0, 1, 13, 0}";
}
);
layerId = "6E34CE51-C086-4FF0-804E-D019E96D60E0";
paths = (
{
closed = 1;
nodes = (
"434 208 LINE",
"434 441 LINE",
"399 441 LINE",
"357 348 LINE",
"177 348 LINE",
"177 301 LINE",
"357 301 LINE",
"399 208 LINE"
);
},
{
closed = 1;
nodes = (
"501 628 LINE",
"501 675 LINE",
"176 675 LINE",
"176 628 LINE"
);
},
{
closed = 1;
nodes = (
"553 473 LINE",
"540 675 LINE",
"375 675 LINE",
"375 628 LINE",
"389 628 LINE SMOOTH",
"413 628 OFFCURVE",
"424 628 OFFCURVE",
"443 628 CURVE",
"521 473 LINE"
);
}
);
width = 568;
}
);
leftKerningGroup = H;
leftMetricsKey = H;
rightKerningGroup = F;
unicode = 0046;
},
{
color = 3;
glyphname = G;
layers = (
{
anchors = (
{
name = bottom;
position = "{371, -15}";
},
{
name = top;
position = "{389, 650}";
}
);
layerId = "6E34CE51-C086-4FF0-804E-D019E96D60E0";
paths = (
{
closed = 1;
nodes = (
"504 -15 OFFCURVE",
"595 46 OFFCURVE",
"646 94 CURVE",
"615 112 LINE",
"557 72 OFFCURVE",
"499 43 OFFCURVE",
"395 43 CURVE SMOOTH",
"247 43 OFFCURVE",
"152 151 OFFCURVE",
"152 334 CURVE SMOOTH",
"152 517 OFFCURVE",
"234 632 OFFCURVE",
"389 632 CURVE SMOOTH",
"498 632 OFFCURVE",
"539 570 OFFCURVE",
"593 458 CURVE",
"623 458 LINE",
"611 645 LINE",
"576 663 OFFCURVE",
"501 684 OFFCURVE",
"408 684 CURVE SMOOTH",
"187 684 OFFCURVE",
"35 527 OFFCURVE",
"35 329 CURVE SMOOTH",
"35 136 OFFCURVE",
"146 -15 OFFCURVE",
"371 -15 CURVE SMOOTH"
);
},
{
closed = 1;
nodes = (
"646 94 LINE",
"646 105 LINE",
"622 131 LINE",
"622 271 LINE",
"527 271 LINE",
"527 43 LINE"
);
},
{
closed = 1;
nodes = (
"622 213 LINE",
"622 237 LINE SMOOTH",
"622 260 OFFCURVE",
"630 272 OFFCURVE",
"649 273 CURVE SMOOTH",
"695 276 LINE",
"695 315 LINE",
"417 315 LINE",
"417 272 LINE",
"527 268 LINE",
"527 213 LINE"
);
}
);
width = 710;
},
{
associatedMasterId = "6E34CE51-C086-4FF0-804E-D019E96D60E0";
layerId = "7B1AE2A7-BDD2-49A0-8AF4-9484D543D5E4";
name = "May 7 21, 13:28";
paths = (
{
closed = 1;
nodes = (
"566 -15 OFFCURVE",
"653 50 OFFCURVE",
"697 107 CURVE",
"689 117 LINE",
"624 72 OFFCURVE",
"565 40 OFFCURVE",
"444 40 CURVE SMOOTH",
"265 40 OFFCURVE",
"169 168 OFFCURVE",
"169 371 CURVE SMOOTH",
"169 574 OFFCURVE",
"265 704 OFFCURVE",
"438 704 CURVE SMOOTH",
"559 704 OFFCURVE",
"624 647 OFFCURVE",
"664 530 CURVE",
"697 530 LINE",
"684 717 LINE",
"646 737 OFFCURVE",
"562 760 OFFCURVE",
"459 760 CURVE SMOOTH",
"213 760 OFFCURVE",
"45 586 OFFCURVE",
"45 366 CURVE SMOOTH",
"45 151 OFFCURVE",
"168 -15 OFFCURVE",
"418 -15 CURVE SMOOTH"
);
},
{
closed = 1;
nodes = (
"602 45 LINE",
"697 107 LINE",
"697 302 LINE",
"602 302 LINE"
);
},
{
closed = 1;
nodes = (
"778 346 LINE",
"506 346 LINE",
"506 303 LINE",
"602 299 LINE",
"602 238 LINE",
"697 238 LINE",
"697 264 LINE SMOOTH",
"697 290 OFFCURVE",
"705 302 OFFCURVE",
"727 304 CURVE SMOOTH",
"778 308 LINE"
);
}
);
width = 798;
},
{
associatedMasterId = "6E34CE51-C086-4FF0-804E-D019E96D60E0";
layerId = "3233EE59-242D-484F-A7A7-63A02A1A6D65";
name = "May 7 21, 15:39";
paths = (
{
closed = 1;
nodes = (
"566 -15 OFFCURVE",
"654 53 OFFCURVE",
"711 107 CURVE",
"689 117 LINE",
"624 72 OFFCURVE",
"565 40 OFFCURVE",
"444 40 CURVE SMOOTH",
"265 40 OFFCURVE",
"169 168 OFFCURVE",
"169 371 CURVE SMOOTH",
"169 574 OFFCURVE",
"265 704 OFFCURVE",
"438 704 CURVE SMOOTH",
"559 704 OFFCURVE",
"624 647 OFFCURVE",
"664 530 CURVE",
"697 530 LINE",
"684 717 LINE",
"646 737 OFFCURVE",
"562 760 OFFCURVE",
"459 760 CURVE SMOOTH",
"213 760 OFFCURVE",
"45 586 OFFCURVE",
"45 366 CURVE SMOOTH",
"45 151 OFFCURVE",
"168 -15 OFFCURVE",
"418 -15 CURVE SMOOTH"
);
},
{
closed = 1;
nodes = (
"602 45 LINE",
"711 107 LINE",
"711 119 LINE",
"697 130 LINE",
"697 302 LINE",
"602 302 LINE"
);
},
{
closed = 1;
nodes = (
"778 346 LINE",
"486 346 LINE",
"486 303 LINE",
"602 299 LINE",
"602 238 LINE",
"697 238 LINE",
"697 264 LINE SMOOTH",
"697 290 OFFCURVE",
"705 302 OFFCURVE",
"727 304 CURVE SMOOTH",
"778 308 LINE"
);
}
);
width = 798;
}
);
leftKerningGroup = O;
leftMetricsKey = O;
rightKerningGroup = G;
unicode = 0047;
},
{
color = 3;
glyphname = J;
layers = (
{
components = (
{
name = _bottomserif_cap;
transform = "{-1, 0, 0, -1, 347, 675}";
}
);
layerId = "6E34CE51-C086-4FF0-804E-D019E96D60E0";
paths = (
{
closed = 1;
nodes = (
"182 -93 OFFCURVE",
"251 24 OFFCURVE",
"251 110 CURVE SMOOTH",
"251 188 LINE",
"146 188 LINE",
"146 113 LINE SMOOTH",
"146 11 OFFCURVE",
"114 -57 OFFCURVE",
"40 -95 CURVE",
"52 -118 LINE"
);
},
{
closed = 1;
nodes = (
"251 120 LINE",
"251 675 LINE",
"146 675 LINE",
"146 120 LINE"
);
}
);
width = 345;
}
);
leftKerningGroup = J;
rightKerningGroup = J;
unicode = 004A;
},
{
color = 3;
glyphname = K;
layers = (
{
components = (
{
alignment = -1;
name = _verticalstem_cap;
transform = "{1, 0, 0, 1, 4, 0}";
},
{
alignment = -1;
name = _bottomserif_cap;
transform = "{1, 0, 0, 1, 13, 0}";
},
{
alignment = -1;
name = _bottomserif_cap;
transform = "{-1, 0, 0, -1, 310, 675}";
}
);
guideLines = (
{
position = "{296, 42}";
},
{
position = "{300, 638}";
},
{
angle = 270;
position = "{688, 354}";
}
);
layerId = "6E34CE51-C086-4FF0-804E-D019E96D60E0";
paths = (
{
closed = 1;
nodes = (
"688 0 LINE",
"688 39 LINE",
"635 44 OFFCURVE",
"610 51 OFFCURVE",
"576 89 CURVE SMOOTH",
"479 197 OFFCURVE",
"415 296 OFFCURVE",
"324 390 CURVE",
"248 330 LINE",
"334 238 OFFCURVE",
"409 111 OFFCURVE",
"512 0 CURVE"
);
},
{
closed = 1;
nodes = (
"300 317 LINE",
"292 368 LINE",
"180 345 LINE",
"180 317 LINE"
);
},
{
closed = 1;
nodes = (
"590 627 LINE",
"677 638 LINE",
"677 674 LINE",
"411 674 LINE",
"411 638 LINE",
"503 625 LINE",
"247 343 LINE",
"268 320 LINE"
);
}
);
width = 693;
},
{
associatedMasterId = "6E34CE51-C086-4FF0-804E-D019E96D60E0";
components = (
{
alignment = -1;
name = _verticalstem_cap;
transform = "{1, 0, 0, 1, 4, 0}";
},
{
alignment = -1;
name = _bottomserif_cap;
transform = "{1, 0, 0, 1, 13, 0}";
},
{
alignment = -1;
name = _bottomserif_cap;
transform = "{-1, 0, 0, -1, 310, 675}";
}
);
guideLines = (
{
position = "{296, 42}";
},
{
position = "{300, 638}";
}
);
layerId = "CCAB4052-359D-4C8C-A353-F2FBD8852FC0";
name = "May 10 21, 17:19";
paths = (
{
closed = 1;
nodes = (
"300 317 LINE",
"292 368 LINE",
"180 345 LINE",
"180 317 LINE"
);
},
{
closed = 1;
nodes = (
"268 320 LINE",
"590 627 LINE",
"677 638 LINE",
"677 674 LINE",
"411 674 LINE",
"411 638 LINE",
"503 625 LINE",
"250 343 LINE"
);
},
{
closed = 1;
nodes = (
"454 79 LINE SMOOTH",
"460 72 OFFCURVE",
"465 65 OFFCURVE",
"465 59 CURVE SMOOTH",
"465 50 OFFCURVE",
"459 46 OFFCURVE",
"442 45 CURVE SMOOTH",
"403 42 LINE",
"403 0 LINE",
"698 0 LINE",
"698 42 LINE",
"630 48 LINE",
"331 394 LINE",
"245 330 LINE"
);
}
);
width = 772;
},
{
associatedMasterId = "6E34CE51-C086-4FF0-804E-D019E96D60E0";
components = (
{
alignment = -1;
name = _verticalstem_cap;
transform = "{1, 0, 0, 1, 4, 0}";
},
{
alignment = -1;
name = _bottomserif_cap;
transform = "{1, 0, 0, 1, 13, 0}";
},
{
alignment = -1;
name = _bottomserif_cap;
transform = "{-1, 0, 0, -1, 310, 675}";
}
);
guideLines = (
{
position = "{296, 42}";
},
{
position = "{300, 638}";
}
);
layerId = "93F88A2B-E0B2-4A96-9176-4F28AAA7D22B";
name = "May 10 21, 17:21";
paths = (
{
closed = 1;
nodes = (
"300 317 LINE",
"292 368 LINE",
"180 345 LINE",
"180 317 LINE"
);
},
{
closed = 1;
nodes = (
"268 320 LINE",
"590 627 LINE",
"677 638 LINE",
"677 674 LINE",
"411 674 LINE",
"411 638 LINE",
"503 625 LINE",
"250 343 LINE"
);
},
{
closed = 1;
nodes = (
"499 0 LINE",
"688 0 LINE",
"688 42 LINE",
"615 48 LINE",
"331 394 LINE",
"239 330 LINE"
);
}
);
width = 772;
}
);
leftKerningGroup = H;
rightKerningGroup = K;
unicode = 004B;
},
{
color = 3;
glyphname = L;
layers = (
{
components = (
{
alignment = -1;
name = _verticalstem_cap;
transform = "{1, 0, 0, 1, 4, 0}";
},
{
name = _bottomserif_cap;
transform = "{1, 0, 0, 1, 13, 0}";
},
{
name = _bottomserif_cap;
transform = "{-1, 0, 0, -1, 310, 675}";
}
);
layerId = "6E34CE51-C086-4FF0-804E-D019E96D60E0";
paths = (
{
closed = 1;
nodes = (
"519 0 LINE",
"539 226 LINE",
"507 226 LINE",
"455 109 LINE SMOOTH",
"431 55 OFFCURVE",
"422 47 OFFCURVE",
"367 47 CURVE SMOOTH",
"289 47 LINE SMOOTH",
"236 47 OFFCURVE",
"214 56 OFFCURVE",
"214 125 CURVE",
"193 0 LINE"
);
}
);
width = 564;
},
{
associatedMasterId = "6E34CE51-C086-4FF0-804E-D019E96D60E0";
components = (
{
alignment = -1;
name = _bottomserif_cap;
transform = "{1, 0, 0, 1, 13, 0}";
},
{
alignment = -1;
name = _verticalstem_cap;
transform = "{1, 0, 0, 1, 3, 0}";
},
{
alignment = -1;
name = _bottomserif_cap;
transform = "{-1, 0, 0, -1, 336, 750}";
}
);
layerId = "058E1B3D-A49B-4F9F-B08B-B0F7758CE0EC";
name = "May 7 21, 12:48";
paths = (
{
closed = 1;
nodes = (
"585 0 LINE",
"610 241 LINE",
"579 241 LINE",
"495 50 LINE",
"213 50 LINE",
"213 0 LINE"
);
}
);
width = 641;
},
{
associatedMasterId = "6E34CE51-C086-4FF0-804E-D019E96D60E0";
components = (
{
alignment = -1;
name = _bottomserif_cap;
transform = "{1, 0, 0, 1, 13, 0}";
},
{
alignment = -1;
name = _verticalstem_cap;
transform = "{1, 0, 0, 1, 3, 0}";
},
{
alignment = -1;
name = _bottomserif_cap;
transform = "{-1, 0, 0, -1, 336, 750}";
}
);
layerId = "71FDCB7B-9F0D-4126-9A64-853F75F34F0D";
name = "May 7 21, 13:05";
paths = (
{
closed = 1;
nodes = (
"585 0 LINE",
"616 240 LINE",
"578 240 LINE",
"541 143 LINE SMOOTH",
"516 77 OFFCURVE",
"478 50 OFFCURVE",
"377 50 CURVE SMOOTH",
"360 50 LINE",
"360 0 LINE"
);
},
{
closed = 1;
nodes = (
"368 0 LINE",
"368 50 LINE",
"347 50 LINE SMOOTH",
"231 50 OFFCURVE",
"227 72 OFFCURVE",
"227 170 CURVE",
"210 0 LINE"
);
}
);
width = 641;
},
{
associatedMasterId = "6E34CE51-C086-4FF0-804E-D019E96D60E0";
components = (
{
alignment = -1;
name = _bottomserif_cap;
transform = "{1, 0, 0, 1, 13, 0}";
},
{
alignment = -1;
name = _verticalstem_cap;
transform = "{1, 0, 0, 1, 3, 0}";
},
{
alignment = -1;
name = _bottomserif_cap;
transform = "{-1, 0, 0, -1, 336, 750}";
}
);
layerId = "A5A9E610-D14A-49FF-8C0A-71CA7C8E58D2";
name = "May 7 21, 15:39";
paths = (
{
closed = 1;
nodes = (
"585 0 LINE",
"610 241 LINE",
"579 241 LINE",
"495 50 LINE",
"213 50 LINE",
"213 0 LINE"
);
}
);
width = 641;
},
{
associatedMasterId = "6E34CE51-C086-4FF0-804E-D019E96D60E0";
components = (
{
alignment = -1;
name = _verticalstem_cap;
transform = "{1, 0, 0, 1, 4, 0}";
},
{
name = _bottomserif_cap;
transform = "{1, 0, 0, 1, 13, 0}";
},
{
name = _bottomserif_cap;
transform = "{-1, 0, 0, -1, 310, 675}";
}
);
layerId = "E7629BB4-2E29-4049-BD0C-9331AB92C237";
name = "May 11 21, 10:52";
paths = (
{
closed = 1;
nodes = (
"519 0 LINE",
"539 227 LINE",
"511 227 LINE",
"418 47 LINE",
"183 47 LINE",
"183 0 LINE"
);
}
);
visible = 1;
width = 564;
}
);
leftKerningGroup = H;
leftMetricsKey = H;
unicode = 004C;
},
{
color = 3;
glyphname = M;
layers = (
{
guideLines = (
{
position = "{131, 522}";
}
);
layerId = "6E34CE51-C086-4FF0-804E-D019E96D60E0";
paths = (
{
closed = 1;
nodes = (
"422 0 LINE",
"468 109 LINE",
"224 675 LINE",
"60 675 LINE",
"60 633 LINE",
"134 630 LINE",
"134 604 LINE",
"407 0 LINE"
);
},
{
closed = 1;
nodes = (
"240 0 LINE",
"240 39 LINE",
"159 44 LINE",
"177 621 LINE",
"134 621 LINE",
"99 81 LINE SMOOTH",
"97 57 OFFCURVE",
"92 47 OFFCURVE",
"72 45 CURVE SMOOTH",
"15 39 LINE",
"15 0 LINE"
);
},
{
closed = 1;
nodes = (
"722 675 LINE",
"663 675 LINE",
"412 74 LINE",
"422 0 LINE"
);
},
{
closed = 1;
nodes = (
"870 0 LINE",
"870 39 LINE",
"789 44 LINE",
"748 650 LINE",
"648 602 LINE",
"684 79 LINE SMOOTH",
"686 55 OFFCURVE",
"677 44 OFFCURVE",
"657 43 CURVE SMOOTH",
"600 39 LINE",
"600 0 LINE"
);
},
{
closed = 1;
nodes = (
"753 575 LINE",
"751 603 LINE SMOOTH",
"749 627 OFFCURVE",
"755 633 OFFCURVE",
"775 634 CURVE SMOOTH",
"832 638 LINE",
"832 675 LINE",
"668 675 LINE",
"668 575 LINE"
);
}
);
width = 885;
}
);
leftKerningGroup = M;
rightKerningGroup = M;
unicode = 004D;
},
{
color = 3;
glyphname = N;
layers = (
{
anchors = (
{
name = top;
position = "{348, 650}";
}
);
guideLines = (
{
angle = 270;
position = "{20, 235}";
}
);
layerId = "6E34CE51-C086-4FF0-804E-D019E96D60E0";
paths = (
{
closed = 1;
nodes = (
"610 0 LINE",
"610 135 LINE",
"170 675 LINE",
"20 675 LINE",
"20 645 LINE",
"71 629 OFFCURVE",
"85 609 OFFCURVE",
"124 561 CURVE SMOOTH",
"579 0 LINE"
);
},
{
closed = 1;
nodes = (
"245 0 LINE",
"245 39 LINE",
"164 44 LINE",
"152 601 LINE",
"109 601 LINE",
"102 79 LINE SMOOTH",
"102 55 OFFCURVE",
"95 44 OFFCURVE",
"75 43 CURVE SMOOTH",
"18 39 LINE",
"18 0 LINE"
);
},
{
closed = 1;
nodes = (
"610 74 LINE",
"618 598 LINE SMOOTH",
"618 622 OFFCURVE",
"625 633 OFFCURVE",
"645 634 CURVE SMOOTH",
"702 638 LINE",
"702 675 LINE",
"473 675 LINE",
"473 633 LINE",
"554 630 LINE",
"567 74 LINE"
);
}
);
width = 715;
}
);
leftKerningGroup = H;
rightKerningGroup = N;
unicode = 004E;
},
{
color = 3;
glyphname = O;
layers = (
{
anchors = (
{
name = top;
position = "{383, 650}";
}
);
layerId = "6E34CE51-C086-4FF0-804E-D019E96D60E0";
paths = (
{
closed = 1;
nodes = (
"571 -14 OFFCURVE",
"731 139 OFFCURVE",
"731 338 CURVE SMOOTH",
"731 540 OFFCURVE",
"586 685 OFFCURVE",
"383 685 CURVE SMOOTH",
"194 685 OFFCURVE",
"35 527 OFFCURVE",
"35 329 CURVE SMOOTH",
"35 136 OFFCURVE",
"166 -14 OFFCURVE",
"383 -14 CURVE SMOOTH"
);
},
{
closed = 1;
nodes = (
"241 38 OFFCURVE",
"155 151 OFFCURVE",
"155 334 CURVE SMOOTH",
"155 517 OFFCURVE",
"242 633 OFFCURVE",
"381 633 CURVE SMOOTH",
"522 633 OFFCURVE",
"611 515 OFFCURVE",
"611 334 CURVE SMOOTH",
"611 150 OFFCURVE",
"521 38 OFFCURVE",
"383 38 CURVE SMOOTH"
);
}
);
width = 766;
},
{
associatedMasterId = "6E34CE51-C086-4FF0-804E-D019E96D60E0";
layerId = "6921DE31-7A23-4EAA-932D-2422F861D8D8";
name = "May 7 21, 15:39";
paths = (
{
closed = 1;
nodes = (
"625 -15 OFFCURVE",
"799 154 OFFCURVE",
"799 375 CURVE SMOOTH",
"799 600 OFFCURVE",
"642 760 OFFCURVE",
"422 760 CURVE SMOOTH",
"218 760 OFFCURVE",
"45 586 OFFCURVE",
"45 366 CURVE SMOOTH",
"45 151 OFFCURVE",
"187 -15 OFFCURVE",
"422 -15 CURVE SMOOTH"
);
},
{
closed = 1;
nodes = (
"264 40 OFFCURVE",
"169 168 OFFCURVE",
"169 371 CURVE SMOOTH",
"169 574 OFFCURVE",
"265 704 OFFCURVE",
"420 704 CURVE SMOOTH",
"577 704 OFFCURVE",
"675 572 OFFCURVE",
"675 371 CURVE SMOOTH",
"675 167 OFFCURVE",
"576 40 OFFCURVE",
"422 40 CURVE SMOOTH"
);
}
);
width = 844;
}
);
leftKerningGroup = O;
rightKerningGroup = O;
unicode = 004F;
},
{
color = 3;
glyphname = Oslash;
layers = (
{
components = (
{
name = O;
}
);
guideLines = (
{
angle = 270;
position = "{35, 319}";
},
{
angle = 270;
position = "{731, 338}";
}
);
layerId = "6E34CE51-C086-4FF0-804E-D019E96D60E0";
paths = (
{
closed = 1;
nodes = (
"65 7 LINE",
"100 -25 LINE",
"695 663 LINE",
"660 695 LINE"
);
}
);
width = 766;
}
);
leftKerningGroup = O;
rightKerningGroup = O;
unicode = 00D8;
},
{
color = 3;
glyphname = OE;
layers = (
{
anchors = (
{
name = top;
position = "{591, 650}";
}
);
components = (
{
alignment = -1;
name = E;
transform = "{1, 0, 0, 1, 439, 0}";
}
);
layerId = "6E34CE51-C086-4FF0-804E-D019E96D60E0";
paths = (
{
closed = 1;
nodes = (
"549 646 LINE",
"501 671 OFFCURVE",
"445 685 OFFCURVE",
"383 685 CURVE SMOOTH",
"194 685 OFFCURVE",
"35 527 OFFCURVE",
"35 329 CURVE SMOOTH",
"35 136 OFFCURVE",
"166 -14 OFFCURVE",
"383 -14 CURVE SMOOTH",
"444 -14 OFFCURVE",
"500 2 OFFCURVE",
"549 30 CURVE",
"549 117 LINE",
"509 66 OFFCURVE",
"452 38 OFFCURVE",
"383 38 CURVE SMOOTH",
"241 38 OFFCURVE",
"155 151 OFFCURVE",
"155 334 CURVE SMOOTH",
"155 517 OFFCURVE",
"242 633 OFFCURVE",
"381 633 CURVE SMOOTH",
"452 633 OFFCURVE",
"509 603 OFFCURVE",
"549 551 CURVE"
);
}
);
width = 1067;
}
);
leftKerningGroup = O;
leftMetricsKey = O;
rightKerningGroup = E;
rightMetricsKey = E;
unicode = 0152;
},
{
color = 3;
glyphname = P;
layers = (
{
components = (
{
name = _verticalstem_cap;
transform = "{1, 0, 0, 1, 4, 0}";
},
{
name = _bottomserif_cap;
transform = "{1, 0, 0, 1, 13, 0}";
},
{
name = _topleftserif_cap;
transform = "{1, 0, 0, 1, 1, 0}";
}
);
layerId = "6E34CE51-C086-4FF0-804E-D019E96D60E0";
paths = (
{
closed = 1;
nodes = (
"468 269 OFFCURVE",
"579 342 OFFCURVE",
"579 474 CURVE SMOOTH",
"579 609 OFFCURVE",
"472 675 OFFCURVE",
"327 675 CURVE SMOOTH",
"179 675 LINE",
"179 617 LINE",
"230 624 OFFCURVE",
"271 628 OFFCURVE",
"315 628 CURVE SMOOTH",
"383 628 OFFCURVE",
"464 594 OFFCURVE",
"464 470 CURVE SMOOTH",
"464 370 OFFCURVE",
"400 309 OFFCURVE",
"292 309 CURVE",
"247 309 OFFCURVE",
"222 312 OFFCURVE",
"186 317 CURVE",
"186 278 LINE",
"227 271 OFFCURVE",
"261 269 OFFCURVE",
"303 269 CURVE SMOOTH"
);
}
);
width = 609;
}
);
leftKerningGroup = H;
leftMetricsKey = H;
unicode = 0050;
},
{
color = 3;
glyphname = Thorn;
layers = (
{
components = (
{
name = _verticalstem_cap;
transform = "{1, 0, 0, 1, 4, 0}";
},
{
name = _bottomserif_cap;
transform = "{1, 0, 0, 1, 13, 0}";
},
{
name = _bottomserif_cap;
transform = "{-1, 0, 0, -1, 310, 675}";
}
);
layerId = "6E34CE51-C086-4FF0-804E-D019E96D60E0";
paths = (
{
closed = 1;
nodes = (
"468 150 OFFCURVE",
"579 228 OFFCURVE",
"579 350 CURVE SMOOTH",
"579 485 OFFCURVE",
"472 546 OFFCURVE",
"327 546 CURVE SMOOTH",
"179 546 LINE",
"179 488 LINE",
"230 495 OFFCURVE",
"271 499 OFFCURVE",
"315 499 CURVE SMOOTH",
"383 499 OFFCURVE",
"464 470 OFFCURVE",
"464 346 CURVE SMOOTH",
"464 256 OFFCURVE",
"400 190 OFFCURVE",
"292 190 CURVE SMOOTH",
"247 190 OFFCURVE",
"222 193 OFFCURVE",
"186 198 CURVE",
"186 159 LINE",
"227 152 OFFCURVE",
"261 150 OFFCURVE",
"303 150 CURVE SMOOTH"
);
}
);
width = 609;
}
);
leftKerningGroup = H;
unicode = 00DE;
},
{
color = 3;
glyphname = Q;
layers = (
{
components = (
{
name = O;
}
);
guideLines = (
{
angle = 270;
position = "{731, 338}";
}
);
layerId = "6E34CE51-C086-4FF0-804E-D019E96D60E0";
paths = (
{
closed = 1;
nodes = (
"731 -168 LINE",
"731 -132 LINE",
"689 -128 OFFCURVE",
"669 -126 OFFCURVE",
"642 -115 CURVE SMOOTH",
"574 -86 OFFCURVE",
"547 -38 OFFCURVE",
"452 -13 CURVE",
"452 -1 LINE",
"281 -1 LINE",
"440 -43 OFFCURVE",
"464 -123 OFFCURVE",
"567 -168 CURVE"
);
}
);
width = 766;
}
);
leftKerningGroup = O;
leftMetricsKey = O;
rightKerningGroup = O;
rightMetricsKey = O;
unicode = 0051;
},
{
color = 3;
glyphname = R;
layers = (
{
components = (
{
name = _topleftserif_cap;
transform = "{1, 0, 0, 1, 1, 0}";
},
{
name = _verticalstem_cap;
transform = "{1, 0, 0, 1, 4, 0}";
},
{
name = _bottomserif_cap;
transform = "{1, 0, 0, 1, 13, 0}";
}
);
guideLines = (
{
position = "{304, 42}";
}
);
layerId = "6E34CE51-C086-4FF0-804E-D019E96D60E0";
paths = (
{
closed = 1;
nodes = (
"650 0 LINE",
"650 39 LINE",
"588 46 OFFCURVE",
"571 52 OFFCURVE",
"546 101 CURVE SMOOTH",
"469 252 OFFCURVE",
"464 285 OFFCURVE",
"387 317 CURVE",
"387 324 LINE",
"482 331 OFFCURVE",
"576 386 OFFCURVE",
"576 497 CURVE SMOOTH",
"576 602 OFFCURVE",
"493 675 OFFCURVE",
"318 675 CURVE SMOOTH",
"179 675 LINE",
"179 617 LINE",
"230 624 OFFCURVE",
"267 628 OFFCURVE",
"322 628 CURVE SMOOTH",
"406 628 OFFCURVE",
"461 580 OFFCURVE",
"461 486 CURVE SMOOTH",
"461 416 OFFCURVE",
"412 347 OFFCURVE",
"305 347 CURVE SMOOTH",
"186 347 LINE",
"186 300 LINE",
"308 300 LINE",
"373 262 OFFCURVE",
"431 82 OFFCURVE",
"489 0 CURVE"
);
}
);
width = 655;
},
{
associatedMasterId = "6E34CE51-C086-4FF0-804E-D019E96D60E0";
components = (
{
name = _topleftserif_cap;
},
{
name = _verticalstem_cap;
transform = "{1, 0, 0, 1, 3, 0}";
},
{
name = _bottomserif_cap;
transform = "{1, 0, 0, 1, 12, 0}";
}
);
layerId = "FDC09C00-E959-4C11-8CF6-6F2C92C8F9E5";
name = "May 10 21, 11:54";
paths = (
{
closed = 1;
nodes = (
"229 626 OFFCURVE",
"266 630 OFFCURVE",
"321 630 CURVE SMOOTH",
"426 630 OFFCURVE",
"471 574 OFFCURVE",
"471 480 CURVE SMOOTH",
"471 400 OFFCURVE",
"419 337 OFFCURVE",
"304 337 CURVE SMOOTH",
"185 337 LINE",
"185 292 LINE",
"304 293 LINE",
"314 287 OFFCURVE",
"330 273 OFFCURVE",
"346 249 CURVE SMOOTH",
"390 182 OFFCURVE",
"419 127 OFFCURVE",
"454 78 CURVE SMOOTH",
"477 46 OFFCURVE",
"513 -3 OFFCURVE",
"597 -3 CURVE SMOOTH",
"620 -3 OFFCURVE",
"651 -1 OFFCURVE",
"666 2 CURVE",
"666 31 LINE",
"619 36 OFFCURVE",
"597 49 OFFCURVE",
"567 93 CURVE SMOOTH",
"488 211 LINE SMOOTH",
"439 285 OFFCURVE",
"419 296 OFFCURVE",
"370 308 CURVE",
"370 314 LINE",
"495 326 OFFCURVE",
"586 398 OFFCURVE",
"586 491 CURVE SMOOTH",
"586 596 OFFCURVE",
"511 675 OFFCURVE",
"317 675 CURVE SMOOTH",
"178 675 LINE",
"178 619 LINE"
);
}
);
width = 671;
},
{
associatedMasterId = "6E34CE51-C086-4FF0-804E-D019E96D60E0";
components = (
{
name = _topleftserif_cap;
},
{
name = _verticalstem_cap;
transform = "{1, 0, 0, 1, 3, 0}";
},
{
name = _bottomserif_cap;
transform = "{1, 0, 0, 1, 12, 0}";
}
);
layerId = "0A9A371C-C56B-402A-A53B-E73A530CFFA0";
name = "May 10 21, 11:57";
paths = (
{
closed = 1;
nodes = (
"185 337 LINE",
"185 292 LINE",
"304 293 LINE SMOOTH",
"467 294 OFFCURVE",
"586 381 OFFCURVE",
"586 491 CURVE SMOOTH",
"586 596 OFFCURVE",
"511 675 OFFCURVE",
"317 675 CURVE SMOOTH",
"178 675 LINE",
"178 619 LINE",
"229 626 OFFCURVE",
"266 630 OFFCURVE",
"321 630 CURVE SMOOTH",
"426 630 OFFCURVE",
"471 574 OFFCURVE",
"471 480 CURVE SMOOTH",
"471 400 OFFCURVE",
"419 337 OFFCURVE",
"304 337 CURVE"
);
},
{
closed = 1;
nodes = (
"347 234 OFFCURVE",
"381 143 OFFCURVE",
"430 75 CURVE SMOOTH",
"460 33 OFFCURVE",
"509 0 OFFCURVE",
"579 0 CURVE SMOOTH",
"599 0 OFFCURVE",
"620 1 OFFCURVE",
"638 5 CURVE",
"638 24 LINE",
"575 40 OFFCURVE",
"548 69 OFFCURVE",
"486 175 CURVE SMOOTH",
"442 251 OFFCURVE",
"421 292 OFFCURVE",
"409 320 CURVE",
"312 314 LINE"
);
}
);
width = 643;
},
{
associatedMasterId = "6E34CE51-C086-4FF0-804E-D019E96D60E0";
components = (
{
name = _topleftserif_cap;
},
{
name = _verticalstem_cap;
transform = "{1, 0, 0, 1, 3, 0}";
},
{
name = _bottomserif_cap;
transform = "{1, 0, 0, 1, 12, 0}";
}
);
layerId = "D99FAD9D-095A-45C6-A9E0-C57E8AC929DA";
name = "May 10 21, 12:00";
paths = (
{
closed = 1;
nodes = (
"185 337 LINE",
"185 292 LINE",
"304 293 LINE SMOOTH",
"467 294 OFFCURVE",
"586 381 OFFCURVE",
"586 491 CURVE SMOOTH",
"586 596 OFFCURVE",
"511 675 OFFCURVE",
"317 675 CURVE SMOOTH",
"178 675 LINE",
"178 619 LINE",
"229 626 OFFCURVE",
"266 630 OFFCURVE",
"321 630 CURVE SMOOTH",
"426 630 OFFCURVE",
"471 574 OFFCURVE",
"471 480 CURVE SMOOTH",
"471 400 OFFCURVE",
"419 337 OFFCURVE",
"304 337 CURVE"
);
},
{
closed = 1;
nodes = (
"347 234 OFFCURVE",
"381 143 OFFCURVE",
"430 75 CURVE SMOOTH",
"460 33 OFFCURVE",
"509 0 OFFCURVE",
"579 0 CURVE SMOOTH",
"599 0 OFFCURVE",
"620 1 OFFCURVE",
"638 5 CURVE",
"638 24 LINE",
"575 40 OFFCURVE",
"548 69 OFFCURVE",
"486 175 CURVE SMOOTH",
"442 251 OFFCURVE",
"421 292 OFFCURVE",
"409 320 CURVE",
"312 314 LINE"
);
}
);
width = 645;
},
{
associatedMasterId = "6E34CE51-C086-4FF0-804E-D019E96D60E0";
components = (
{
name = _topleftserif_cap;
},
{
name = _verticalstem_cap;
transform = "{1, 0, 0, 1, 3, 0}";
},
{
name = _bottomserif_cap;
transform = "{1, 0, 0, 1, 12, 0}";
}
);
layerId = "F438FBD2-4379-4E8A-AC7B-07AAAC6FF145";
name = "May 10 21, 12:03";
paths = (
{
closed = 1;
nodes = (
"185 337 LINE",
"185 292 LINE",
"298 293 LINE SMOOTH",
"329 293 OFFCURVE",
"359 313 OFFCURVE",
"387 316 CURVE SMOOTH",
"511 330 OFFCURVE",
"586 402 OFFCURVE",
"586 491 CURVE SMOOTH",
"586 596 OFFCURVE",
"511 675 OFFCURVE",
"317 675 CURVE SMOOTH",
"178 675 LINE",
"178 619 LINE",
"229 626 OFFCURVE",
"266 630 OFFCURVE",
"321 630 CURVE SMOOTH",
"426 630 OFFCURVE",
"471 574 OFFCURVE",
"471 480 CURVE SMOOTH",
"471 400 OFFCURVE",
"419 337 OFFCURVE",
"304 337 CURVE"
);
},
{
closed = 1;
nodes = (
"314 293 OFFCURVE",
"322 283 OFFCURVE",
"340 257 CURVE SMOOTH",
"386 190 OFFCURVE",
"419 127 OFFCURVE",
"454 78 CURVE SMOOTH",
"477 46 OFFCURVE",
"513 0 OFFCURVE",
"597 0 CURVE SMOOTH",
"620 0 OFFCURVE",
"651 2 OFFCURVE",
"666 5 CURVE",
"666 29 LINE",
"619 34 OFFCURVE",
"599 47 OFFCURVE",
"569 91 CURVE SMOOTH",
"488 211 LINE SMOOTH",
"439 283 OFFCURVE",
"419 302 OFFCURVE",
"381 320 CURVE",
"272 293 LINE"
);
}
);
width = 645;
},
{
associatedMasterId = "6E34CE51-C086-4FF0-804E-D019E96D60E0";
components = (
{
name = _topleftserif_cap;
},
{
name = _verticalstem_cap;
transform = "{1, 0, 0, 1, 3, 0}";
},
{
name = _bottomserif_cap;
transform = "{1, 0, 0, 1, 12, 0}";
}
);
layerId = "DC1CA3AB-2285-41DB-8CCB-E90DF5B07BFB";
name = "May 10 21, 16:23";
paths = (
{
closed = 1;
nodes = (
"185 337 LINE",
"185 292 LINE",
"304 293 LINE SMOOTH",
"467 294 OFFCURVE",
"586 381 OFFCURVE",
"586 491 CURVE SMOOTH",
"586 596 OFFCURVE",
"511 675 OFFCURVE",
"317 675 CURVE SMOOTH",
"178 675 LINE",
"178 619 LINE",
"229 626 OFFCURVE",
"266 630 OFFCURVE",
"321 630 CURVE SMOOTH",
"426 630 OFFCURVE",
"471 574 OFFCURVE",
"471 480 CURVE SMOOTH",
"471 400 OFFCURVE",
"419 337 OFFCURVE",
"304 337 CURVE"
);
},
{
closed = 1;
nodes = (
"347 234 OFFCURVE",
"381 143 OFFCURVE",
"430 75 CURVE SMOOTH",
"460 33 OFFCURVE",
"509 0 OFFCURVE",
"579 0 CURVE SMOOTH",
"599 0 OFFCURVE",
"620 1 OFFCURVE",
"638 5 CURVE",
"638 24 LINE",
"575 40 OFFCURVE",
"548 69 OFFCURVE",
"486 175 CURVE SMOOTH",
"442 251 OFFCURVE",
"421 292 OFFCURVE",
"409 320 CURVE",
"312 314 LINE"
);
}
);
width = 645;
}
);
leftKerningGroup = H;
leftMetricsKey = H;
unicode = 0052;
},
{
color = 3;
glyphname = S;
layers = (
{
anchors = (
{
name = bottom;
position = "{244, -15}";
},
{
name = top;
position = "{284, 650}";
}
);
layerId = "6E34CE51-C086-4FF0-804E-D019E96D60E0";
paths = (
{
closed = 1;
nodes = (
"387 -15 OFFCURVE",
"500 63 OFFCURVE",
"500 185 CURVE SMOOTH",
"500 301 OFFCURVE",
"421 352 OFFCURVE",
"303 390 CURVE SMOOTH",
"178 430 OFFCURVE",
"138 456 OFFCURVE",
"138 531 CURVE SMOOTH",
"138 588 OFFCURVE",
"183 633 OFFCURVE",
"268 633 CURVE SMOOTH",
"341 633 OFFCURVE",
"400 619 OFFCURVE",
"450 485 CURVE",
"480 485 LINE",
"472 647 LINE",
"421 673 OFFCURVE",
"354 685 OFFCURVE",
"283 685 CURVE SMOOTH",
"148 685 OFFCURVE",
"48 614 OFFCURVE",
"48 494 CURVE SMOOTH",
"48 390 OFFCURVE",
"114 344 OFFCURVE",
"235 303 CURVE SMOOTH",
"352 263 OFFCURVE",
"405 235 OFFCURVE",
"405 156 CURVE SMOOTH",
"405 80 OFFCURVE",
"352 37 OFFCURVE",
"269 37 CURVE SMOOTH",
"158 37 OFFCURVE",
"111 92 OFFCURVE",
"62 211 CURVE",
"30 211 LINE",
"47 25 LINE",
"102 0 OFFCURVE",
"167 -15 OFFCURVE",
"244 -15 CURVE"
);
}
);
width = 540;
},
{
associatedMasterId = "6E34CE51-C086-4FF0-804E-D019E96D60E0";
layerId = "A55AD93D-7436-4545-BC6B-50C661E1946D";
name = "Jun 1 21, 09:35";
paths = (
{
closed = 1;
nodes = (
"387 -15 OFFCURVE",
"500 63 OFFCURVE",
"500 185 CURVE SMOOTH",
"500 301 OFFCURVE",
"421 352 OFFCURVE",
"303 390 CURVE SMOOTH",
"178 430 OFFCURVE",
"138 456 OFFCURVE",
"138 531 CURVE SMOOTH",
"138 588 OFFCURVE",
"183 633 OFFCURVE",
"274 633 CURVE SMOOTH",
"347 633 OFFCURVE",
"402 620 OFFCURVE",
"456 485 CURVE",
"486 485 LINE",
"480 647 LINE",
"429 673 OFFCURVE",
"360 685 OFFCURVE",
"289 685 CURVE SMOOTH",
"154 685 OFFCURVE",
"48 614 OFFCURVE",
"48 494 CURVE SMOOTH",
"48 390 OFFCURVE",
"114 344 OFFCURVE",
"235 303 CURVE SMOOTH",
"352 263 OFFCURVE",
"405 235 OFFCURVE",
"405 156 CURVE SMOOTH",
"405 80 OFFCURVE",
"352 37 OFFCURVE",
"269 37 CURVE SMOOTH",
"158 37 OFFCURVE",
"111 92 OFFCURVE",
"62 211 CURVE",
"30 211 LINE",
"47 25 LINE",
"102 0 OFFCURVE",
"167 -15 OFFCURVE",
"244 -15 CURVE"
);
}
);
width = 540;
}
);
leftKerningGroup = S;
rightKerningGroup = S;
unicode = 0053;
},
{
color = 3;
glyphname = Germandbls;
layers = (
{
layerId = "6E34CE51-C086-4FF0-804E-D019E96D60E0";
paths = (
{
closed = 1;
nodes = (
"209 0 LINE",
"209 100 LINE",
"104 100 LINE",
"104 79 LINE SMOOTH",
"104 55 OFFCURVE",
"97 44 OFFCURVE",
"77 43 CURVE SMOOTH",
"20 39 LINE",
"20 0 LINE"
);
},
{
closed = 1;
nodes = (
"570 640 OFFCURVE",
"479 685 OFFCURVE",
"372 685 CURVE SMOOTH",
"213 685 OFFCURVE",
"104 562 OFFCURVE",
"104 475 CURVE",
"209 477 LINE",
"209 563 OFFCURVE",
"265 633 OFFCURVE",
"358 633 CURVE SMOOTH",
"429 633 OFFCURVE",
"483 592 OFFCURVE",
"498 500 CURVE",
"375 358 LINE",
"375 335 LINE",
"471 272 OFFCURVE",
"577 251 OFFCURVE",
"577 137 CURVE SMOOTH",
"577 73 OFFCURVE",
"532 37 OFFCURVE",
"475 37 CURVE SMOOTH",
"392 37 OFFCURVE",
"363 88 OFFCURVE",
"318 196 CURVE",
"284 196 LINE",
"301 21 LINE",
"344 -1 OFFCURVE",
"392 -15 OFFCURVE",
"460 -15 CURVE SMOOTH",
"566 -15 OFFCURVE",
"668 59 OFFCURVE",
"668 170 CURVE SMOOTH",
"668 315 OFFCURVE",
"506 374 OFFCURVE",
"455 396 CURVE",
"595 514 LINE",
"600 528 LINE"
);
},
{
closed = 1;
nodes = (
"209 0 LINE",
"209 497 LINE",
"104 475 LINE",
"104 0 LINE"
);
}
);
width = 698;
}
);
leftKerningGroup = Germandbls;
rightKerningGroup = Germandbls;
unicode = 1E9E;
},
{
color = 3;
glyphname = T;
layers = (
{
associatedMasterId = "6E34CE51-C086-4FF0-804E-D019E96D60E0";
components = (
{
alignment = -1;
name = _horizontalstem_cap;
transform = "{1, 0, 0, 1, -23, 323}";
},
{
alignment = -1;
name = _bottomserif_cap;
transform = "{1, 0, 0, 1, 207, 0}";
},
{
alignment = -1;
name = _verticalstem_cap;
transform = "{1, 0, 0, 1, 197, 0}";
}
);
layerId = "CC9A2F90-CCFF-42C2-A84B-BC05968B0908";
name = "May 7 21, 13:12";
paths = (
{
closed = 1;
nodes = (
"717 520 LINE",
"702 750 LINE",
"521 750 LINE",
"521 700 LINE",
"536 700 LINE",
"613 700 LINE",
"686 520 LINE"
);
},
{
closed = 1;
nodes = (
"51 520 LINE",
"124 700 LINE",
"201 700 LINE",
"216 700 LINE",
"216 750 LINE",
"35 750 LINE",
"20 520 LINE"
);
}
);
width = 737;
},
{
associatedMasterId = "6E34CE51-C086-4FF0-804E-D019E96D60E0";
components = (
{
alignment = -1;
name = _horizontalstem_cap;
transform = "{1, 0, 0, 1, -28, 323}";
},
{
alignment = -1;
name = _bottomserif_cap;
transform = "{1, 0, 0, 1, 202, 0}";
},
{
alignment = -1;
name = _verticalstem_cap;
transform = "{1, 0, 0, 1, 192, 0}";
}
);
layerId = "94B080CC-371A-42A5-923D-C6181A52B7A5";
name = "May 7 21, 13:12";
paths = (
{
closed = 1;
nodes = (
"712 520 LINE",
"697 750 LINE",
"516 750 LINE",
"516 700 LINE",
"531 700 LINE SMOOTH",
"585 700 OFFCURVE",
"615 682 OFFCURVE",
"638 626 CURVE SMOOTH",
"681 520 LINE"
);
},
{
closed = 1;
nodes = (
"46 520 LINE",
"89 626 LINE SMOOTH",
"112 682 OFFCURVE",
"142 700 OFFCURVE",
"196 700 CURVE SMOOTH",
"211 700 LINE",
"211 750 LINE",
"30 750 LINE",
"15 520 LINE"
);
}
);
width = 727;
},
{
associatedMasterId = "6E34CE51-C086-4FF0-804E-D019E96D60E0";
components = (
{
alignment = -1;
name = _horizontalstem_cap;
transform = "{1, 0, 0, 1, -28, 323}";
},
{
alignment = -1;
name = _bottomserif_cap;
transform = "{1, 0, 0, 1, 202, 0}";
},
{
alignment = -1;
name = _verticalstem_cap;
transform = "{1, 0, 0, 1, 192, 0}";
}
);
layerId = "34146487-CAAD-4774-AE32-4C93E7D06B9B";
name = "May 7 21, 15:39";
paths = (
{
closed = 1;
nodes = (
"717 520 LINE",
"702 750 LINE",
"521 750 LINE",
"521 700 LINE",
"536 700 LINE",
"613 700 LINE",
"686 520 LINE"
);
},
{
closed = 1;
nodes = (
"51 520 LINE",
"124 700 LINE",
"201 700 LINE",
"216 700 LINE",
"216 750 LINE",
"35 750 LINE",
"20 520 LINE"
);
}
);
width = 727;
},
{
associatedMasterId = "6E34CE51-C086-4FF0-804E-D019E96D60E0";
components = (
{
name = _horizontalstem_cap;
transform = "{1, 0, 0, 1, -35, 291}";
},
{
name = _verticalstem_cap;
transform = "{1, 0, 0, 1, 166, 0}";
},
{
name = _bottomserif_cap;
transform = "{1, 0, 0, 1, 175, 0}";
}
);
guideLines = (
{
angle = 270;
position = "{323, 679}";
}
);
layerId = "B3E02E92-E68F-42F3-BA5C-F046A26657DF";
name = "May 17 21, 10:45";
paths = (
{
closed = 1;
nodes = (
"631 468 LINE",
"618 675 LINE",
"453 675 LINE",
"453 628 LINE",
"467 628 LINE SMOOTH",
"515 628 OFFCURVE",
"531 625 OFFCURVE",
"549 583 CURVE SMOOTH",
"599 468 LINE"
);
},
{
closed = 1;
nodes = (
"48 468 LINE",
"98 583 LINE SMOOTH",
"116 625 OFFCURVE",
"132 628 OFFCURVE",
"180 628 CURVE SMOOTH",
"194 628 LINE",
"194 675 LINE",
"29 675 LINE",
"16 468 LINE"
);
}
);
width = 648;
},
{
associatedMasterId = "6E34CE51-C086-4FF0-804E-D019E96D60E0";
components = (
{
name = _horizontalstem_cap;
transform = "{1, 0, 0, 1, -35, 291}";
},
{
name = _verticalstem_cap;
transform = "{1, 0, 0, 1, 166, 0}";
},
{
name = _bottomserif_cap;
transform = "{1, 0, 0, 1, 175, 0}";
}
);
guideLines = (
{
angle = 270;
position = "{323, 679}";
}
);
layerId = "A3A1A8A5-FE70-4416-915B-04A5D194223D";
name = "May 17 21, 10:45";
paths = (
{
closed = 1;
nodes = (
"631 468 LINE",
"618 675 LINE",
"453 675 LINE",
"453 628 LINE",
"467 628 LINE SMOOTH",
"515 628 OFFCURVE",
"531 625 OFFCURVE",
"549 583 CURVE SMOOTH",
"599 468 LINE"
);
},
{
closed = 1;
nodes = (
"48 468 LINE",
"98 583 LINE SMOOTH",
"116 625 OFFCURVE",
"132 628 OFFCURVE",
"180 628 CURVE SMOOTH",
"194 628 LINE",
"194 675 LINE",
"29 675 LINE",
"16 468 LINE"
);
}
);
width = 648;
},
{
anchors = (
{
name = bottom;
position = "{323, -15}";
}
);
components = (
{
name = _horizontalstem_cap;
transform = "{1, 0, 0, 1, -35, 291}";
},
{
name = _verticalstem_cap;
transform = "{1, 0, 0, 1, 166, 0}";
},
{
name = _bottomserif_cap;
transform = "{1, 0, 0, 1, 175, 0}";
}
);
guideLines = (
{
angle = 270;
position = "{323, 679}";
}
);
layerId = "6E34CE51-C086-4FF0-804E-D019E96D60E0";
paths = (
{
closed = 1;
nodes = (
"631 468 LINE",
"618 675 LINE",
"455 675 LINE",
"455 628 LINE",
"528 628 LINE",
"598 468 LINE"
);
},
{
closed = 1;
nodes = (
"48 468 LINE",
"119 628 LINE",
"191 628 LINE",
"191 675 LINE",
"29 675 LINE",
"15 468 LINE"
);
}
);
width = 648;
}
);
leftKerningGroup = T;
rightKerningGroup = T;
unicode = 0054;
},
{
color = 3;
glyphname = U;
layers = (
{
anchors = (
{
name = top;
position = "{391, 650}";
}
);
layerId = "6E34CE51-C086-4FF0-804E-D019E96D60E0";
paths = (
{
closed = 1;
nodes = (
"549 -15 OFFCURVE",
"632 98 OFFCURVE",
"636 249 CURVE SMOOTH",
"646 601 LINE SMOOTH",
"647 625 OFFCURVE",
"654 635 OFFCURVE",
"673 637 CURVE SMOOTH",
"719 641 LINE",
"719 675 LINE",
"494 675 LINE",
"494 636 LINE",
"574 633 LINE",
"579 252 LINE",
"579 132 OFFCURVE",
"526 55 OFFCURVE",
"383 55 CURVE SMOOTH",
"256 55 OFFCURVE",
"199 144 OFFCURVE",
"199 258 CURVE SMOOTH",
"199 675 LINE",
"94 675 LINE",
"94 243 LINE SMOOTH",
"94 136 OFFCURVE",
"155 -15 OFFCURVE",
"369 -15 CURVE SMOOTH"
);
},
{
closed = 1;
nodes = (
"199 578 LINE",
"199 601 LINE SMOOTH",
"199 625 OFFCURVE",
"207 636 OFFCURVE",
"226 637 CURVE SMOOTH",
"286 641 LINE",
"286 675 LINE",
"20 675 LINE",
"20 636 LINE",
"94 633 LINE",
"94 578 LINE"
);
}
);
width = 739;
},
{
associatedMasterId = "6E34CE51-C086-4FF0-804E-D019E96D60E0";
layerId = "5466AAFA-6BAB-4980-B180-F3103F616F70";
name = "May 7 21, 15:39";
paths = (
{
closed = 1;
nodes = (
"654 142 OFFCURVE",
"585 50 OFFCURVE",
"427 50 CURVE SMOOTH",
"286 50 OFFCURVE",
"217 150 OFFCURVE",
"217 277 CURVE SMOOTH",
"217 750 LINE",
"112 750 LINE",
"112 270 LINE SMOOTH",
"112 151 OFFCURVE",
"180 -15 OFFCURVE",
"415 -15 CURVE SMOOTH",
"605 -15 OFFCURVE",
"705 109 OFFCURVE",
"708 277 CURVE SMOOTH",
"716 668 LINE SMOOTH",
"717 694 OFFCURVE",
"724 706 OFFCURVE",
"746 708 CURVE SMOOTH",
"797 712 LINE",
"797 750 LINE",
"556 750 LINE",
"556 707 LINE",
"648 703 LINE",
"654 276 LINE"
);
},
{
closed = 1;
nodes = (
"313 750 LINE",
"30 750 LINE",
"30 707 LINE",
"112 703 LINE",
"112 642 LINE",
"217 642 LINE",
"217 668 LINE SMOOTH",
"217 694 OFFCURVE",
"225 707 OFFCURVE",
"247 708 CURVE SMOOTH",
"313 712 LINE"
);
}
);
width = 827;
}
);
leftKerningGroup = U;
rightKerningGroup = U;
unicode = 0055;
},
{
color = 3;
glyphname = V;
layers = (
{
layerId = "6E34CE51-C086-4FF0-804E-D019E96D60E0";
paths = (
{
closed = 1;
nodes = (
"378 -15 LINE",
"419 90 LINE",
"208 603 LINE SMOOTH",
"198 628 OFFCURVE",
"215 633 OFFCURVE",
"231 634 CURVE SMOOTH",
"287 636 LINE",
"287 675 LINE",
"15 675 LINE",
"15 636 LINE",
"79 632 LINE",
"348 -15 LINE"
);
},
{
closed = 1;
nodes = (
"626 610 LINE SMOOTH",
"634 631 OFFCURVE",
"640 633 OFFCURVE",
"665 634 CURVE SMOOTH",
"699 636 LINE",
"699 675 LINE",
"474 675 LINE",
"474 636 LINE",
"564 633 LINE",
"360 34 LINE",
"396 31 LINE"
);
}
);
width = 704;
}
);
leftKerningGroup = V;
rightKerningGroup = V;
unicode = 0056;
},
{
color = 3;
glyphname = W;
layers = (
{
anchors = (
{
name = top;
position = "{565, 650}";
}
);
layerId = "6E34CE51-C086-4FF0-804E-D019E96D60E0";
paths = (
{
closed = 1;
nodes = (
"348 -15 LINE",
"550 517 LINE",
"537 517 LINE",
"748 -15 LINE",
"774 -15 LINE",
"982 610 LINE SMOOTH",
"989 631 OFFCURVE",
"996 633 OFFCURVE",
"1021 634 CURVE SMOOTH",
"1055 636 LINE",
"1055 675 LINE",
"825 675 LINE",
"825 636 LINE",
"915 633 LINE",
"788 154 LINE",
"584 675 LINE",
"537 675 LINE",
"366 156 LINE",
"218 603 LINE SMOOTH",
"210 628 OFFCURVE",
"225 633 OFFCURVE",
"241 634 CURVE SMOOTH",
"297 636 LINE",
"297 675 LINE",
"25 675 LINE",
"25 636 LINE",
"89 632 LINE",
"318 -15 LINE"
);
}
);
width = 1070;
}
);
leftKerningGroup = V;
rightKerningGroup = V;
unicode = 0057;
},
{
color = 3;
glyphname = X;
layers = (
{
guideLines = (
{
position = "{-14, 636}";
}
);
layerId = "6E34CE51-C086-4FF0-804E-D019E96D60E0";
paths = (
{
closed = 1;
nodes = (
"697 0 LINE",
"697 39 LINE",
"635 46 LINE",
"377 398 LINE",
"235 602 LINE SMOOTH",
"224 618 OFFCURVE",
"236 629 OFFCURVE",
"251 630 CURVE SMOOTH",
"315 636 LINE",
"315 675 LINE",
"19 675 LINE",
"19 636 LINE",
"83 628 LINE",
"324 307 LINE",
"477 85 LINE SMOOTH",
"496 58 OFFCURVE",
"477 46 OFFCURVE",
"456 44 CURVE SMOOTH",
"400 39 LINE",
"400 0 LINE"
);
},
{
closed = 1;
nodes = (
"232 0 LINE",
"232 39 LINE",
"159 45 LINE",
"366 349 LINE",
"315 349 LINE",
"93 67 LINE SMOOTH",
"76 46 OFFCURVE",
"58 44 OFFCURVE",
"34 42 CURVE SMOOTH",
"5 39 LINE",
"5 0 LINE"
);
},
{
closed = 1;
nodes = (
"367 334 LINE",
"589 618 LINE SMOOTH",
"599 630 OFFCURVE",
"612 632 OFFCURVE",
"632 633 CURVE SMOOTH",
"676 636 LINE",
"676 675 LINE",
"438 675 LINE",
"438 636 LINE",
"518 630 LINE",
"316 334 LINE"
);
}
);
width = 712;
}
);
leftKerningGroup = X;
rightKerningGroup = X;
unicode = 0058;
},
{
color = 3;
glyphname = Y;
layers = (
{
anchors = (
{
name = top;
position = "{347, 650}";
}
);
components = (
{
alignment = -1;
name = _bottomserif_cap;
transform = "{1, 0, 0, 1, 180, 0}";
}
);
layerId = "6E34CE51-C086-4FF0-804E-D019E96D60E0";
paths = (
{
closed = 1;
nodes = (
"375 296 LINE",
"204 603 LINE SMOOTH",
"191 626 OFFCURVE",
"211 633 OFFCURVE",
"227 634 CURVE SMOOTH",
"283 636 LINE",
"283 675 LINE",
"5 675 LINE",
"5 636 LINE",
"69 632 LINE",
"314 205 LINE",
"344 195 LINE"
);
},
{
closed = 1;
nodes = (
"381 0 LINE",
"381 308 LINE",
"276 308 LINE",
"276 0 LINE"
);
},
{
closed = 1;
nodes = (
"577 610 LINE SMOOTH",
"589 630 OFFCURVE",
"591 633 OFFCURVE",
"616 634 CURVE SMOOTH",
"650 636 LINE",
"650 675 LINE",
"430 675 LINE",
"430 636 LINE",
"520 633 LINE",
"326 244 LINE",
"362 241 LINE"
);
}
);
width = 655;
}
);
leftKerningGroup = Y;
rightKerningGroup = Y;
unicode = 0059;
},
{
color = 3;
glyphname = Z;
layers = (
{
associatedMasterId = "6E34CE51-C086-4FF0-804E-D019E96D60E0";
layerId = "38DF7B22-87A9-4140-91D2-923718A4789C";
name = "May 17 21, 10:45";
paths = (
{
closed = 1;
nodes = (
"147 0 LINE",
"581 646 LINE",
"581 675 LINE",
"486 675 LINE",
"45 27 LINE",
"45 0 LINE"
);
},
{
closed = 1;
nodes = (
"64 675 LINE",
"64 469 LINE",
"91 469 LINE",
"132 566 LINE SMOOTH",
"155 620 OFFCURVE",
"165 628 OFFCURVE",
"220 628 CURVE SMOOTH",
"509 628 LINE",
"509 675 LINE"
);
},
{
closed = 1;
nodes = (
"556 0 LINE",
"575 228 LINE",
"548 228 LINE",
"488 109 LINE SMOOTH",
"462 57 OFFCURVE",
"455 47 OFFCURVE",
"400 47 CURVE SMOOTH",
"111 47 LINE",
"111 0 LINE"
);
}
);
width = 617;
},
{
associatedMasterId = "6E34CE51-C086-4FF0-804E-D019E96D60E0";
layerId = "97B33A82-324A-4044-A5C0-348ABADAA645";
name = "May 17 21, 10:45";
paths = (
{
closed = 1;
nodes = (
"147 0 LINE",
"581 646 LINE",
"581 675 LINE",
"486 675 LINE",
"45 27 LINE",
"45 0 LINE"
);
},
{
closed = 1;
nodes = (
"64 675 LINE",
"64 469 LINE",
"91 469 LINE",
"132 566 LINE SMOOTH",
"155 620 OFFCURVE",
"165 628 OFFCURVE",
"220 628 CURVE SMOOTH",
"509 628 LINE",
"509 675 LINE"
);
},
{
closed = 1;
nodes = (
"556 0 LINE",
"575 228 LINE",
"548 228 LINE",
"488 109 LINE SMOOTH",
"462 57 OFFCURVE",
"455 47 OFFCURVE",
"400 47 CURVE SMOOTH",
"111 47 LINE",
"111 0 LINE"
);
}
);
width = 617;
},
{
anchors = (
{
name = bottom;
position = "{325, -15}";
}
);
layerId = "6E34CE51-C086-4FF0-804E-D019E96D60E0";
paths = (
{
closed = 1;
nodes = (
"147 0 LINE",
"571 646 LINE",
"571 675 LINE",
"476 675 LINE",
"45 27 LINE",
"45 0 LINE"
);
},
{
closed = 1;
nodes = (
"566 0 LINE",
"585 228 LINE",
"559 228 LINE",
"466 47 LINE",
"103 47 LINE",
"103 0 LINE"
);
},
{
closed = 1;
nodes = (
"92 468 LINE",
"163 628 LINE",
"525 628 LINE",
"525 675 LINE",
"64 675 LINE",
"64 468 LINE"
);
}
);
visible = 1;
width = 625;
}
);
leftKerningGroup = Z;
rightKerningGroup = Z;
unicode = 005A;
},
{
color = 3;
glyphname = a;
layers = (
{
anchors = (
{
name = top;
position = "{237, 450}";
}
);
guideLines = (
{
position = "{225, 34}";
}
);
layerId = "6E34CE51-C086-4FF0-804E-D019E96D60E0";
paths = (
{
closed = 1;
nodes = (
"401 -9 OFFCURVE",
"446 7 OFFCURVE",
"463 52 CURVE",
"454 61 LINE",
"440 47 OFFCURVE",
"425 43 OFFCURVE",
"412 43 CURVE SMOOTH",
"387 43 OFFCURVE",
"378 58 OFFCURVE",
"378 87 CURVE SMOOTH",
"378 318 LINE SMOOTH",
"378 411 OFFCURVE",
"326 450 OFFCURVE",
"237 450 CURVE SMOOTH",
"181 450 OFFCURVE",
"99 397 OFFCURVE",
"65 359 CURVE SMOOTH",
"54 347 OFFCURVE",
"50 333 OFFCURVE",
"50 321 CURVE SMOOTH",
"50 299 OFFCURVE",
"67 280 OFFCURVE",
"107 280 CURVE SMOOTH",
"116 280 OFFCURVE",
"126 281 OFFCURVE",
"137 283 CURVE",
"137 379 LINE",
"167 390 OFFCURVE",
"186 393 OFFCURVE",
"214 393 CURVE SMOOTH",
"252 393 OFFCURVE",
"285 361 OFFCURVE",
"285 299 CURVE SMOOTH",
"285 84 LINE SMOOTH",
"285 18 OFFCURVE",
"320 -9 OFFCURVE",
"367 -9 CURVE SMOOTH"
);
},
{
closed = 1;
nodes = (
"210 -9 OFFCURVE",
"252 25 OFFCURVE",
"296 67 CURVE",
"296 85 LINE",
"252 61 OFFCURVE",
"229 48 OFFCURVE",
"193 48 CURVE SMOOTH",
"149 48 OFFCURVE",
"132 79 OFFCURVE",
"132 113 CURVE SMOOTH",
"132 145 OFFCURVE",
"149 168 OFFCURVE",
"193 186 CURVE SMOOTH",
"232 202 OFFCURVE",
"270 210 OFFCURVE",
"290 213 CURVE",
"290 244 LINE",
"238 235 OFFCURVE",
"169 220 OFFCURVE",
"131 207 CURVE SMOOTH",
"54 180 OFFCURVE",
"34 135 OFFCURVE",
"34 91 CURVE SMOOTH",
"34 31 OFFCURVE",
"74 -9 OFFCURVE",
"142 -9 CURVE SMOOTH"
);
},
{
closed = 1;
nodes = (
"297 50 LINE",
"297 61 LINE",
"274 61 LINE",
"274 50 LINE"
);
}
);
width = 463;
},
{
associatedMasterId = "6E34CE51-C086-4FF0-804E-D019E96D60E0";
layerId = "26E08307-56BD-4038-902D-02C1FB7A1E0C";
name = "Apr 19 21, 22:36";
paths = (
{
closed = 1;
nodes = (
"311 330 LINE SMOOTH",
"311 399 OFFCURVE",
"276 425 OFFCURVE",
"227 425 CURVE SMOOTH",
"183 425 OFFCURVE",
"128 411 OFFCURVE",
"68 369 CURVE",
"55 389 LINE",
"122 470 OFFCURVE",
"194 500 OFFCURVE",
"260 500 CURVE SMOOTH",
"354 500 OFFCURVE",
"406 457 OFFCURVE",
"406 353 CURVE SMOOTH",
"406 93 LINE SMOOTH",
"406 61 OFFCURVE",
"416 45 OFFCURVE",
"444 45 CURVE SMOOTH",
"458 45 OFFCURVE",
"475 51 OFFCURVE",
"491 65 CURVE",
"498 58 LINE",
"480 8 OFFCURVE",
"432 -10 OFFCURVE",
"394 -10 CURVE SMOOTH",
"341 -10 OFFCURVE",
"311 20 OFFCURVE",
"311 93 CURVE"
);
},
{
closed = 1;
nodes = (
"319 239 LINE",
"297 235 OFFCURVE",
"269 230 OFFCURVE",
"232 220 CURVE SMOOTH",
"160 201 OFFCURVE",
"138 165 OFFCURVE",
"138 125 CURVE SMOOTH",
"138 88 OFFCURVE",
"157 50 OFFCURVE",
"199 50 CURVE SMOOTH",
"234 50 OFFCURVE",
"277 65 OFFCURVE",
"326 92 CURVE",
"326 74 LINE",
"277 28 OFFCURVE",
"223 -15 OFFCURVE",
"155 -15 CURVE SMOOTH",
"83 -15 OFFCURVE",
"40 29 OFFCURVE",
"40 101 CURVE SMOOTH",
"40 196 OFFCURVE",
"112 230 OFFCURVE",
"197 246 CURVE SMOOTH",
"239 254 OFFCURVE",
"277 261 OFFCURVE",
"319 267 CURVE"
);
}
);
width = 518;
},
{
associatedMasterId = "6E34CE51-C086-4FF0-804E-D019E96D60E0";
guideLines = (
{
position = "{223, 46}";
}
);
layerId = "02E957AD-E448-4539-9851-5B400E781C9F";
name = "Apr 21 21, 21:25";
paths = (
{
closed = 1;
nodes = (
"328 330 LINE SMOOTH",
"328 399 OFFCURVE",
"285 431 OFFCURVE",
"236 431 CURVE SMOOTH",
"180 431 OFFCURVE",
"143 415 OFFCURVE",
"95 394 CURVE",
"89 395 LINE",
"124 429 OFFCURVE",
"215 500 OFFCURVE",
"277 500 CURVE SMOOTH",
"371 500 OFFCURVE",
"423 457 OFFCURVE",
"423 353 CURVE SMOOTH",
"423 94 LINE SMOOTH",
"423 62 OFFCURVE",
"433 46 OFFCURVE",
"461 46 CURVE SMOOTH",
"475 46 OFFCURVE",
"492 51 OFFCURVE",
"508 65 CURVE",
"517 58 LINE",
"499 8 OFFCURVE",
"449 -10 OFFCURVE",
"411 -10 CURVE SMOOTH",
"358 -10 OFFCURVE",
"328 20 OFFCURVE",
"328 93 CURVE"
);
},
{
closed = 1;
nodes = (
"336 242 LINE",
"314 238 OFFCURVE",
"286 232 OFFCURVE",
"249 220 CURVE SMOOTH",
"179 197 OFFCURVE",
"153 165 OFFCURVE",
"153 125 CURVE SMOOTH",
"153 88 OFFCURVE",
"172 46 OFFCURVE",
"221 46 CURVE SMOOTH",
"261 46 OFFCURVE",
"294 65 OFFCURVE",
"343 92 CURVE",
"343 74 LINE",
"294 28 OFFCURVE",
"248 -15 OFFCURVE",
"172 -15 CURVE SMOOTH",
"100 -15 OFFCURVE",
"55 29 OFFCURVE",
"55 101 CURVE SMOOTH",
"55 196 OFFCURVE",
"140 232 OFFCURVE",
"225 248 CURVE SMOOTH",
"267 256 OFFCURVE",
"294 261 OFFCURVE",
"336 267 CURVE"
);
},
{
closed = 1;
nodes = (
"151 305 LINE",
"93 291 OFFCURVE",
"69 316 OFFCURVE",
"69 349 CURVE SMOOTH",
"69 375 OFFCURVE",
"81 384 OFFCURVE",
"89 395 CURVE",
"151 428 LINE"
);
}
);
width = 537;
},
{
associatedMasterId = "6E34CE51-C086-4FF0-804E-D019E96D60E0";
guideLines = (
{
position = "{210, 46}";
}
);
layerId = "72F83ADE-831A-4F46-B3F8-48C503900634";
name = "Apr 26 21, 15:11";
paths = (
{
closed = 1;
nodes = (
"436 -10 OFFCURVE",
"486 8 OFFCURVE",
"504 58 CURVE",
"495 65 LINE",
"479 51 OFFCURVE",
"462 46 OFFCURVE",
"448 46 CURVE SMOOTH",
"420 46 OFFCURVE",
"410 62 OFFCURVE",
"410 94 CURVE SMOOTH",
"410 353 LINE SMOOTH",
"410 457 OFFCURVE",
"358 500 OFFCURVE",
"264 500 CURVE SMOOTH",
"202 500 OFFCURVE",
"111 429 OFFCURVE",
"76 395 CURVE",
"82 394 LINE",
"130 415 OFFCURVE",
"167 431 OFFCURVE",
"223 431 CURVE SMOOTH",
"272 431 OFFCURVE",
"315 399 OFFCURVE",
"315 330 CURVE SMOOTH",
"315 93 LINE",
"315 20 OFFCURVE",
"345 -10 OFFCURVE",
"398 -10 CURVE SMOOTH"
);
},
{
closed = 1;
nodes = (
"238 -15 OFFCURVE",
"281 28 OFFCURVE",
"330 74 CURVE",
"330 92 LINE",
"281 65 OFFCURVE",
"251 46 OFFCURVE",
"211 46 CURVE SMOOTH",
"162 46 OFFCURVE",
"143 88 OFFCURVE",
"143 125 CURVE SMOOTH",
"143 161 OFFCURVE",
"154 186 OFFCURVE",
"209 209 CURVE SMOOTH",
"252 227 OFFCURVE",
"301 236 OFFCURVE",
"323 239 CURVE",
"323 271 LINE",
"266 261 OFFCURVE",
"192 245 OFFCURVE",
"150 230 CURVE SMOOTH",
"68 200 OFFCURVE",
"45 150 OFFCURVE",
"45 101 CURVE SMOOTH",
"45 29 OFFCURVE",
"90 -15 OFFCURVE",
"162 -15 CURVE SMOOTH"
);
},
{
closed = 1;
nodes = (
"331 56 LINE",
"331 68 LINE",
"305 68 LINE",
"305 56 LINE"
);
},
{
closed = 1;
nodes = (
"138 428 LINE",
"76 395 LINE",
"68 384 OFFCURVE",
"56 375 OFFCURVE",
"56 349 CURVE SMOOTH",
"56 316 OFFCURVE",
"80 291 OFFCURVE",
"138 305 CURVE"
);
}
);
width = 519;
},
{
associatedMasterId = "6E34CE51-C086-4FF0-804E-D019E96D60E0";
guideLines = (
{
position = "{210, 46}";
}
);
layerId = "A3B4EB3F-80F1-4D3A-87FC-20A07457902E";
name = "Apr 26 21, 22:11";
paths = (
{
closed = 1;
nodes = (
"238 -15 OFFCURVE",
"281 28 OFFCURVE",
"330 74 CURVE",
"330 92 LINE",
"281 65 OFFCURVE",
"251 46 OFFCURVE",
"211 46 CURVE SMOOTH",
"162 46 OFFCURVE",
"143 88 OFFCURVE",
"143 125 CURVE SMOOTH",
"143 161 OFFCURVE",
"154 183 OFFCURVE",
"209 206 CURVE SMOOTH",
"252 224 OFFCURVE",
"301 236 OFFCURVE",
"323 239 CURVE",
"323 271 LINE",
"266 261 OFFCURVE",
"192 245 OFFCURVE",
"150 230 CURVE SMOOTH",
"68 200 OFFCURVE",
"45 150 OFFCURVE",
"45 101 CURVE SMOOTH",
"45 29 OFFCURVE",
"90 -15 OFFCURVE",
"162 -15 CURVE SMOOTH"
);
},
{
closed = 1;
nodes = (
"331 56 LINE",
"331 68 LINE",
"305 68 LINE",
"305 56 LINE"
);
},
{
closed = 1;
nodes = (
"56 316 OFFCURVE",
"80 291 OFFCURVE",
"138 305 CURVE",
"138 417 LINE",
"164 425 OFFCURVE",
"190 431 OFFCURVE",
"223 431 CURVE SMOOTH",
"272 431 OFFCURVE",
"315 399 OFFCURVE",
"315 330 CURVE SMOOTH",
"315 93 LINE SMOOTH",
"315 20 OFFCURVE",
"345 -10 OFFCURVE",
"398 -10 CURVE SMOOTH",
"436 -10 OFFCURVE",
"486 8 OFFCURVE",
"504 58 CURVE",
"495 65 LINE",
"479 51 OFFCURVE",
"462 46 OFFCURVE",
"448 46 CURVE SMOOTH",
"420 46 OFFCURVE",
"410 62 OFFCURVE",
"410 94 CURVE SMOOTH",
"410 353 LINE SMOOTH",
"410 457 OFFCURVE",
"358 500 OFFCURVE",
"264 500 CURVE SMOOTH",
"202 500 OFFCURVE",
"113 431 OFFCURVE",
"76 395 CURVE SMOOTH",
"66 385 OFFCURVE",
"56 371 OFFCURVE",
"56 349 CURVE SMOOTH"
);
}
);
width = 519;
},
{
associatedMasterId = "6E34CE51-C086-4FF0-804E-D019E96D60E0";
guideLines = (
{
position = "{210, 46}";
}
);
layerId = "720739A8-6A3B-4EC5-8258-D8C02252F99A";
name = "May 7 21, 15:39";
paths = (
{
closed = 1;
nodes = (
"436 -10 OFFCURVE",
"486 8 OFFCURVE",
"504 58 CURVE",
"495 65 LINE",
"479 51 OFFCURVE",
"462 46 OFFCURVE",
"448 46 CURVE SMOOTH",
"420 46 OFFCURVE",
"410 62 OFFCURVE",
"410 94 CURVE SMOOTH",
"410 353 LINE SMOOTH",
"410 457 OFFCURVE",
"358 500 OFFCURVE",
"264 500 CURVE SMOOTH",
"202 500 OFFCURVE",
"113 431 OFFCURVE",
"76 395 CURVE SMOOTH",
"66 385 OFFCURVE",
"56 371 OFFCURVE",
"56 349 CURVE SMOOTH",
"56 316 OFFCURVE",
"80 291 OFFCURVE",
"138 305 CURVE",
"138 417 LINE",
"164 425 OFFCURVE",
"190 431 OFFCURVE",
"223 431 CURVE SMOOTH",
"272 431 OFFCURVE",
"315 399 OFFCURVE",
"315 330 CURVE SMOOTH",
"315 93 LINE SMOOTH",
"315 20 OFFCURVE",
"345 -10 OFFCURVE",
"398 -10 CURVE SMOOTH"
);
},
{
closed = 1;
nodes = (
"238 -10 OFFCURVE",
"281 28 OFFCURVE",
"330 74 CURVE",
"330 92 LINE",
"281 65 OFFCURVE",
"251 51 OFFCURVE",
"211 51 CURVE SMOOTH",
"162 51 OFFCURVE",
"143 88 OFFCURVE",
"143 125 CURVE SMOOTH",
"143 161 OFFCURVE",
"160 186 OFFCURVE",
"209 206 CURVE SMOOTH",
"252 223 OFFCURVE",
"301 236 OFFCURVE",
"323 239 CURVE",
"323 271 LINE",
"266 261 OFFCURVE",
"192 245 OFFCURVE",
"150 230 CURVE SMOOTH",
"68 200 OFFCURVE",
"45 150 OFFCURVE",
"45 101 CURVE SMOOTH",
"45 34 OFFCURVE",
"90 -10 OFFCURVE",
"162 -10 CURVE SMOOTH"
);
},
{
closed = 1;
nodes = (
"331 56 LINE",
"331 68 LINE",
"305 68 LINE",
"305 56 LINE"
);
}
);
width = 519;
},
{
associatedMasterId = "6E34CE51-C086-4FF0-804E-D019E96D60E0";
guideLines = (
{
position = "{225, 34}";
}
);
layerId = "B848345E-176B-43F0-99FF-360D39820C2E";
name = "May 9 21, 20:39";
paths = (
{
closed = 1;
nodes = (
"396 -9 OFFCURVE",
"441 7 OFFCURVE",
"458 52 CURVE",
"450 59 LINE",
"435 46 OFFCURVE",
"420 41 OFFCURVE",
"407 41 CURVE SMOOTH",
"382 41 OFFCURVE",
"373 56 OFFCURVE",
"373 85 CURVE SMOOTH",
"373 318 LINE SMOOTH",
"373 411 OFFCURVE",
"326 450 OFFCURVE",
"237 450 CURVE SMOOTH",
"181 450 OFFCURVE",
"97 388 OFFCURVE",
"63 356 CURVE SMOOTH",
"54 347 OFFCURVE",
"45 334 OFFCURVE",
"45 314 CURVE SMOOTH",
"45 284 OFFCURVE",
"71 262 OFFCURVE",
"123 275 CURVE",
"123 375 LINE",
"147 383 OFFCURVE",
"170 388 OFFCURVE",
"200 388 CURVE SMOOTH",
"244 388 OFFCURVE",
"283 359 OFFCURVE",
"283 297 CURVE SMOOTH",
"283 84 LINE SMOOTH",
"283 18 OFFCURVE",
"315 -9 OFFCURVE",
"362 -9 CURVE SMOOTH"
);
},
{
closed = 1;
nodes = (
"211 -9 OFFCURVE",
"252 25 OFFCURVE",
"296 67 CURVE",
"296 85 LINE",
"252 61 OFFCURVE",
"225 48 OFFCURVE",
"189 48 CURVE SMOOTH",
"145 48 OFFCURVE",
"128 79 OFFCURVE",
"128 113 CURVE SMOOTH",
"128 145 OFFCURVE",
"143 167 OFFCURVE",
"187 185 CURVE SMOOTH",
"226 201 OFFCURVE",
"270 209 OFFCURVE",
"290 212 CURVE",
"290 244 LINE",
"238 235 OFFCURVE",
"170 220 OFFCURVE",
"132 207 CURVE SMOOTH",
"55 180 OFFCURVE",
"35 135 OFFCURVE",
"35 91 CURVE SMOOTH",
"35 31 OFFCURVE",
"75 -9 OFFCURVE",
"143 -9 CURVE SMOOTH"
);
},
{
closed = 1;
nodes = (
"297 50 LINE",
"297 61 LINE",
"274 61 LINE",
"274 50 LINE"
);
}
);
width = 463;
}
);
leftKerningGroup = a;
rightKerningGroup = a;
unicode = 0061;
},
{
color = 3;
glyphname = ae;
layers = (
{
anchors = (
{
name = top;
position = "{232, 450}";
}
);
layerId = "6E34CE51-C086-4FF0-804E-D019E96D60E0";
paths = (
{
closed = 1;
nodes = (
"210 -9 OFFCURVE",
"260 13 OFFCURVE",
"320 74 CURVE",
"314 95 LINE",
"269 69 OFFCURVE",
"236 48 OFFCURVE",
"193 48 CURVE SMOOTH",
"149 48 OFFCURVE",
"132 79 OFFCURVE",
"132 113 CURVE SMOOTH",
"132 145 OFFCURVE",
"149 168 OFFCURVE",
"193 186 CURVE SMOOTH",
"232 202 OFFCURVE",
"270 210 OFFCURVE",
"290 213 CURVE",
"290 244 LINE",
"238 235 OFFCURVE",
"169 220 OFFCURVE",
"131 207 CURVE SMOOTH",
"54 180 OFFCURVE",
"34 135 OFFCURVE",
"34 91 CURVE SMOOTH",
"34 31 OFFCURVE",
"74 -9 OFFCURVE",
"142 -9 CURVE SMOOTH"
);
},
{
closed = 1;
nodes = (
"362 51 LINE",
"355 59 OFFCURVE",
"352 71 OFFCURVE",
"352 87 CURVE SMOOTH",
"352 318 LINE SMOOTH",
"352 411 OFFCURVE",
"317 450 OFFCURVE",
"231 450 CURVE SMOOTH",
"180 450 OFFCURVE",
"99 397 OFFCURVE",
"65 359 CURVE SMOOTH",
"54 347 OFFCURVE",
"50 333 OFFCURVE",
"50 321 CURVE SMOOTH",
"50 294 OFFCURVE",
"75 272 OFFCURVE",
"137 283 CURVE",
"137 379 LINE",
"167 390 OFFCURVE",
"185 393 OFFCURVE",
"208 393 CURVE SMOOTH",
"246 393 OFFCURVE",
"279 361 OFFCURVE",
"279 299 CURVE SMOOTH",
"279 209 LINE SMOOTH",
"279 145 OFFCURVE",
"364 -10 OFFCURVE",
"486 -10 CURVE"
);
},
{
closed = 1;
nodes = (
"577 -10 OFFCURVE",
"638 50 OFFCURVE",
"655 102 CURVE",
"643 113 LINE",
"599 68 OFFCURVE",
"556 61 OFFCURVE",
"516 61 CURVE SMOOTH",
"418 61 OFFCURVE",
"365 128 OFFCURVE",
"365 251 CURVE SMOOTH",
"365 362 OFFCURVE",
"407 406 OFFCURVE",
"470 406 CURVE SMOOTH",
"533 406 OFFCURVE",
"560 348 OFFCURVE",
"560 277 CURVE",
"351 277 LINE",
"351 237 LINE",
"659 237 LINE",
"659 273 LINE SMOOTH",
"659 385 OFFCURVE",
"589 450 OFFCURVE",
"489 450 CURVE SMOOTH",
"370 450 OFFCURVE",
"279 351 OFFCURVE",
"279 209 CURVE SMOOTH",
"279 69 OFFCURVE",
"342 -10 OFFCURVE",
"481 -10 CURVE SMOOTH"
);
},
{
closed = 1;
nodes = (
"325 63 LINE",
"325 74 LINE",
"302 74 LINE",
"302 63 LINE"
);
}
);
width = 694;
}
);
leftKerningGroup = a;
leftMetricsKey = a;
rightKerningGroup = e;
rightMetricsKey = e;
unicode = 00E6;
},
{
color = 3;
glyphname = b;
layers = (
{
components = (
{
name = _topserif_lc;
transform = "{1, 0, 0, 1, -13, 270}";
},
{
name = _bowl_lc;
transform = "{1, 0, 0, 1, 2, 0}";
}
);
layerId = "6E34CE51-C086-4FF0-804E-D019E96D60E0";
paths = (
{
closed = 1;
nodes = (
"80 -5 LINE",
"163 69 LINE",
"163 677 LINE",
"70 677 LINE",
"70 -5 LINE"
);
}
);
width = 527;
},
{
associatedMasterId = "6E34CE51-C086-4FF0-804E-D019E96D60E0";
layerId = "E6B2CD62-7A5D-4BCD-817E-ECB589482E11";
name = "Apr 20 21, 12:10";
paths = (
{
closed = 1;
nodes = (
"120 0 LINE",
"125 0 LINE",
"215 97 LINE",
"215 752 LINE",
"120 752 LINE"
);
},
{
closed = 1;
nodes = (
"207 798 LINE",
"56 764 LINE",
"56 749 LINE",
"215 652 LINE",
"215 798 LINE"
);
},
{
closed = 1;
nodes = (
"182 397 LINE",
"223 397 LINE",
"223 412 LINE",
"182 412 LINE"
);
},
{
closed = 1;
nodes = (
"575 412 OFFCURVE",
"495 500 OFFCURVE",
"388 500 CURVE SMOOTH",
"281 500 OFFCURVE",
"221 423 OFFCURVE",
"202 379 CURVE",
"205 375 LINE",
"249 412 OFFCURVE",
"300 425 OFFCURVE",
"340 425 CURVE SMOOTH",
"431 425 OFFCURVE",
"480 365 OFFCURVE",
"480 226 CURVE SMOOTH",
"480 97 OFFCURVE",
"403 40 OFFCURVE",
"333 40 CURVE SMOOTH",
"259 40 OFFCURVE",
"215 102 OFFCURVE",
"215 197 CURVE",
"130 214 LINE",
"130 170 LINE SMOOTH",
"130 66 OFFCURVE",
"203 -10 OFFCURVE",
"322 -10 CURVE SMOOTH",
"449 -10 OFFCURVE",
"575 110 OFFCURVE",
"575 268 CURVE"
);
}
);
width = 636;
},
{
associatedMasterId = "6E34CE51-C086-4FF0-804E-D019E96D60E0";
components = (
{
name = _bowl_lc;
},
{
name = _topserif_lc;
transform = "{1, 0, 0, 1, -6, 305}";
}
);
layerId = "B8393ABA-816D-4AE0-96FF-1C4731FA0270";
name = "May 7 21, 15:39";
paths = (
{
closed = 1;
nodes = (
"96 -5 LINE",
"179 77 LINE",
"179 752 LINE",
"84 752 LINE",
"84 -5 LINE"
);
}
);
width = 570;
}
);
leftKerningGroup = b;
rightKerningGroup = o;
rightMetricsKey = o;
unicode = 0062;
},
{
color = 3;
glyphname = c;
layers = (
{
anchors = (
{
name = bottom;
position = "{229, -10}";
}
);
layerId = "6E34CE51-C086-4FF0-804E-D019E96D60E0";
paths = (
{
closed = 1;
nodes = (
"340 -10 OFFCURVE",
"393 58 OFFCURVE",
"410 102 CURVE",
"398 113 LINE",
"359 76 OFFCURVE",
"317 62 OFFCURVE",
"275 62 CURVE SMOOTH",
"189 62 OFFCURVE",
"132 120 OFFCURVE",
"132 242 CURVE SMOOTH",
"132 353 OFFCURVE",
"178 405 OFFCURVE",
"246 405 CURVE SMOOTH",
"264 405 OFFCURVE",
"282 402 OFFCURVE",
"290 398 CURVE",
"320 306 LINE",
"371 306 OFFCURVE",
"400 335 OFFCURVE",
"400 368 CURVE SMOOTH",
"400 411 OFFCURVE",
"346 450 OFFCURVE",
"273 450 CURVE SMOOTH",
"142 450 OFFCURVE",
"35 347 OFFCURVE",
"35 203 CURVE SMOOTH",
"35 76 OFFCURVE",
"104 -10 OFFCURVE",
"235 -10 CURVE SMOOTH"
);
}
);
width = 430;
},
{
associatedMasterId = "6E34CE51-C086-4FF0-804E-D019E96D60E0";
layerId = "3151640C-3FA5-4B9A-B9F9-F0A9817CF4F1";
name = "Apr 26 21, 16:00";
paths = (
{
closed = 1;
nodes = (
"40 81 OFFCURVE",
"124 -10 OFFCURVE",
"255 -10 CURVE SMOOTH",
"361 -10 OFFCURVE",
"416 57 OFFCURVE",
"432 114 CURVE",
"423 121 LINE",
"380 73 OFFCURVE",
"322 65 OFFCURVE",
"285 65 CURVE SMOOTH",
"186 65 OFFCURVE",
"133 140 OFFCURVE",
"133 279 CURVE SMOOTH",
"133 402 OFFCURVE",
"188 451 OFFCURVE",
"264 451 CURVE SMOOTH",
"276 451 OFFCURVE",
"288 450 OFFCURVE",
"293 448 CURVE",
"342 361 LINE",
"394 373 OFFCURVE",
"420 395 OFFCURVE",
"420 430 CURVE SMOOTH",
"420 472 OFFCURVE",
"389 500 OFFCURVE",
"312 500 CURVE SMOOTH",
"158 500 OFFCURVE",
"40 402 OFFCURVE",
"40 232 CURVE SMOOTH"
);
}
);
width = 497;
},
{
associatedMasterId = "6E34CE51-C086-4FF0-804E-D019E96D60E0";
layerId = "B6237D3B-8189-46F8-BC4C-9DC5715DBF0F";
name = "Apr 26 21, 16:02";
paths = (
{
closed = 1;
nodes = (
"40 81 OFFCURVE",
"124 -10 OFFCURVE",
"255 -10 CURVE SMOOTH",
"361 -10 OFFCURVE",
"416 57 OFFCURVE",
"432 114 CURVE",
"423 121 LINE",
"380 73 OFFCURVE",
"322 65 OFFCURVE",
"285 65 CURVE SMOOTH",
"186 65 OFFCURVE",
"133 140 OFFCURVE",
"133 279 CURVE SMOOTH",
"133 390 OFFCURVE",
"183 451 OFFCURVE",
"293 451 CURVE",
"342 361 LINE",
"394 363 OFFCURVE",
"420 387 OFFCURVE",
"420 422 CURVE SMOOTH",
"420 464 OFFCURVE",
"376 500 OFFCURVE",
"299 500 CURVE SMOOTH",
"157 500 OFFCURVE",
"40 402 OFFCURVE",
"40 232 CURVE SMOOTH"
);
}
);
width = 497;
},
{
associatedMasterId = "6E34CE51-C086-4FF0-804E-D019E96D60E0";
layerId = "4B5E53A9-0F7C-4CFC-B700-6D67F422B68F";
name = "May 7 21, 15:39";
paths = (
{
closed = 1;
nodes = (
"370 -10 OFFCURVE",
"423 61 OFFCURVE",
"442 114 CURVE",
"433 121 LINE",
"390 73 OFFCURVE",
"331 65 OFFCURVE",
"294 65 CURVE SMOOTH",
"199 65 OFFCURVE",
"135 130 OFFCURVE",
"135 269 CURVE SMOOTH",
"135 392 OFFCURVE",
"188 454 OFFCURVE",
"270 454 CURVE SMOOTH",
"284 454 OFFCURVE",
"307 451 OFFCURVE",
"313 448 CURVE",
"353 358 LINE",
"402 363 OFFCURVE",
"433 381 OFFCURVE",
"433 414 CURVE SMOOTH",
"433 457 OFFCURVE",
"385 500 OFFCURVE",
"300 500 CURVE SMOOTH",
"155 500 OFFCURVE",
"40 385 OFFCURVE",
"40 225 CURVE SMOOTH",
"40 74 OFFCURVE",
"127 -10 OFFCURVE",
"258 -10 CURVE SMOOTH"
);
}
);
width = 467;
},
{
associatedMasterId = "6E34CE51-C086-4FF0-804E-D019E96D60E0";
layerId = "9F3DF6BB-F711-49AC-992C-B232FF29BD5C";
name = "May 9 21, 20:44";
paths = (
{
closed = 1;
nodes = (
"337 -10 OFFCURVE",
"385 58 OFFCURVE",
"402 106 CURVE",
"392 113 LINE",
"353 70 OFFCURVE",
"302 62 OFFCURVE",
"269 62 CURVE SMOOTH",
"183 62 OFFCURVE",
"126 120 OFFCURVE",
"126 242 CURVE SMOOTH",
"126 353 OFFCURVE",
"175 407 OFFCURVE",
"246 407 CURVE SMOOTH",
"259 407 OFFCURVE",
"279 404 OFFCURVE",
"285 401 CURVE",
"320 322 LINE",
"364 327 OFFCURVE",
"394 343 OFFCURVE",
"394 373 CURVE SMOOTH",
"394 411 OFFCURVE",
"351 450 OFFCURVE",
"274 450 CURVE SMOOTH",
"139 450 OFFCURVE",
"35 347 OFFCURVE",
"35 203 CURVE SMOOTH",
"35 67 OFFCURVE",
"113 -10 OFFCURVE",
"236 -10 CURVE SMOOTH"
);
}
);
visible = 1;
width = 424;
}
);
leftKerningGroup = o;
leftMetricsKey = o;
rightKerningGroup = c;
unicode = 0063;
},
{
color = 3;
glyphname = d;
layers = (
{
anchors = (
{
name = bottom;
position = "{254, -10}";
}
);
components = (
{
alignment = -1;
name = _bowl_lc;
transform = "{-1, 0, 0, -1, 525, 440}";
},
{
name = _verticalstem_long_lc;
transform = "{1, 0, 0, 1, 270, 0}";
},
{
name = _topserif_lc;
transform = "{1, 0, 0, 1, 281, 270}";
},
{
name = _bottomrightserif_lc;
transform = "{1, 0, 0, 1, 22, 0}";
}
);
layerId = "6E34CE51-C086-4FF0-804E-D019E96D60E0";
width = 542;
},
{
associatedMasterId = "6E34CE51-C086-4FF0-804E-D019E96D60E0";
components = (
{
name = _topserif_lc;
transform = "{1, 0, 0, 1, 290, 303}";
}
);
layerId = "C6708016-7E84-40FD-8159-ED354AACE39E";
name = sharp;
paths = (
{
closed = 1;
nodes = (
"380 -10 LINE",
"390 -10 LINE",
"475 2 LINE",
"475 752 LINE",
"380 752 LINE"
);
},
{
closed = 1;
nodes = (
"390 -10 LINE",
"548 10 LINE",
"548 50 LINE",
"399 50 LINE",
"390 22 LINE"
);
},
{
closed = 1;
nodes = (
"405 93 LINE",
"366 93 LINE",
"366 78 LINE",
"405 78 LINE"
);
},
{
closed = 1;
nodes = (
"35 74 OFFCURVE",
"115 -10 OFFCURVE",
"227 -10 CURVE SMOOTH",
"329 -10 OFFCURVE",
"368 62 OFFCURVE",
"386 106 CURVE",
"383 110 LINE",
"341 73 OFFCURVE",
"309 65 OFFCURVE",
"271 65 CURVE SMOOTH",
"191 65 OFFCURVE",
"128 132 OFFCURVE",
"128 256 CURVE SMOOTH",
"128 385 OFFCURVE",
"194 450 OFFCURVE",
"266 450 CURVE SMOOTH",
"357 450 OFFCURVE",
"389 400 OFFCURVE",
"412 368 CURVE",
"455 442 LINE",
"438 462 OFFCURVE",
"384 500 OFFCURVE",
"297 500 CURVE SMOOTH",
"164 500 OFFCURVE",
"35 380 OFFCURVE",
"35 218 CURVE"
);
}
);
width = 568;
},
{
associatedMasterId = "6E34CE51-C086-4FF0-804E-D019E96D60E0";
components = (
{
name = _topserif_lc;
transform = "{1, 0, 0, 1, 290, 303}";
}
);
layerId = "CA4BC84F-3029-4765-B8A6-9F0DC58ED236";
name = soft;
paths = (
{
closed = 1;
nodes = (
"380 -10 LINE",
"390 -10 LINE",
"475 2 LINE",
"475 752 LINE",
"380 752 LINE"
);
},
{
closed = 1;
nodes = (
"390 -10 LINE",
"548 10 LINE",
"548 50 LINE",
"495 50 LINE SMOOTH",
"477 50 OFFCURVE",
"475 57 OFFCURVE",
"475 87 CURVE",
"399 50 LINE",
"390 22 LINE"
);
},
{
closed = 1;
nodes = (
"405 93 LINE",
"366 93 LINE",
"366 78 LINE",
"405 78 LINE"
);
},
{
closed = 1;
nodes = (
"35 74 OFFCURVE",
"115 -10 OFFCURVE",
"227 -10 CURVE SMOOTH",
"329 -10 OFFCURVE",
"368 62 OFFCURVE",
"386 106 CURVE",
"383 110 LINE",
"341 73 OFFCURVE",
"309 65 OFFCURVE",
"271 65 CURVE SMOOTH",
"191 65 OFFCURVE",
"128 132 OFFCURVE",
"128 256 CURVE SMOOTH",
"128 385 OFFCURVE",
"194 450 OFFCURVE",
"266 450 CURVE SMOOTH",
"357 450 OFFCURVE",
"389 400 OFFCURVE",
"412 368 CURVE",
"455 442 LINE",
"438 462 OFFCURVE",
"384 500 OFFCURVE",
"297 500 CURVE SMOOTH",
"164 500 OFFCURVE",
"35 380 OFFCURVE",
"35 218 CURVE"
);
}
);
width = 568;
},
{
associatedMasterId = "6E34CE51-C086-4FF0-804E-D019E96D60E0";
components = (
{
name = _topserif_lc;
transform = "{1, 0, 0, 1, 295, 305}";
},
{
name = _bottomrightserif_lc;
}
);
layerId = "0CA1D28F-697A-4F5F-BA5B-0F01EB20DAA9";
name = "May 7 21, 15:39";
paths = (
{
closed = 1;
nodes = (
"334 -10 OFFCURVE",
"373 62 OFFCURVE",
"391 106 CURVE",
"388 110 LINE",
"346 73 OFFCURVE",
"314 65 OFFCURVE",
"276 65 CURVE SMOOTH",
"196 65 OFFCURVE",
"133 132 OFFCURVE",
"133 256 CURVE SMOOTH",
"133 385 OFFCURVE",
"199 450 OFFCURVE",
"271 450 CURVE SMOOTH",
"362 450 OFFCURVE",
"394 400 OFFCURVE",
"417 368 CURVE",
"460 442 LINE",
"443 462 OFFCURVE",
"389 500 OFFCURVE",
"302 500 CURVE SMOOTH",
"169 500 OFFCURVE",
"40 380 OFFCURVE",
"40 218 CURVE",
"40 74 OFFCURVE",
"120 -10 OFFCURVE",
"232 -10 CURVE SMOOTH"
);
},
{
closed = 1;
nodes = (
"410 78 LINE",
"410 93 LINE",
"371 93 LINE",
"371 78 LINE"
);
},
{
closed = 1;
nodes = (
"480 12 LINE",
"480 752 LINE",
"385 752 LINE",
"385 12 LINE"
);
}
);
width = 578;
}
);
leftKerningGroup = o;
leftMetricsKey = o;
rightKerningGroup = d;
unicode = 0064;
},
{
color = 3;
glyphname = eth;
layers = (
{
layerId = "6E34CE51-C086-4FF0-804E-D019E96D60E0";
paths = (
{
closed = 1;
nodes = (
"35 91 OFFCURVE",
"116 -10 OFFCURVE",
"262 -10 CURVE SMOOTH",
"392 -10 OFFCURVE",
"495 91 OFFCURVE",
"495 263 CURVE SMOOTH",
"495 349 OFFCURVE",
"482 430 OFFCURVE",
"429 519 CURVE SMOOTH",
"368 622 OFFCURVE",
"260 708 OFFCURVE",
"81 720 CURVE",
"75 694 LINE",
"248 653 OFFCURVE",
"364 500 OFFCURVE",
"389 375 CURVE",
"381 375 LINE",
"346 436 OFFCURVE",
"288 450 OFFCURVE",
"242 450 CURVE SMOOTH",
"114 450 OFFCURVE",
"35 349 OFFCURVE",
"35 221 CURVE SMOOTH"
);
},
{
closed = 1;
nodes = (
"140 330 OFFCURVE",
"188 408 OFFCURVE",
"262 408 CURVE SMOOTH",
"331 408 OFFCURVE",
"385 349 OFFCURVE",
"385 221 CURVE SMOOTH",
"385 110 OFFCURVE",
"337 32 OFFCURVE",
"262 32 CURVE SMOOTH",
"186 32 OFFCURVE",
"140 111 OFFCURVE",
"140 221 CURVE SMOOTH"
);
},
{
closed = 1;
nodes = (
"144 516 LINE",
"438 646 LINE",
"438 683 LINE",
"144 553 LINE"
);
}
);
width = 530;
}
);
leftKerningGroup = eth;
leftMetricsKey = o;
rightKerningGroup = eth;
rightMetricsKey = o;
unicode = 00F0;
},
{
color = 3;
glyphname = e;
layers = (
{
anchors = (
{
name = top;
position = "{251, 449}";
}
);
guideLines = (
{
position = "{157, 201}";
}
);
layerId = "6E34CE51-C086-4FF0-804E-D019E96D60E0";
paths = (
{
closed = 1;
nodes = (
"342 -10 OFFCURVE",
"403 50 OFFCURVE",
"420 102 CURVE",
"408 113 LINE",
"364 68 OFFCURVE",
"321 61 OFFCURVE",
"281 61 CURVE SMOOTH",
"183 61 OFFCURVE",
"130 128 OFFCURVE",
"130 251 CURVE SMOOTH",
"130 362 OFFCURVE",
"172 406 OFFCURVE",
"235 406 CURVE SMOOTH",
"298 406 OFFCURVE",
"325 348 OFFCURVE",
"325 277 CURVE",
"116 277 LINE",
"116 237 LINE",
"424 237 LINE",
"424 273 LINE SMOOTH",
"424 385 OFFCURVE",
"354 450 OFFCURVE",
"254 450 CURVE SMOOTH",
"135 450 OFFCURVE",
"35 351 OFFCURVE",
"35 209 CURVE SMOOTH",
"35 73 OFFCURVE",
"117 -10 OFFCURVE",
"246 -10 CURVE SMOOTH"
);
}
);
width = 459;
},
{
associatedMasterId = "6E34CE51-C086-4FF0-804E-D019E96D60E0";
guideLines = (
{
position = "{102, 276}";
}
);
layerId = "463B998F-48B0-40C0-A281-1643DD96F1E6";
name = "May 7 21, 15:39";
paths = (
{
closed = 1;
nodes = (
"376 -10 OFFCURVE",
"434 57 OFFCURVE",
"453 114 CURVE",
"444 121 LINE",
"395 71 OFFCURVE",
"345 65 OFFCURVE",
"301 65 CURVE SMOOTH",
"192 65 OFFCURVE",
"133 140 OFFCURVE",
"133 279 CURVE SMOOTH",
"133 402 OFFCURVE",
"180 451 OFFCURVE",
"250 451 CURVE SMOOTH",
"322 451 OFFCURVE",
"359 387 OFFCURVE",
"359 308 CURVE",
"118 308 LINE",
"118 266 LINE",
"457 266 LINE",
"457 303 LINE SMOOTH",
"457 428 OFFCURVE",
"379 500 OFFCURVE",
"271 500 CURVE SMOOTH",
"144 500 OFFCURVE",
"40 390 OFFCURVE",
"40 232 CURVE",
"40 81 OFFCURVE",
"131 -10 OFFCURVE",
"269 -10 CURVE SMOOTH"
);
}
);
width = 497;
}
);
leftKerningGroup = o;
leftMetricsKey = o;
rightKerningGroup = e;
rightMetricsKey = o;
unicode = 0065;
},
{
color = 3;
glyphname = f;
layers = (
{
layerId = "6E34CE51-C086-4FF0-804E-D019E96D60E0";
paths = (
{
closed = 1;
nodes = (
"189 519 LINE",
"189 604 OFFCURVE",
"214 670 OFFCURVE",
"270 670 CURVE SMOOTH",
"274 670 OFFCURVE",
"278 670 OFFCURVE",
"284 669 CURVE",
"310 600 LINE",
"362 606 OFFCURVE",
"391 630 OFFCURVE",
"391 663 CURVE SMOOTH",
"391 696 OFFCURVE",
"366 720 OFFCURVE",
"323 720 CURVE",
"209 720 OFFCURVE",
"96 583 OFFCURVE",
"96 517 CURVE"
);
},
{
closed = 1;
nodes = (
"274 0 LINE",
"274 32 LINE",
"189 36 LINE",
"189 94 LINE",
"96 94 LINE",
"96 72 LINE SMOOTH",
"96 49 OFFCURVE",
"87 38 OFFCURVE",
"67 36 CURVE SMOOTH",
"30 32 LINE",
"30 0 LINE"
);
},
{
closed = 1;
nodes = (
"189 0 LINE",
"189 539 LINE",
"96 517 LINE",
"96 0 LINE"
);
},
{
closed = 1;
nodes = (
"189 400 LINE",
"189 525 LINE",
"175 525 LINE",
"25 422 LINE",
"25 400 LINE"
);
},
{
closed = 1;
nodes = (
"315 400 LINE",
"315 440 LINE",
"124 440 LINE",
"124 400 LINE"
);
}
);
width = 326;
},
{
associatedMasterId = "6E34CE51-C086-4FF0-804E-D019E96D60E0";
layerId = "8CC1365E-02B7-4CB6-8892-239BA9E8A8F2";
name = "May 4 21, 14:42";
paths = (
{
closed = 1;
nodes = (
"99 0 LINE",
"194 0 LINE",
"194 599 LINE",
"99 560 LINE"
);
},
{
closed = 1;
nodes = (
"194 577 LINE",
"194 678 OFFCURVE",
"244 746 OFFCURVE",
"306 746 CURVE SMOOTH",
"313 746 OFFCURVE",
"320 744 OFFCURVE",
"323 742 CURVE",
"366 665 LINE",
"413 672 OFFCURVE",
"447 701 OFFCURVE",
"447 737 CURVE SMOOTH",
"447 772 OFFCURVE",
"419 798 OFFCURVE",
"369 798 CURVE SMOOTH",
"247 798 OFFCURVE",
"99 660 OFFCURVE",
"99 560 CURVE"
);
},
{
closed = 1;
nodes = (
"334 490 LINE",
"128 490 LINE",
"128 446 LINE",
"334 446 LINE"
);
},
{
closed = 1;
nodes = (
"179 562 LINE",
"29 464 LINE",
"29 446 LINE",
"194 446 LINE",
"194 562 LINE"
);
},
{
closed = 1;
nodes = (
"28 0 LINE",
"282 0 LINE",
"282 36 LINE",
"194 40 LINE",
"194 94 LINE",
"99 104 LINE",
"99 80 LINE SMOOTH",
"99 54 OFFCURVE",
"91 42 OFFCURVE",
"69 40 CURVE SMOOTH",
"28 36 LINE"
);
}
);
visible = 1;
width = 351;
},
{
associatedMasterId = "6E34CE51-C086-4FF0-804E-D019E96D60E0";
layerId = "462A7FB7-575F-43B5-B47E-6E4E9CF8B961";
name = "May 6 21, 10:40";
paths = (
{
closed = 1;
nodes = (
"194 668 OFFCURVE",
"245 746 OFFCURVE",
"298 746 CURVE SMOOTH",
"309 746 OFFCURVE",
"318 745 OFFCURVE",
"323 743 CURVE",
"366 665 LINE",
"413 672 OFFCURVE",
"447 701 OFFCURVE",
"447 737 CURVE SMOOTH",
"447 772 OFFCURVE",
"419 800 OFFCURVE",
"369 800 CURVE SMOOTH",
"235 800 OFFCURVE",
"99 644 OFFCURVE",
"99 580 CURVE",
"194 577 LINE"
);
},
{
closed = 1;
nodes = (
"282 0 LINE",
"282 36 LINE",
"194 40 LINE",
"194 94 LINE",
"99 104 LINE",
"99 80 LINE SMOOTH",
"99 54 OFFCURVE",
"91 42 OFFCURVE",
"69 40 CURVE SMOOTH",
"28 36 LINE",
"28 0 LINE"
);
},
{
closed = 1;
nodes = (
"194 0 LINE",
"194 599 LINE",
"99 580 LINE",
"99 0 LINE"
);
},
{
closed = 1;
nodes = (
"194 446 LINE",
"194 562 LINE",
"179 562 LINE",
"29 464 LINE",
"29 446 LINE"
);
},
{
closed = 1;
nodes = (
"334 446 LINE",
"334 490 LINE",
"128 490 LINE",
"128 446 LINE"
);
}
);
width = 351;
},
{
associatedMasterId = "6E34CE51-C086-4FF0-804E-D019E96D60E0";
layerId = "89BF8EDD-305C-40DC-855F-473EEFE22115";
name = "May 7 21, 15:39";
paths = (
{
closed = 1;
nodes = (
"194 671 OFFCURVE",
"243 746 OFFCURVE",
"315 747 CURVE SMOOTH",
"320 747 OFFCURVE",
"326 747 OFFCURVE",
"331 746 CURVE",
"366 665 LINE",
"413 672 OFFCURVE",
"447 701 OFFCURVE",
"447 737 CURVE SMOOTH",
"447 772 OFFCURVE",
"419 800 OFFCURVE",
"369 800 CURVE SMOOTH",
"246 800 OFFCURVE",
"99 669 OFFCURVE",
"99 570 CURVE",
"194 577 LINE"
);
},
{
closed = 1;
nodes = (
"282 0 LINE",
"282 36 LINE",
"194 40 LINE",
"194 94 LINE",
"99 104 LINE",
"99 80 LINE SMOOTH",
"99 54 OFFCURVE",
"91 42 OFFCURVE",
"69 40 CURVE SMOOTH",
"28 36 LINE",
"28 0 LINE"
);
},
{
closed = 1;
nodes = (
"194 0 LINE",
"194 599 LINE",
"99 570 LINE",
"99 0 LINE"
);
},
{
closed = 1;
nodes = (
"194 446 LINE",
"194 562 LINE",
"179 562 LINE",
"29 464 LINE",
"29 446 LINE"
);
},
{
closed = 1;
nodes = (
"334 446 LINE",
"334 490 LINE",
"128 490 LINE",
"128 446 LINE"
);
}
);
width = 351;
},
{
associatedMasterId = "6E34CE51-C086-4FF0-804E-D019E96D60E0";
layerId = "EB8EF861-293B-41FB-8CE8-D4F1EF5BBD41";
name = "May 21 21, 14:41";
paths = (
{
closed = 1;
nodes = (
"189 519 LINE",
"189 604 OFFCURVE",
"229 670 OFFCURVE",
"290 670 CURVE SMOOTH",
"294 670 OFFCURVE",
"298 670 OFFCURVE",
"304 669 CURVE",
"336 592 LINE",
"380 598 OFFCURVE",
"416 628 OFFCURVE",
"416 661 CURVE SMOOTH",
"416 694 OFFCURVE",
"390 720 OFFCURVE",
"343 720 CURVE",
"210 720 OFFCURVE",
"96 583 OFFCURVE",
"96 517 CURVE"
);
},
{
closed = 1;
nodes = (
"274 0 LINE",
"274 32 LINE",
"189 36 LINE",
"189 94 LINE",
"96 94 LINE",
"96 72 LINE SMOOTH",
"96 49 OFFCURVE",
"87 38 OFFCURVE",
"67 36 CURVE SMOOTH",
"30 32 LINE",
"30 0 LINE"
);
},
{
closed = 1;
nodes = (
"189 0 LINE",
"189 539 LINE",
"96 517 LINE",
"96 0 LINE"
);
},
{
closed = 1;
nodes = (
"189 401 LINE",
"189 525 LINE",
"175 525 LINE",
"25 422 LINE",
"25 401 LINE"
);
},
{
closed = 1;
nodes = (
"310 401 LINE",
"310 440 LINE",
"124 440 LINE",
"124 401 LINE"
);
}
);
width = 326;
},
{
associatedMasterId = "6E34CE51-C086-4FF0-804E-D019E96D60E0";
layerId = "30AB5B32-A6EF-404A-A0E4-819C39B1C553";
name = "Jun 1 21, 09:26";
paths = (
{
closed = 1;
nodes = (
"189 519 LINE",
"189 604 OFFCURVE",
"191 670 OFFCURVE",
"250 670 CURVE SMOOTH",
"254 670 OFFCURVE",
"258 670 OFFCURVE",
"264 669 CURVE",
"296 592 LINE",
"340 598 OFFCURVE",
"376 628 OFFCURVE",
"376 661 CURVE SMOOTH",
"376 694 OFFCURVE",
"350 720 OFFCURVE",
"303 720 CURVE",
"179 720 OFFCURVE",
"96 583 OFFCURVE",
"96 517 CURVE"
);
},
{
closed = 1;
nodes = (
"274 0 LINE",
"274 32 LINE",
"189 36 LINE",
"189 94 LINE",
"96 94 LINE",
"96 72 LINE SMOOTH",
"96 49 OFFCURVE",
"87 38 OFFCURVE",
"67 36 CURVE SMOOTH",
"30 32 LINE",
"30 0 LINE"
);
},
{
closed = 1;
nodes = (
"189 0 LINE",
"189 539 LINE",
"96 517 LINE",
"96 0 LINE"
);
},
{
closed = 1;
nodes = (
"189 401 LINE",
"189 525 LINE",
"175 525 LINE",
"25 422 LINE",
"25 401 LINE"
);
},
{
closed = 1;
nodes = (
"315 401 LINE",
"315 440 LINE",
"124 440 LINE",
"124 401 LINE"
);
}
);
width = 326;
}
);
leftKerningGroup = f;
rightKerningGroup = f;
unicode = 0066;
},
{
color = 3;
glyphname = g;
layers = (
{
anchors = (
{
name = top;
position = "{220, 450}";
}
);
guideLines = (
{
angle = 270;
position = "{109, 243}";
},
{
position = "{319, -175}";
},
{
angle = 270;
position = "{444, 332}";
},
{
angle = 270;
position = "{158, 146}";
},
{
angle = 270;
position = "{40, 169}";
}
);
layerId = "6E34CE51-C086-4FF0-804E-D019E96D60E0";
paths = (
{
closed = 1;
nodes = (
"371 -215 OFFCURVE",
"445 -69 OFFCURVE",
"445 -16 CURVE SMOOTH",
"445 69 OFFCURVE",
"384 85 OFFCURVE",
"312 85 CURVE SMOOTH",
"179 85 LINE SMOOTH",
"133 85 OFFCURVE",
"121 97 OFFCURVE",
"121 120 CURVE SMOOTH",
"121 138 OFFCURVE",
"126 152 OFFCURVE",
"148 175 CURVE",
"132 177 LINE",
"70 141 OFFCURVE",
"45 119 OFFCURVE",
"45 81 CURVE SMOOTH",
"45 15 OFFCURVE",
"109 0 OFFCURVE",
"184 0 CURVE SMOOTH",
"294 0 LINE SMOOTH",
"347 0 OFFCURVE",
"370 -20 OFFCURVE",
"370 -59 CURVE SMOOTH",
"370 -133 OFFCURVE",
"311 -156 OFFCURVE",
"242 -156 CURVE SMOOTH",
"166 -156 OFFCURVE",
"114 -123 OFFCURVE",
"114 -64 CURVE SMOOTH",
"114 -33 OFFCURVE",
"123 -13 OFFCURVE",
"136 11 CURVE",
"122 11 LINE",
"77 -11 OFFCURVE",
"27 -31 OFFCURVE",
"27 -95 CURVE SMOOTH",
"27 -173 OFFCURVE",
"94 -215 OFFCURVE",
"197 -215 CURVE SMOOTH"
);
},
{
closed = 1;
nodes = (
"118 -2 LINE",
"118 22 LINE",
"106 22 LINE",
"106 -2 LINE"
);
},
{
closed = 1;
nodes = (
"155 161 LINE",
"155 185 LINE",
"113 185 LINE",
"113 161 LINE"
);
},
{
closed = 1;
nodes = (
"329 152 OFFCURVE",
"402 221 OFFCURVE",
"402 301 CURVE SMOOTH",
"402 382 OFFCURVE",
"338 450 OFFCURVE",
"220 450 CURVE SMOOTH",
"112 450 OFFCURVE",
"35 380 OFFCURVE",
"35 301 CURVE SMOOTH",
"35 222 OFFCURVE",
"89 148 OFFCURVE",
"220 150 CURVE SMOOTH"
);
},
{
closed = 1;
nodes = (
"167 187 OFFCURVE",
"135 228 OFFCURVE",
"135 302 CURVE SMOOTH",
"135 372 OFFCURVE",
"167 414 OFFCURVE",
"220 414 CURVE SMOOTH",
"273 414 OFFCURVE",
"304 372 OFFCURVE",
"304 302 CURVE SMOOTH",
"304 227 OFFCURVE",
"271 187 OFFCURVE",
"220 187 CURVE"
);
},
{
closed = 1;
nodes = (
"471 380 LINE",
"471 450 LINE",
"437 450 OFFCURVE",
"385 437 OFFCURVE",
"350 401 CURVE",
"356 387 LINE",
"388 396 OFFCURVE",
"438 382 OFFCURVE",
"462 373 CURVE"
);
}
);
width = 475;
},
{
associatedMasterId = "6E34CE51-C086-4FF0-804E-D019E96D60E0";
guideLines = (
{
angle = 270;
position = "{60, 334}";
},
{
position = "{313, -240}";
},
{
angle = 270;
position = "{505, 458}";
},
{
angle = 270;
position = "{127, 200}";
}
);
layerId = "BD226BDE-C93C-43CB-A73F-0D58ED5576EF";
name = "Apr 21 21, 20:34";
paths = (
{
closed = 1;
nodes = (
"414 -240 OFFCURVE",
"505 -141 OFFCURVE",
"505 -30 CURVE SMOOTH",
"505 68 OFFCURVE",
"438 93 OFFCURVE",
"358 93 CURVE SMOOTH",
"205 93 LINE SMOOTH",
"154 93 OFFCURVE",
"141 105 OFFCURVE",
"141 131 CURVE SMOOTH",
"141 151 OFFCURVE",
"148 174 OFFCURVE",
"171 200 CURVE",
"157 202 LINE",
"101 170 OFFCURVE",
"62 146 OFFCURVE",
"62 90 CURVE SMOOTH",
"62 17 OFFCURVE",
"125 3 OFFCURVE",
"208 3 CURVE SMOOTH",
"350 3 LINE SMOOTH",
"422 3 OFFCURVE",
"448 -17 OFFCURVE",
"448 -63 CURVE SMOOTH",
"448 -137 OFFCURVE",
"388 -184 OFFCURVE",
"296 -184 CURVE SMOOTH",
"187 -184 OFFCURVE",
"142 -137 OFFCURVE",
"142 -58 CURVE SMOOTH",
"142 -24 OFFCURVE",
"150 -3 OFFCURVE",
"159 14 CURVE",
"146 14 LINE",
"95 -10 OFFCURVE",
"50 -42 OFFCURVE",
"50 -106 CURVE SMOOTH",
"50 -191 OFFCURVE",
"127 -240 OFFCURVE",
"229 -240 CURVE SMOOTH"
);
},
{
closed = 1;
nodes = (
"367 167 OFFCURVE",
"447 244 OFFCURVE",
"447 334 CURVE SMOOTH",
"447 423 OFFCURVE",
"375 500 OFFCURVE",
"254 500 CURVE SMOOTH",
"143 500 OFFCURVE",
"60 424 OFFCURVE",
"60 334 CURVE SMOOTH",
"60 241 OFFCURVE",
"127 167 OFFCURVE",
"254 167 CURVE SMOOTH"
);
},
{
closed = 1;
nodes = (
"195 205 OFFCURVE",
"160 251 OFFCURVE",
"160 335 CURVE SMOOTH",
"160 415 OFFCURVE",
"196 462 OFFCURVE",
"254 462 CURVE SMOOTH",
"313 462 OFFCURVE",
"348 415 OFFCURVE",
"348 335 CURVE SMOOTH",
"348 250 OFFCURVE",
"311 205 OFFCURVE",
"254 205 CURVE"
);
},
{
closed = 1;
nodes = (
"136 184 LINE",
"182 184 LINE",
"182 211 LINE",
"136 211 LINE"
);
},
{
closed = 1;
nodes = (
"135 1 LINE",
"148 1 LINE",
"148 28 LINE",
"135 28 LINE"
);
},
{
closed = 1;
nodes = (
"511 438 LINE",
"511 463 OFFCURVE",
"503 495 OFFCURVE",
"489 500 CURVE",
"450 500 OFFCURVE",
"398 479 OFFCURVE",
"377 438 CURVE"
);
}
);
width = 535;
},
{
associatedMasterId = "6E34CE51-C086-4FF0-804E-D019E96D60E0";
guideLines = (
{
angle = 270;
position = "{60, 334}";
},
{
position = "{313, -240}";
},
{
angle = 270;
position = "{505, 458}";
},
{
angle = 270;
position = "{127, 200}";
}
);
layerId = "46A1D13B-71A5-475A-9B4D-D2657933B20E";
name = "Apr 21 21, 20:46";
paths = (
{
closed = 1;
nodes = (
"414 -240 OFFCURVE",
"505 -141 OFFCURVE",
"505 -30 CURVE SMOOTH",
"505 68 OFFCURVE",
"438 93 OFFCURVE",
"358 93 CURVE SMOOTH",
"205 93 LINE SMOOTH",
"154 93 OFFCURVE",
"141 105 OFFCURVE",
"141 131 CURVE SMOOTH",
"141 151 OFFCURVE",
"148 174 OFFCURVE",
"171 200 CURVE",
"157 202 LINE",
"101 170 OFFCURVE",
"62 146 OFFCURVE",
"62 90 CURVE SMOOTH",
"62 17 OFFCURVE",
"125 3 OFFCURVE",
"208 3 CURVE SMOOTH",
"350 3 LINE SMOOTH",
"422 3 OFFCURVE",
"448 -17 OFFCURVE",
"448 -63 CURVE SMOOTH",
"448 -137 OFFCURVE",
"388 -184 OFFCURVE",
"296 -184 CURVE SMOOTH",
"187 -184 OFFCURVE",
"142 -137 OFFCURVE",
"142 -58 CURVE SMOOTH",
"142 -24 OFFCURVE",
"150 -3 OFFCURVE",
"159 14 CURVE",
"146 14 LINE",
"95 -10 OFFCURVE",
"50 -42 OFFCURVE",
"50 -106 CURVE SMOOTH",
"50 -191 OFFCURVE",
"127 -240 OFFCURVE",
"229 -240 CURVE SMOOTH"
);
},
{
closed = 1;
nodes = (
"367 167 OFFCURVE",
"447 244 OFFCURVE",
"447 334 CURVE SMOOTH",
"447 423 OFFCURVE",
"375 500 OFFCURVE",
"254 500 CURVE SMOOTH",
"143 500 OFFCURVE",
"60 424 OFFCURVE",
"60 334 CURVE SMOOTH",
"60 241 OFFCURVE",
"127 167 OFFCURVE",
"254 167 CURVE SMOOTH"
);
},
{
closed = 1;
nodes = (
"195 205 OFFCURVE",
"160 251 OFFCURVE",
"160 335 CURVE SMOOTH",
"160 415 OFFCURVE",
"196 462 OFFCURVE",
"254 462 CURVE SMOOTH",
"313 462 OFFCURVE",
"348 415 OFFCURVE",
"348 335 CURVE SMOOTH",
"348 250 OFFCURVE",
"311 205 OFFCURVE",
"254 205 CURVE"
);
},
{
closed = 1;
nodes = (
"505 430 LINE",
"505 500 LINE",
"497 500 LINE",
"383 448 LINE",
"394 430 LINE"
);
},
{
closed = 1;
nodes = (
"136 184 LINE",
"182 184 LINE",
"182 211 LINE",
"136 211 LINE"
);
},
{
closed = 1;
nodes = (
"135 1 LINE",
"148 1 LINE",
"148 28 LINE",
"135 28 LINE"
);
}
);
width = 535;
},
{
associatedMasterId = "6E34CE51-C086-4FF0-804E-D019E96D60E0";
guideLines = (
{
angle = 270;
position = "{50, 334}";
},
{
position = "{337, -240}";
},
{
angle = 270;
position = "{509, 456}";
},
{
angle = 270;
position = "{117, 200}";
}
);
layerId = "C2C9BE17-2276-4C2B-8F28-18D48A7A801E";
name = "May 7 21, 15:39";
paths = (
{
closed = 1;
nodes = (
"412 -240 OFFCURVE",
"495 -84 OFFCURVE",
"495 -21 CURVE SMOOTH",
"495 71 OFFCURVE",
"428 93 OFFCURVE",
"348 93 CURVE SMOOTH",
"195 93 LINE SMOOTH",
"144 93 OFFCURVE",
"131 105 OFFCURVE",
"131 131 CURVE SMOOTH",
"131 151 OFFCURVE",
"138 174 OFFCURVE",
"161 200 CURVE",
"147 202 LINE",
"85 159 OFFCURVE",
"58 132 OFFCURVE",
"58 90 CURVE SMOOTH",
"58 17 OFFCURVE",
"121 3 OFFCURVE",
"204 3 CURVE SMOOTH",
"340 3 LINE SMOOTH",
"412 3 OFFCURVE",
"431 -8 OFFCURVE",
"431 -54 CURVE SMOOTH",
"431 -122 OFFCURVE",
"369 -178 OFFCURVE",
"279 -178 CURVE SMOOTH",
"176 -178 OFFCURVE",
"120 -145 OFFCURVE",
"120 -71 CURVE SMOOTH",
"120 -37 OFFCURVE",
"129 -12 OFFCURVE",
"145 14 CURVE",
"136 14 LINE",
"85 -10 OFFCURVE",
"35 -34 OFFCURVE",
"35 -106 CURVE SMOOTH",
"35 -191 OFFCURVE",
"110 -240 OFFCURVE",
"219 -240 CURVE SMOOTH"
);
},
{
closed = 1;
nodes = (
"131 0 LINE",
"131 27 LINE",
"118 27 LINE",
"118 0 LINE"
);
},
{
closed = 1;
nodes = (
"172 184 LINE",
"172 211 LINE",
"126 211 LINE",
"126 184 LINE"
);
},
{
closed = 1;
nodes = (
"357 167 OFFCURVE",
"437 244 OFFCURVE",
"437 334 CURVE SMOOTH",
"437 423 OFFCURVE",
"365 500 OFFCURVE",
"244 500 CURVE SMOOTH",
"133 500 OFFCURVE",
"50 424 OFFCURVE",
"50 334 CURVE SMOOTH",
"50 241 OFFCURVE",
"117 167 OFFCURVE",
"244 167 CURVE SMOOTH"
);
},
{
closed = 1;
nodes = (
"185 205 OFFCURVE",
"150 251 OFFCURVE",
"150 335 CURVE SMOOTH",
"150 415 OFFCURVE",
"186 462 OFFCURVE",
"244 462 CURVE SMOOTH",
"303 462 OFFCURVE",
"338 415 OFFCURVE",
"338 335 CURVE SMOOTH",
"338 250 OFFCURVE",
"301 205 OFFCURVE",
"244 205 CURVE"
);
},
{
closed = 1;
nodes = (
"513 429 LINE",
"513 500 LINE",
"476 500 OFFCURVE",
"417 485 OFFCURVE",
"378 445 CURVE",
"384 430 LINE",
"420 440 OFFCURVE",
"479 425 OFFCURVE",
"504 420 CURVE"
);
}
);
width = 528;
}
);
leftKerningGroup = g;
rightKerningGroup = g;
unicode = 0067;
},
{
color = 3;
glyphname = h;
layers = (
{
anchors = (
{
name = bottom;
position = "{285, -10}";
}
);
components = (
{
alignment = -1;
name = _bottomserif_lc;
transform = "{1, 0, 0, 1, 6, 0}";
},
{
name = _shoulder_lc;
transform = "{1, 0, 0, 1, 19, 0}";
},
{
name = _topserif_lc;
transform = "{1, 0, 0, 1, 6, 270}";
},
{
name = _bottomserif_lc;
transform = "{1, 0, 0, 1, 301, 0}";
},
{
alignment = -1;
name = _verticalstem_long_lc;
transform = "{1, 0, 0, 1, -5, 0}";
}
);
guideLines = (
{
angle = 270;
position = "{69, 552}";
}
);
layerId = "6E34CE51-C086-4FF0-804E-D019E96D60E0";
width = 559;
},
{
associatedMasterId = "6E34CE51-C086-4FF0-804E-D019E96D60E0";
components = (
{
name = _topserif_lc;
transform = "{1, 0, 0, 1, 9, 305}";
},
{
name = _shoulder_lc;
transform = "{1, 0, 0, 1, 9, 0}";
},
{
name = _bottomserif_lc;
transform = "{1, 0, 0, 1, 7, 0}";
},
{
name = _bottomserif_lc;
transform = "{1, 0, 0, 1, 323, 0}";
}
);
guideLines = (
{
angle = 270;
position = "{29, 757}";
}
);
layerId = "3DC67BE2-DE56-4B5C-97E2-3D782DC880F4";
name = "May 7 21, 15:39";
paths = (
{
closed = 1;
nodes = (
"194 0 LINE",
"194 752 LINE",
"99 752 LINE",
"99 0 LINE"
);
},
{
closed = 1;
nodes = (
"202 397 LINE",
"202 412 LINE",
"161 412 LINE",
"161 397 LINE"
);
}
);
width = 601;
}
);
leftKerningGroup = h;
rightKerningGroup = h;
rightMetricsKey = n;
unicode = 0068;
},
{
color = 3;
glyphname = i;
layers = (
{
components = (
{
name = dotlessi;
},
{
name = dotaccentcomb;
transform = "{1, 0, 0, 1, 2, 0}";
}
);
layerId = "6E34CE51-C086-4FF0-804E-D019E96D60E0";
width = 274;
},
{
associatedMasterId = "6E34CE51-C086-4FF0-804E-D019E96D60E0";
components = (
{
name = _verticalstemshort_lc;
transform = "{1, 0, 0, 1, 9, 0}";
},
{
name = _bottomserif_lc;
transform = "{1, 0, 0, 1, 7, 0}";
},
{
name = _topserif_lc;
transform = "{1, 0, 0, 1, 9, 0}";
}
);
layerId = "D466571C-7008-491A-B1CB-790759D23FED";
name = "May 7 21, 15:39";
paths = (
{
closed = 1;
nodes = (
"179 626 OFFCURVE",
"210 657 OFFCURVE",
"210 694 CURVE SMOOTH",
"210 732 OFFCURVE",
"179 762 OFFCURVE",
"142 762 CURVE SMOOTH",
"104 762 OFFCURVE",
"74 732 OFFCURVE",
"74 694 CURVE SMOOTH",
"74 657 OFFCURVE",
"104 626 OFFCURVE",
"142 626 CURVE SMOOTH"
);
}
);
width = 290;
},
{
associatedMasterId = "6E34CE51-C086-4FF0-804E-D019E96D60E0";
components = (
{
name = dotlessi;
},
{
name = dotaccentcomb;
transform = "{1, 0, 0, 1, 2, 0}";
}
);
layerId = "246B45AE-4F6F-4B48-A2CC-CEB679244DC7";
name = "May 21 21, 14:39";
width = 274;
}
);
leftKerningGroup = i;
rightKerningGroup = i;
unicode = 0069;
},
{
color = 3;
glyphname = idieresis;
layers = (
{
anchors = (
{
name = _top;
position = "{141, 450}";
}
);
components = (
{
name = dotlessi;
}
);
layerId = "6E34CE51-C086-4FF0-804E-D019E96D60E0";
paths = (
{
closed = 1;
nodes = (
"259 589 OFFCURVE",
"285 615 OFFCURVE",
"285 647 CURVE SMOOTH",
"285 680 OFFCURVE",
"259 705 OFFCURVE",
"227 705 CURVE SMOOTH",
"194 705 OFFCURVE",
"169 680 OFFCURVE",
"169 647 CURVE SMOOTH",
"169 615 OFFCURVE",
"194 589 OFFCURVE",
"227 589 CURVE SMOOTH"
);
},
{
closed = 1;
nodes = (
"85 589 OFFCURVE",
"111 615 OFFCURVE",
"111 647 CURVE SMOOTH",
"111 680 OFFCURVE",
"85 705 OFFCURVE",
"53 705 CURVE SMOOTH",
"20 705 OFFCURVE",
"-5 680 OFFCURVE",
"-5 647 CURVE SMOOTH",
"-5 615 OFFCURVE",
"20 589 OFFCURVE",
"53 589 CURVE SMOOTH"
);
}
);
width = 274;
}
);
leftKerningGroup = idieresis;
rightKerningGroup = idieresis;
unicode = 00EF;
},
{
color = 8;
glyphname = imacron;
layers = (
{
anchors = (
{
name = _top;
position = "{141, 450}";
}
);
components = (
{
name = dotlessi;
}
);
layerId = "6E34CE51-C086-4FF0-804E-D019E96D60E0";
paths = (
{
closed = 1;
nodes = (
"274 594 LINE",
"274 649 LINE",
"8 649 LINE",
"8 594 LINE"
);
}
);
width = 274;
}
);
leftKerningGroup = idieresis;
rightKerningGroup = idieresis;
unicode = 012B;
},
{
color = 3;
glyphname = j;
layers = (
{
components = (
{
name = dotlessj;
},
{
name = dotaccentcomb;
transform = "{1, 0, 0, 1, -6, 0}";
}
);
layerId = "6E34CE51-C086-4FF0-804E-D019E96D60E0";
width = 254;
},
{
associatedMasterId = "6E34CE51-C086-4FF0-804E-D019E96D60E0";
components = (
{
name = _verticalstemshort_lc;
transform = "{1, 0, 0, 1, -1, 0}";
},
{
name = _topserif_lc;
transform = "{1, 0, 0, 1, -1, 0}";
}
);
layerId = "17CD1570-1885-4257-8DA1-71A58FF1F540";
name = "May 7 21, 15:39";
paths = (
{
closed = 1;
nodes = (
"112 -241 OFFCURVE",
"184 -87 OFFCURVE",
"184 -23 CURVE SMOOTH",
"184 82 LINE",
"89 82 LINE",
"89 -20 LINE SMOOTH",
"89 -121 OFFCURVE",
"68 -184 OFFCURVE",
"-10 -227 CURVE",
"-10 -241 LINE"
);
},
{
closed = 1;
nodes = (
"169 626 OFFCURVE",
"200 657 OFFCURVE",
"200 694 CURVE SMOOTH",
"200 732 OFFCURVE",
"169 762 OFFCURVE",
"132 762 CURVE SMOOTH",
"94 762 OFFCURVE",
"64 732 OFFCURVE",
"64 694 CURVE SMOOTH",
"64 657 OFFCURVE",
"94 626 OFFCURVE",
"132 626 CURVE SMOOTH"
);
}
);
width = 260;
}
);
leftKerningGroup = j;
rightKerningGroup = j;
unicode = 006A;
},
{
color = 3;
glyphname = dotlessj;
layers = (
{
anchors = (
{
name = top;
position = "{133, 450}";
}
);
components = (
{
name = _verticalstemshort_lc;
transform = "{1, 0, 0, 1, 8, 0}";
},
{
name = _topserif_lc;
transform = "{1, 0, 0, 1, 6, 0}";
}
);
layerId = "6E34CE51-C086-4FF0-804E-D019E96D60E0";
paths = (
{
closed = 1;
nodes = (
"119 -201 OFFCURVE",
"182 -78 OFFCURVE",
"182 -19 CURVE SMOOTH",
"182 76 LINE",
"89 76 LINE",
"89 -16 LINE SMOOTH",
"89 -107 OFFCURVE",
"70 -162 OFFCURVE",
"0 -200 CURVE",
"5 -215 LINE"
);
}
);
width = 254;
}
);
unicode = 0237;
},
{
color = 3;
glyphname = k;
layers = (
{
components = (
{
name = _topserif_lc;
transform = "{1, 0, 0, 1, 8, 270}";
},
{
name = _verticalstem_long_lc;
transform = "{1, 0, 0, 1, -3, 0}";
}
);
guideLines = (
{
position = "{326, 331}";
},
{
position = "{308, 26}";
}
);
layerId = "6E34CE51-C086-4FF0-804E-D019E96D60E0";
paths = (
{
closed = 1;
nodes = (
"239 0 LINE",
"239 32 LINE",
"184 36 LINE",
"184 94 LINE",
"91 94 LINE",
"91 72 LINE SMOOTH",
"91 49 OFFCURVE",
"82 38 OFFCURVE",
"62 36 CURVE SMOOTH",
"25 32 LINE",
"25 0 LINE"
);
},
{
closed = 1;
nodes = (
"261 240 LINE",
"255 282 LINE",
"150 260 LINE",
"150 240 LINE"
);
},
{
closed = 1;
nodes = (
"475 440 LINE",
"388 440 LINE",
"224 257 LINE",
"251 242 LINE"
);
},
{
closed = 1;
nodes = (
"379 356 LINE",
"431 401 LINE",
"488 408 LINE",
"488 440 LINE",
"292 440 LINE",
"292 408 LINE",
"352 400 LINE",
"313 356 LINE"
);
},
{
closed = 1;
nodes = (
"352 56 LINE SMOOTH",
"355 52 OFFCURVE",
"359 47 OFFCURVE",
"359 43 CURVE SMOOTH",
"359 37 OFFCURVE",
"355 35 OFFCURVE",
"344 34 CURVE SMOOTH",
"312 32 LINE",
"312 0 LINE",
"524 0 LINE",
"524 32 LINE",
"478 36 LINE",
"282 290 LINE",
"216 242 LINE"
);
}
);
width = 534;
},
{
associatedMasterId = "6E34CE51-C086-4FF0-804E-D019E96D60E0";
components = (
{
alignment = -1;
name = _topserif_lc;
transform = "{1, 0, 0, 1, -1, 305}";
},
{
alignment = -1;
name = _bottomserif_lc;
transform = "{1, 0, 0, 1, -3, 0}";
}
);
guideLines = (
{
position = "{329, 454}";
},
{
position = "{304, 36}";
}
);
layerId = "6260FC01-7F02-47D8-B71E-D4A13AEC30A9";
name = "May 6 21, 10:45";
paths = (
{
closed = 1;
nodes = (
"526 0 LINE",
"278 322 LINE",
"205 274 LINE",
"365 52 LINE",
"402 0 LINE"
);
},
{
closed = 1;
nodes = (
"548 0 LINE",
"548 36 LINE",
"492 40 LINE",
"451 94 LINE",
"327 105 LINE",
"357 62 LINE SMOOTH",
"360 58 OFFCURVE",
"362 54 OFFCURVE",
"362 50 CURVE SMOOTH",
"362 43 OFFCURVE",
"359 40 OFFCURVE",
"351 39 CURVE SMOOTH",
"319 36 LINE",
"319 0 LINE"
);
},
{
closed = 1;
nodes = (
"265 272 LINE",
"265 315 LINE",
"151 297 LINE",
"151 272 LINE"
);
},
{
closed = 1;
nodes = (
"184 0 LINE",
"184 752 LINE",
"89 752 LINE",
"89 0 LINE"
);
},
{
closed = 1;
nodes = (
"264 274 LINE",
"495 490 LINE",
"417 490 LINE",
"210 274 LINE"
);
},
{
closed = 1;
nodes = (
"430 429 LINE SMOOTH",
"447 444 OFFCURVE",
"450 446 OFFCURVE",
"469 448 CURVE SMOOTH",
"522 454 LINE",
"522 490 LINE",
"301 490 LINE",
"301 454 LINE",
"374 445 LINE",
"330 399 LINE",
"394 396 LINE"
);
}
);
width = 573;
},
{
associatedMasterId = "6E34CE51-C086-4FF0-804E-D019E96D60E0";
components = (
{
alignment = -1;
name = _topserif_lc;
transform = "{1, 0, 0, 1, -1, 305}";
}
);
guideLines = (
{
position = "{329, 454}";
},
{
position = "{304, 36}";
}
);
layerId = "18AC4192-C31B-4DF0-ABAE-94C2D8BE9A2F";
name = "May 7 21, 15:39";
paths = (
{
closed = 1;
nodes = (
"535 0 LINE",
"300 318 LINE",
"232 269 LINE",
"422 0 LINE"
);
},
{
closed = 1;
nodes = (
"551 0 LINE",
"551 36 LINE",
"505 40 LINE",
"465 94 LINE",
"350 102 LINE",
"380 59 LINE SMOOTH",
"383 55 OFFCURVE",
"385 52 OFFCURVE",
"385 48 CURVE SMOOTH",
"385 41 OFFCURVE",
"379 38 OFFCURVE",
"371 38 CURVE SMOOTH",
"335 36 LINE",
"335 0 LINE"
);
},
{
closed = 1;
nodes = (
"288 267 LINE",
"288 309 LINE",
"164 309 LINE",
"164 267 LINE"
);
},
{
closed = 1;
nodes = (
"184 0 LINE",
"184 752 LINE",
"89 752 LINE",
"89 0 LINE"
);
},
{
closed = 1;
nodes = (
"282 269 LINE",
"503 490 LINE",
"418 490 LINE",
"248 281 LINE"
);
},
{
closed = 1;
nodes = (
"442 429 LINE SMOOTH",
"458 445 OFFCURVE",
"458 445 OFFCURVE",
"477 448 CURVE SMOOTH",
"520 454 LINE",
"520 490 LINE",
"302 490 LINE",
"302 454 LINE",
"382 445 LINE",
"343 395 LINE",
"409 396 LINE"
);
},
{
closed = 1;
nodes = (
"18 0 LINE",
"241 0 LINE",
"241 36 LINE",
"184 40 LINE",
"184 94 LINE",
"89 104 LINE",
"89 80 LINE SMOOTH",
"89 54 OFFCURVE",
"81 42 OFFCURVE",
"59 40 CURVE SMOOTH",
"18 36 LINE"
);
}
);
width = 573;
}
);
leftKerningGroup = h;
leftMetricsKey = h;
rightKerningGroup = k;
unicode = 006B;
},
{
color = 3;
glyphname = l;
layers = (
{
components = (
{
alignment = -1;
name = _topserif_lc;
transform = "{1, 0, 0, 1, 6, 270}";
},
{
alignment = -1;
name = _bottomserif_lc;
transform = "{1, 0, 0, 1, 6, 0}";
},
{
alignment = -1;
name = _verticalstem_long_lc;
transform = "{1, 0, 0, 1, -5, 0}";
}
);
layerId = "6E34CE51-C086-4FF0-804E-D019E96D60E0";
width = 269;
},
{
associatedMasterId = "6E34CE51-C086-4FF0-804E-D019E96D60E0";
components = (
{
alignment = -1;
name = _bottomserif_lc;
transform = "{1, 0, 0, 1, -3, 0}";
},
{
name = _topserif_lc;
transform = "{1, 0, 0, 1, -1, 305}";
}
);
layerId = "93BA0944-CE14-40F9-88F8-AE6FF1549021";
name = "May 7 21, 15:39";
paths = (
{
closed = 1;
nodes = (
"184 0 LINE",
"184 749 LINE",
"89 749 LINE",
"89 0 LINE"
);
}
);
width = 275;
}
);
leftKerningGroup = h;
leftMetricsKey = h;
rightKerningGroup = l;
unicode = 006C;
},
{
color = 3;
glyphname = m;
layers = (
{
components = (
{
alignment = -1;
name = _verticalstemshort_lc;
transform = "{1, 0, 0, 1, 13, 0}";
},
{
name = _topserif_lc;
transform = "{1, 0, 0, 1, 11, 0}";
},
{
name = _bottomserif_lc;
transform = "{1, 0, 0, 1, 561, 0}";
},
{
name = _bottomserif_lc;
transform = "{1, 0, 0, 1, 11, 0}";
},
{
name = _bottomserif_lc;
transform = "{1, 0, 0, 1, 286, 0}";
}
);
layerId = "6E34CE51-C086-4FF0-804E-D019E96D60E0";
paths = (
{
closed = 1;
nodes = (
"737 0 LINE",
"737 318 LINE SMOOTH",
"737 411 OFFCURVE",
"682 450 OFFCURVE",
"611 450 CURVE SMOOTH",
"556 450 OFFCURVE",
"507 426 OFFCURVE",
"448 354 CURVE",
"448 338 LINE",
"492 367 OFFCURVE",
"525 380 OFFCURVE",
"565 380 CURVE SMOOTH",
"611 380 OFFCURVE",
"644 356 OFFCURVE",
"644 294 CURVE SMOOTH",
"644 0 LINE"
);
},
{
closed = 1;
nodes = (
"188 351 LINE",
"198 371 LINE",
"158 371 LINE",
"158 351 LINE"
);
},
{
closed = 1;
nodes = (
"462 0 LINE",
"462 318 LINE SMOOTH",
"462 411 OFFCURVE",
"411 450 OFFCURVE",
"342 450 CURVE SMOOTH",
"286 450 OFFCURVE",
"240 426 OFFCURVE",
"181 354 CURVE",
"181 338 LINE",
"225 367 OFFCURVE",
"255 380 OFFCURVE",
"295 380 CURVE SMOOTH",
"333 380 OFFCURVE",
"369 356 OFFCURVE",
"369 294 CURVE SMOOTH",
"369 0 LINE"
);
},
{
closed = 1;
nodes = (
"455 351 LINE",
"465 371 LINE",
"425 371 LINE",
"425 351 LINE"
);
}
);
width = 819;
},
{
associatedMasterId = "6E34CE51-C086-4FF0-804E-D019E96D60E0";
components = (
{
alignment = -1;
name = _bottomserif_lc;
transform = "{1, 0, 0, 1, 7, 0}";
},
{
alignment = -1;
name = _bottomserif_lc;
transform = "{1, 0, 0, 1, 304, 0}";
},
{
alignment = -1;
name = _topserif_lc;
transform = "{1, 0, 0, 1, 9, 0}";
},
{
alignment = -1;
name = _verticalstemshort_lc;
transform = "{1, 0, 0, 1, 9, 0}";
},
{
alignment = -1;
name = _bottomserif_lc;
transform = "{1, 0, 0, 1, 601, 0}";
}
);
layerId = "5CABA575-37A4-4C97-AD59-2755AA705373";
name = "May 7 21, 15:39";
paths = (
{
closed = 1;
nodes = (
"788 0 LINE",
"788 353 LINE SMOOTH",
"788 457 OFFCURVE",
"735 500 OFFCURVE",
"657 500 CURVE SMOOTH",
"595 500 OFFCURVE",
"541 473 OFFCURVE",
"476 393 CURVE",
"476 379 LINE",
"524 411 OFFCURVE",
"561 425 OFFCURVE",
"605 425 CURVE SMOOTH",
"666 425 OFFCURVE",
"693 399 OFFCURVE",
"693 330 CURVE",
"693 0 LINE"
);
},
{
closed = 1;
nodes = (
"194 390 LINE",
"205 412 LINE",
"161 412 LINE",
"161 390 LINE"
);
},
{
closed = 1;
nodes = (
"491 0 LINE",
"491 353 LINE SMOOTH",
"491 457 OFFCURVE",
"438 500 OFFCURVE",
"365 500 CURVE SMOOTH",
"303 500 OFFCURVE",
"252 473 OFFCURVE",
"187 393 CURVE",
"187 379 LINE",
"235 411 OFFCURVE",
"269 425 OFFCURVE",
"313 425 CURVE SMOOTH",
"369 425 OFFCURVE",
"396 399 OFFCURVE",
"396 330 CURVE",
"396 0 LINE"
);
},
{
closed = 1;
nodes = (
"483 390 LINE",
"494 412 LINE",
"450 412 LINE",
"450 390 LINE"
);
}
);
width = 880;
}
);
leftKerningGroup = n;
leftMetricsKey = n;
rightKerningGroup = h;
rightMetricsKey = n;
unicode = 006D;
},
{
color = 3;
glyphname = n;
layers = (
{
anchors = (
{
name = top;
position = "{307, 450}";
}
);
components = (
{
alignment = -1;
name = _bottomserif_lc;
transform = "{1, 0, 0, 1, 306, 0}";
},
{
alignment = -1;
name = _verticalstemshort_lc;
transform = "{1, 0, 0, 1, 13, 0}";
},
{
name = _shoulder_lc;
transform = "{1, 0, 0, 1, 24, 0}";
},
{
name = _topserif_lc;
transform = "{1, 0, 0, 1, 11, 0}";
},
{
name = _bottomserif_lc;
transform = "{1, 0, 0, 1, 11, 0}";
}
);
guideLines = (
{
angle = 270;
position = "{190, 0}";
}
);
layerId = "6E34CE51-C086-4FF0-804E-D019E96D60E0";
width = 564;
},
{
associatedMasterId = "6E34CE51-C086-4FF0-804E-D019E96D60E0";
layerId = "37E61D8C-528E-4E80-A621-D6BC0E5090B7";
name = "Apr 23 21, 17:24";
paths = (
{
closed = 1;
nodes = (
"90 0 LINE",
"185 0 LINE",
"185 449 LINE",
"90 449 LINE"
);
},
{
closed = 1;
nodes = (
"177 495 LINE",
"26 461 LINE",
"26 446 LINE",
"185 349 LINE",
"185 495 LINE"
);
},
{
closed = 1;
nodes = (
"20 0 LINE",
"258 0 LINE",
"258 34 LINE",
"137 40 LINE",
"20 34 LINE"
);
},
{
closed = 1;
nodes = (
"406 0 LINE",
"501 0 LINE",
"501 353 LINE SMOOTH",
"501 457 OFFCURVE",
"448 500 OFFCURVE",
"365 500 CURVE SMOOTH",
"299 500 OFFCURVE",
"242 473 OFFCURVE",
"177 393 CURVE",
"177 379 LINE",
"225 411 OFFCURVE",
"269 425 OFFCURVE",
"313 425 CURVE SMOOTH",
"369 425 OFFCURVE",
"406 399 OFFCURVE",
"406 330 CURVE"
);
},
{
closed = 1;
nodes = (
"335 0 LINE",
"574 0 LINE",
"574 34 LINE",
"453 40 LINE",
"335 34 LINE"
);
},
{
closed = 1;
nodes = (
"152 397 LINE",
"193 397 LINE",
"193 412 LINE",
"152 412 LINE"
);
}
);
width = 589;
},
{
associatedMasterId = "6E34CE51-C086-4FF0-804E-D019E96D60E0";
components = (
{
alignment = -1;
name = _bottomserif_lc;
transform = "{1, 0, 0, 1, 7, 0}";
},
{
alignment = -1;
name = _bottomserif_lc;
transform = "{1, 0, 0, 1, 324, 0}";
},
{
alignment = -1;
name = _topserif_lc;
transform = "{1, 0, 0, 1, 9, 0}";
},
{
alignment = -1;
name = _verticalstemshort_lc;
transform = "{1, 0, 0, 1, 9, 0}";
},
{
alignment = -1;
name = _shoulder_lc;
transform = "{1, 0, 0, 1, 10, 0}";
}
);
guideLines = (
{
angle = 270;
position = "{146, 0}";
}
);
layerId = "18B9FB66-BB95-438E-925E-4BE4D72B79AB";
name = "May 7 21, 15:39";
width = 602;
}
);
leftKerningGroup = n;
rightKerningGroup = h;
unicode = 006E;
},
{
color = 3;
glyphname = o;
layers = (
{
anchors = (
{
name = top;
position = "{262, 450}";
}
);
guideLines = (
{
angle = 270;
position = "{288, 192}";
},
{
position = "{238, 179}";
}
);
layerId = "6E34CE51-C086-4FF0-804E-D019E96D60E0";
paths = (
{
closed = 1;
nodes = (
"392 -10 OFFCURVE",
"490 91 OFFCURVE",
"490 221 CURVE SMOOTH",
"490 355 OFFCURVE",
"401 450 OFFCURVE",
"262 450 CURVE SMOOTH",
"134 450 OFFCURVE",
"35 349 OFFCURVE",
"35 221 CURVE SMOOTH",
"35 91 OFFCURVE",
"116 -10 OFFCURVE",
"262 -10 CURVE SMOOTH"
);
},
{
closed = 1;
nodes = (
"186 32 OFFCURVE",
"140 111 OFFCURVE",
"140 221 CURVE SMOOTH",
"140 330 OFFCURVE",
"188 408 OFFCURVE",
"262 408 CURVE SMOOTH",
"338 408 OFFCURVE",
"385 330 OFFCURVE",
"385 221 CURVE SMOOTH",
"385 110 OFFCURVE",
"337 32 OFFCURVE",
"262 32 CURVE SMOOTH"
);
}
);
width = 526;
},
{
associatedMasterId = "6E34CE51-C086-4FF0-804E-D019E96D60E0";
guideLines = (
{
angle = 270;
position = "{278, 263}";
},
{
position = "{210, 245}";
}
);
layerId = "DF893A1A-8F5D-4EF1-8A4C-1B3E9F8DE80E";
name = "May 7 21, 15:39";
paths = (
{
closed = 1;
nodes = (
"415 -10 OFFCURVE",
"516 107 OFFCURVE",
"516 245 CURVE SMOOTH",
"516 390 OFFCURVE",
"426 500 OFFCURVE",
"278 500 CURVE SMOOTH",
"141 500 OFFCURVE",
"40 383 OFFCURVE",
"40 245 CURVE SMOOTH",
"40 107 OFFCURVE",
"121 -10 OFFCURVE",
"278 -10 CURVE SMOOTH"
);
},
{
closed = 1;
nodes = (
"190 35 OFFCURVE",
"145 115 OFFCURVE",
"145 245 CURVE SMOOTH",
"145 376 OFFCURVE",
"192 455 OFFCURVE",
"278 455 CURVE SMOOTH",
"366 455 OFFCURVE",
"411 375 OFFCURVE",
"411 245 CURVE SMOOTH",
"411 114 OFFCURVE",
"364 35 OFFCURVE",
"278 35 CURVE SMOOTH"
);
}
);
width = 556;
}
);
leftKerningGroup = o;
rightKerningGroup = o;
unicode = 006F;
},
{
color = 3;
glyphname = oslash;
layers = (
{
components = (
{
name = o;
}
);
guideLines = (
{
angle = 270;
position = "{490, 230}";
},
{
angle = 270;
position = "{35, 217}";
}
);
layerId = "6E34CE51-C086-4FF0-804E-D019E96D60E0";
paths = (
{
closed = 1;
nodes = (
"65 -8 LINE",
"93 -30 LINE",
"460 447 LINE",
"429 470 LINE"
);
}
);
width = 525;
}
);
leftKerningGroup = o;
rightKerningGroup = o;
unicode = 00F8;
},
{
color = 3;
glyphname = oe;
layers = (
{
anchors = (
{
name = top;
position = "{262, 450}";
}
);
layerId = "6E34CE51-C086-4FF0-804E-D019E96D60E0";
paths = (
{
closed = 1;
nodes = (
"392 -10 OFFCURVE",
"480 91 OFFCURVE",
"480 221 CURVE SMOOTH",
"480 355 OFFCURVE",
"401 450 OFFCURVE",
"262 450 CURVE SMOOTH",
"134 450 OFFCURVE",
"35 349 OFFCURVE",
"35 221 CURVE SMOOTH",
"35 91 OFFCURVE",
"116 -10 OFFCURVE",
"262 -10 CURVE SMOOTH"
);
},
{
closed = 1;
nodes = (
"186 32 OFFCURVE",
"140 111 OFFCURVE",
"140 221 CURVE SMOOTH",
"140 330 OFFCURVE",
"188 408 OFFCURVE",
"262 408 CURVE SMOOTH",
"338 408 OFFCURVE",
"385 330 OFFCURVE",
"385 221 CURVE SMOOTH",
"385 110 OFFCURVE",
"337 32 OFFCURVE",
"262 32 CURVE SMOOTH"
);
},
{
closed = 1;
nodes = (
"693 -10 OFFCURVE",
"754 50 OFFCURVE",
"771 102 CURVE",
"759 113 LINE",
"715 68 OFFCURVE",
"672 61 OFFCURVE",
"632 61 CURVE SMOOTH",
"534 61 OFFCURVE",
"481 128 OFFCURVE",
"481 251 CURVE SMOOTH",
"481 362 OFFCURVE",
"523 406 OFFCURVE",
"586 406 CURVE SMOOTH",
"649 406 OFFCURVE",
"676 348 OFFCURVE",
"676 277 CURVE",
"467 277 LINE",
"467 237 LINE",
"775 237 LINE",
"775 273 LINE SMOOTH",
"775 385 OFFCURVE",
"705 450 OFFCURVE",
"605 450 CURVE SMOOTH",
"486 450 OFFCURVE",
"396 351 OFFCURVE",
"396 209 CURVE SMOOTH",
"396 73 OFFCURVE",
"468 -10 OFFCURVE",
"597 -10 CURVE SMOOTH"
);
}
);
width = 810;
}
);
leftKerningGroup = o;
leftMetricsKey = o;
rightKerningGroup = e;
rightMetricsKey = e;
unicode = 0153;
},
{
color = 3;
glyphname = p;
layers = (
{
components = (
{
name = _topserif_lc;
transform = "{1, 0, 0, 1, 3, 0}";
},
{
name = _bottomserif_lc;
transform = "{1, 0, 0, 1, 3, -215}";
},
{
name = _bowl_lc;
transform = "{1, 0, 0, 1, 18, 0}";
}
);
layerId = "6E34CE51-C086-4FF0-804E-D019E96D60E0";
paths = (
{
closed = 1;
nodes = (
"179 -194 LINE",
"179 404 LINE",
"86 404 LINE",
"86 -194 LINE"
);
}
);
width = 543;
},
{
associatedMasterId = "6E34CE51-C086-4FF0-804E-D019E96D60E0";
components = (
{
name = _bottomserif_lc;
transform = "{1, 0, 0, 1, 7, -230}";
},
{
name = _topserif_lc;
transform = "{1, 0, 0, 1, 9, 0}";
},
{
name = _bowl_lc;
transform = "{1, 0, 0, 1, 15, 0}";
}
);
layerId = "BF67D52F-9561-4813-8A5F-3ECDE134CD73";
name = "May 7 21, 15:39";
paths = (
{
closed = 1;
nodes = (
"194 -216 LINE",
"194 449 LINE",
"99 449 LINE",
"99 -216 LINE"
);
}
);
width = 585;
}
);
rightKerningGroup = o;
rightMetricsKey = o;
unicode = 0070;
},
{
color = 3;
glyphname = thorn;
layers = (
{
components = (
{
name = _topserif_lc;
transform = "{1, 0, 0, 1, -2, 270}";
},
{
name = _bottomserif_lc;
transform = "{1, 0, 0, 1, -2, -215}";
},
{
name = _bowl_lc;
transform = "{1, 0, 0, 1, 13, 0}";
}
);
layerId = "6E34CE51-C086-4FF0-804E-D019E96D60E0";
paths = (
{
closed = 1;
nodes = (
"174 -194 LINE",
"174 594 LINE",
"81 594 LINE",
"81 -194 LINE"
);
}
);
width = 538;
}
);
leftKerningGroup = b;
leftMetricsKey = b;
rightKerningGroup = o;
rightMetricsKey = o;
unicode = 00FE;
},
{
color = 3;
glyphname = q;
layers = (
{
components = (
{
name = _bottomserif_lc;
transform = "{1, 0, 0, 1, 281, -215}";
},
{
name = _bowl_lc;
transform = "{-1, 0, 0, -1, 525, 440}";
}
);
layerId = "6E34CE51-C086-4FF0-804E-D019E96D60E0";
paths = (
{
closed = 1;
nodes = (
"457 -207 LINE",
"457 446 LINE",
"450 446 LINE",
"364 427 LINE",
"364 -207 LINE"
);
}
);
width = 529;
},
{
associatedMasterId = "6E34CE51-C086-4FF0-804E-D019E96D60E0";
components = (
{
name = _bottomserif_lc;
transform = "{1, 0, 0, 1, 293, -230}";
}
);
layerId = "89214653-7566-4F89-B7CC-F6ED5779DBC6";
name = "May 7 21, 15:39";
paths = (
{
closed = 1;
nodes = (
"334 -10 OFFCURVE",
"373 62 OFFCURVE",
"391 106 CURVE",
"388 110 LINE",
"346 73 OFFCURVE",
"314 65 OFFCURVE",
"276 65 CURVE SMOOTH",
"196 65 OFFCURVE",
"133 132 OFFCURVE",
"133 256 CURVE SMOOTH",
"133 385 OFFCURVE",
"199 450 OFFCURVE",
"271 450 CURVE SMOOTH",
"362 450 OFFCURVE",
"394 400 OFFCURVE",
"417 368 CURVE",
"460 442 LINE",
"443 462 OFFCURVE",
"389 500 OFFCURVE",
"302 500 CURVE SMOOTH",
"169 500 OFFCURVE",
"40 380 OFFCURVE",
"40 218 CURVE",
"40 74 OFFCURVE",
"120 -10 OFFCURVE",
"232 -10 CURVE SMOOTH"
);
},
{
closed = 1;
nodes = (
"410 78 LINE",
"410 93 LINE",
"371 93 LINE",
"371 78 LINE"
);
},
{
closed = 1;
nodes = (
"480 -230 LINE",
"480 495 LINE",
"472 495 LINE",
"385 474 LINE",
"385 -230 LINE"
);
}
);
width = 566;
}
);
leftKerningGroup = o;
leftMetricsKey = o;
rightKerningGroup = q;
unicode = 0071;
},
{
color = 3;
glyphname = r;
layers = (
{
components = (
{
alignment = -1;
name = _verticalstemshort_lc;
transform = "{1, 0, 0, 1, 13, 0}";
},
{
name = _topserif_lc;
transform = "{1, 0, 0, 1, 11, 0}";
},
{
name = _bottomserif_lc;
transform = "{1, 0, 0, 1, 11, 0}";
}
);
layerId = "6E34CE51-C086-4FF0-804E-D019E96D60E0";
paths = (
{
closed = 1;
nodes = (
"345 337 OFFCURVE",
"368 360 OFFCURVE",
"368 395 CURVE SMOOTH",
"368 431 OFFCURVE",
"346 450 OFFCURVE",
"314 450 CURVE SMOOTH",
"267 450 OFFCURVE",
"210 403 OFFCURVE",
"180 349 CURVE",
"180 337 LINE",
"206 356 OFFCURVE",
"249 377 OFFCURVE",
"274 377 CURVE",
"317 325 LINE"
);
},
{
closed = 1;
nodes = (
"188 349 LINE",
"199 371 LINE",
"177 371 LINE",
"177 349 LINE"
);
}
);
width = 373;
},
{
associatedMasterId = "6E34CE51-C086-4FF0-804E-D019E96D60E0";
components = (
{
alignment = -1;
name = _verticalstemshort_lc;
transform = "{1, 0, 0, 1, 9, 0}";
},
{
name = _bottomserif_lc;
transform = "{1, 0, 0, 1, 7, 0}";
},
{
name = _topserif_lc;
transform = "{1, 0, 0, 1, 9, 0}";
}
);
layerId = "7732CAAC-0D9A-4F5A-8BEC-09D0FC6D34C6";
name = "Apr 26 21, 16:05";
paths = (
{
closed = 1;
nodes = (
"361 382 OFFCURVE",
"393 411 OFFCURVE",
"393 446 CURVE SMOOTH",
"393 479 OFFCURVE",
"369 500 OFFCURVE",
"332 500 CURVE SMOOTH",
"280 500 OFFCURVE",
"217 446 OFFCURVE",
"192 375 CURVE",
"194 309 LINE",
"194 388 OFFCURVE",
"246 423 OFFCURVE",
"273 423 CURVE",
"331 369 LINE"
);
},
{
closed = 1;
nodes = (
"186 357 LINE",
"195 357 LINE",
"210 401 LINE",
"186 401 LINE"
);
}
);
width = 403;
},
{
associatedMasterId = "6E34CE51-C086-4FF0-804E-D019E96D60E0";
components = (
{
alignment = -1;
name = _verticalstemshort_lc;
transform = "{1, 0, 0, 1, 9, 0}";
},
{
name = _bottomserif_lc;
transform = "{1, 0, 0, 1, 7, 0}";
},
{
name = _topserif_lc;
transform = "{1, 0, 0, 1, 9, 0}";
}
);
layerId = "FE36BB97-727D-44D0-AFC1-D1F9B13ABF64";
name = "Apr 26 21, 16:07";
paths = (
{
closed = 1;
nodes = (
"361 382 OFFCURVE",
"393 411 OFFCURVE",
"393 446 CURVE SMOOTH",
"393 479 OFFCURVE",
"369 500 OFFCURVE",
"332 500 CURVE SMOOTH",
"280 500 OFFCURVE",
"217 446 OFFCURVE",
"192 375 CURVE",
"192 352 LINE",
"210 383 OFFCURVE",
"242 411 OFFCURVE",
"273 423 CURVE",
"331 369 LINE"
);
},
{
closed = 1;
nodes = (
"186 362 LINE",
"195 362 LINE",
"210 401 LINE",
"186 401 LINE"
);
}
);
width = 403;
},
{
associatedMasterId = "6E34CE51-C086-4FF0-804E-D019E96D60E0";
components = (
{
alignment = -1;
name = _verticalstemshort_lc;
transform = "{1, 0, 0, 1, 9, 0}";
},
{
name = _bottomserif_lc;
transform = "{1, 0, 0, 1, 7, 0}";
},
{
name = _topserif_lc;
transform = "{1, 0, 0, 1, 9, 0}";
}
);
layerId = "34EACF57-8070-4B92-9E55-71FD066B416C";
name = "Apr 26 21, 21:30";
paths = (
{
closed = 1;
nodes = (
"186 362 LINE",
"195 362 LINE",
"210 401 LINE",
"186 401 LINE"
);
},
{
closed = 1;
nodes = (
"361 382 OFFCURVE",
"393 411 OFFCURVE",
"393 446 CURVE SMOOTH",
"393 479 OFFCURVE",
"369 500 OFFCURVE",
"332 500 CURVE SMOOTH",
"280 500 OFFCURVE",
"217 446 OFFCURVE",
"192 375 CURVE",
"194 309 LINE",
"194 388 OFFCURVE",
"246 423 OFFCURVE",
"273 423 CURVE",
"331 369 LINE"
);
}
);
width = 403;
},
{
associatedMasterId = "6E34CE51-C086-4FF0-804E-D019E96D60E0";
components = (
{
alignment = -1;
name = _verticalstemshort_lc;
transform = "{1, 0, 0, 1, 9, 0}";
},
{
name = _topserif_lc;
transform = "{1, 0, 0, 1, 9, 0}";
}
);
layerId = "7E643B3A-D5D5-4664-AFA6-701A4C7FB126";
name = "May 7 21, 15:39";
paths = (
{
closed = 1;
nodes = (
"368 388 OFFCURVE",
"393 415 OFFCURVE",
"393 447 CURVE SMOOTH",
"393 480 OFFCURVE",
"372 500 OFFCURVE",
"338 500 CURVE SMOOTH",
"286 500 OFFCURVE",
"222 448 OFFCURVE",
"189 388 CURVE",
"189 375 LINE",
"206 397 OFFCURVE",
"246 422 OFFCURVE",
"273 422 CURVE",
"331 368 LINE"
);
},
{
closed = 1;
nodes = (
"280 0 LINE",
"280 36 LINE",
"194 40 LINE",
"194 94 LINE",
"99 104 LINE",
"99 80 LINE SMOOTH",
"99 54 OFFCURVE",
"91 42 OFFCURVE",
"69 40 CURVE SMOOTH",
"28 36 LINE",
"28 0 LINE"
);
},
{
closed = 1;
nodes = (
"198 388 LINE",
"210 412 LINE",
"186 412 LINE",
"186 388 LINE"
);
}
);
width = 403;
},
{
associatedMasterId = "6E34CE51-C086-4FF0-804E-D019E96D60E0";
components = (
{
alignment = -1;
name = _verticalstemshort_lc;
transform = "{1, 0, 0, 1, 8, 0}";
},
{
name = _topserif_lc;
transform = "{1, 0, 0, 1, 8, 0}";
},
{
name = _bottomserif_lc;
transform = "{1, 0, 0, 1, 6, 0}";
}
);
layerId = "8508549B-2F9E-4F75-9FAF-254C451CB844";
name = "May 9 21, 21:45";
paths = (
{
closed = 1;
nodes = (
"339 342 OFFCURVE",
"358 374 OFFCURVE",
"358 402 CURVE SMOOTH",
"358 432 OFFCURVE",
"335 450 OFFCURVE",
"304 450 CURVE SMOOTH",
"257 450 OFFCURVE",
"200 403 OFFCURVE",
"170 349 CURVE",
"170 334 LINE",
"185 353 OFFCURVE",
"221 374 OFFCURVE",
"246 374 CURVE",
"301 322 LINE"
);
},
{
closed = 1;
nodes = (
"178 349 LINE",
"189 371 LINE",
"167 371 LINE",
"167 349 LINE"
);
}
);
width = 364;
},
{
associatedMasterId = "6E34CE51-C086-4FF0-804E-D019E96D60E0";
components = (
{
alignment = -1;
name = _verticalstemshort_lc;
transform = "{1, 0, 0, 1, 13, 0}";
},
{
name = _topserif_lc;
transform = "{1, 0, 0, 1, 11, 0}";
},
{
name = _bottomserif_lc;
transform = "{1, 0, 0, 1, 11, 0}";
}
);
layerId = "5541F8D0-D059-476F-8CC6-7852DF85CFD7";
name = "May 18 21, 14:49";
paths = (
{
closed = 1;
nodes = (
"349 342 OFFCURVE",
"368 374 OFFCURVE",
"368 402 CURVE SMOOTH",
"368 432 OFFCURVE",
"345 450 OFFCURVE",
"314 450 CURVE SMOOTH",
"267 450 OFFCURVE",
"210 403 OFFCURVE",
"180 349 CURVE",
"180 334 LINE",
"195 353 OFFCURVE",
"231 374 OFFCURVE",
"256 374 CURVE",
"274 357 OFFCURVE",
"293 339 OFFCURVE",
"311 322 CURVE"
);
},
{
closed = 1;
nodes = (
"188 349 LINE",
"199 371 LINE",
"177 371 LINE",
"177 349 LINE"
);
}
);
width = 373;
},
{
associatedMasterId = "6E34CE51-C086-4FF0-804E-D019E96D60E0";
components = (
{
alignment = -1;
name = _verticalstemshort_lc;
transform = "{1, 0, 0, 1, 13, 0}";
},
{
name = _topserif_lc;
transform = "{1, 0, 0, 1, 11, 0}";
},
{
name = _bottomserif_lc;
transform = "{1, 0, 0, 1, 11, 0}";
}
);
layerId = "3F1AAF1D-657A-447A-BCEF-61B52F0C53DD";
name = "Jun 1 21, 09:37";
paths = (
{
closed = 1;
nodes = (
"346 340 OFFCURVE",
"368 367 OFFCURVE",
"368 402 CURVE SMOOTH",
"368 432 OFFCURVE",
"346 450 OFFCURVE",
"314 450 CURVE SMOOTH",
"267 450 OFFCURVE",
"210 403 OFFCURVE",
"180 349 CURVE",
"180 337 LINE",
"206 356 OFFCURVE",
"247 372 OFFCURVE",
"272 372 CURVE",
"330 325 LINE"
);
},
{
closed = 1;
nodes = (
"188 349 LINE",
"199 371 LINE",
"177 371 LINE",
"177 349 LINE"
);
}
);
width = 373;
}
);
leftKerningGroup = n;
leftMetricsKey = n;
unicode = 0072;
},
{
color = 3;
glyphname = s;
layers = (
{
anchors = (
{
name = bottom;
position = "{185, -10}";
},
{
name = top;
position = "{215, 450}";
}
);
layerId = "6E34CE51-C086-4FF0-804E-D019E96D60E0";
paths = (
{
closed = 1;
nodes = (
"283 -10 OFFCURVE",
"352 47 OFFCURVE",
"352 127 CURVE SMOOTH",
"352 203 OFFCURVE",
"296 238 OFFCURVE",
"223 269 CURVE SMOOTH",
"155 298 OFFCURVE",
"133 304 OFFCURVE",
"133 352 CURVE SMOOTH",
"133 388 OFFCURVE",
"163 410 OFFCURVE",
"201 410 CURVE SMOOTH",
"246 410 OFFCURVE",
"286 396 OFFCURVE",
"315 311 CURVE",
"340 311 LINE",
"340 425 LINE",
"309 442 OFFCURVE",
"259 450 OFFCURVE",
"215 450 CURVE SMOOTH",
"127 450 OFFCURVE",
"56 396 OFFCURVE",
"55 320 CURVE SMOOTH",
"54 245 OFFCURVE",
"110 216 OFFCURVE",
"182 186 CURVE SMOOTH",
"248 158 OFFCURVE",
"271 142 OFFCURVE",
"272 101 CURVE SMOOTH",
"273 62 OFFCURVE",
"243 35 OFFCURVE",
"195 35 CURVE SMOOTH",
"127 35 OFFCURVE",
"104 69 OFFCURVE",
"72 148 CURVE",
"45 148 LINE",
"50 18 LINE",
"83 1 OFFCURVE",
"135 -10 OFFCURVE",
"185 -10 CURVE SMOOTH"
);
}
);
width = 397;
},
{
associatedMasterId = "6E34CE51-C086-4FF0-804E-D019E96D60E0";
layerId = "5703D283-9DB4-4EFD-8299-62D9619AEE92";
name = "Apr 20 21, 21:50";
paths = (
{
closed = 1;
nodes = (
"285 500 OFFCURVE",
"345 487 OFFCURVE",
"379 468 CURVE",
"379 341 LINE",
"358 341 LINE",
"315 432 OFFCURVE",
"258 454 OFFCURVE",
"211 454 CURVE SMOOTH",
"173 454 OFFCURVE",
"141 432 OFFCURVE",
"141 391 CURVE SMOOTH",
"141 279 OFFCURVE",
"398 298 OFFCURVE",
"398 136 CURVE SMOOTH",
"398 45 OFFCURVE",
"324 -10 OFFCURVE",
"232 -10 CURVE SMOOTH",
"169 -10 OFFCURVE",
"97 4 OFFCURVE",
"64 25 CURVE",
"64 169 LINE",
"82 169 LINE",
"131 78 OFFCURVE",
"172 36 OFFCURVE",
"247 36 CURVE SMOOTH",
"293 36 OFFCURVE",
"316 64 OFFCURVE",
"316 104 CURVE SMOOTH",
"316 224 OFFCURVE",
"60 209 OFFCURVE",
"60 359 CURVE SMOOTH",
"60 455 OFFCURVE",
"148 500 OFFCURVE",
"236 500 CURVE"
);
}
);
width = 458;
},
{
associatedMasterId = "6E34CE51-C086-4FF0-804E-D019E96D60E0";
layerId = "0D7CF7E7-B8D5-4D5A-BD4D-980AAEEF1E62";
name = "Apr 20 21, 21:53";
paths = (
{
closed = 1;
nodes = (
"285 500 OFFCURVE",
"345 487 OFFCURVE",
"379 468 CURVE",
"379 341 LINE",
"358 341 LINE",
"315 432 OFFCURVE",
"258 454 OFFCURVE",
"211 454 CURVE SMOOTH",
"173 454 OFFCURVE",
"141 432 OFFCURVE",
"141 391 CURVE SMOOTH",
"141 279 OFFCURVE",
"398 298 OFFCURVE",
"398 136 CURVE SMOOTH",
"398 45 OFFCURVE",
"324 -10 OFFCURVE",
"232 -10 CURVE SMOOTH",
"169 -10 OFFCURVE",
"97 4 OFFCURVE",
"64 25 CURVE",
"64 169 LINE",
"82 169 LINE",
"131 78 OFFCURVE",
"172 36 OFFCURVE",
"247 36 CURVE SMOOTH",
"293 36 OFFCURVE",
"316 64 OFFCURVE",
"316 104 CURVE SMOOTH",
"316 224 OFFCURVE",
"60 209 OFFCURVE",
"60 359 CURVE SMOOTH",
"60 455 OFFCURVE",
"148 500 OFFCURVE",
"236 500 CURVE"
);
}
);
width = 458;
},
{
associatedMasterId = "6E34CE51-C086-4FF0-804E-D019E96D60E0";
layerId = "3A45459E-AF64-4ABA-81DD-8AD9ECFBD7A2";
name = "Apr 21 21, 11:12";
paths = (
{
closed = 1;
nodes = (
"289 500 OFFCURVE",
"351 487 OFFCURVE",
"385 468 CURVE",
"385 341 LINE",
"369 341 LINE",
"327 437 OFFCURVE",
"268 454 OFFCURVE",
"221 454 CURVE SMOOTH",
"181 454 OFFCURVE",
"143 434 OFFCURVE",
"143 388 CURVE SMOOTH",
"143 337 OFFCURVE",
"178 326 OFFCURVE",
"257 292 CURVE SMOOTH",
"334 259 OFFCURVE",
"404 225 OFFCURVE",
"404 136 CURVE SMOOTH",
"404 53 OFFCURVE",
"334 -10 OFFCURVE",
"231 -10 CURVE SMOOTH",
"160 -10 OFFCURVE",
"98 8 OFFCURVE",
"65 29 CURVE",
"65 169 LINE",
"81 169 LINE",
"120 78 OFFCURVE",
"171 36 OFFCURVE",
"246 36 CURVE SMOOTH",
"294 36 OFFCURVE",
"328 64 OFFCURVE",
"328 104 CURVE SMOOTH",
"328 158 OFFCURVE",
"280 178 OFFCURVE",
"209 210 CURVE SMOOTH",
"118 251 OFFCURVE",
"69 282 OFFCURVE",
"69 364 CURVE SMOOTH",
"69 456 OFFCURVE",
"148 500 OFFCURVE",
"240 500 CURVE"
);
}
);
width = 464;
},
{
associatedMasterId = "6E34CE51-C086-4FF0-804E-D019E96D60E0";
layerId = "6CBDB38E-CBA6-4048-BAAF-1C6F6927F137";
name = "Apr 21 21, 21:31";
paths = (
{
closed = 1;
nodes = (
"298 500 OFFCURVE",
"351 487 OFFCURVE",
"385 468 CURVE",
"385 346 LINE",
"362 346 LINE",
"318 439 OFFCURVE",
"288 460 OFFCURVE",
"241 460 CURVE SMOOTH",
"193 460 OFFCURVE",
"158 435 OFFCURVE",
"158 393 CURVE SMOOTH",
"158 346 OFFCURVE",
"181 326 OFFCURVE",
"260 295 CURVE SMOOTH",
"337 265 OFFCURVE",
"400 239 OFFCURVE",
"400 143 CURVE SMOOTH",
"400 54 OFFCURVE",
"329 -10 OFFCURVE",
"226 -10 CURVE SMOOTH",
"152 -10 OFFCURVE",
"102 2 OFFCURVE",
"69 23 CURVE",
"64 159 LINE",
"88 159 LINE",
"137 68 OFFCURVE",
"160 30 OFFCURVE",
"223 30 CURVE SMOOTH",
"282 30 OFFCURVE",
"313 66 OFFCURVE",
"313 106 CURVE SMOOTH",
"313 159 OFFCURVE",
"283 186 OFFCURVE",
"211 212 CURVE SMOOTH",
"117 246 OFFCURVE",
"76 279 OFFCURVE",
"76 361 CURVE SMOOTH",
"76 446 OFFCURVE",
"152 500 OFFCURVE",
"249 500 CURVE"
);
}
);
width = 464;
},
{
associatedMasterId = "6E34CE51-C086-4FF0-804E-D019E96D60E0";
layerId = "702DE45B-BF1E-41B2-8BF4-BCB0315BD59B";
name = "May 7 21, 15:39";
paths = (
{
closed = 1;
nodes = (
"311 -10 OFFCURVE",
"386 54 OFFCURVE",
"386 143 CURVE SMOOTH",
"386 239 OFFCURVE",
"323 265 OFFCURVE",
"246 295 CURVE SMOOTH",
"167 326 OFFCURVE",
"144 346 OFFCURVE",
"144 393 CURVE SMOOTH",
"144 432 OFFCURVE",
"178 458 OFFCURVE",
"226 458 CURVE SMOOTH",
"273 458 OFFCURVE",
"304 439 OFFCURVE",
"348 346 CURVE",
"371 346 LINE",
"371 472 LINE",
"337 491 OFFCURVE",
"284 500 OFFCURVE",
"235 500 CURVE",
"138 500 OFFCURVE",
"62 446 OFFCURVE",
"62 361 CURVE SMOOTH",
"62 279 OFFCURVE",
"103 246 OFFCURVE",
"197 212 CURVE SMOOTH",
"269 186 OFFCURVE",
"299 159 OFFCURVE",
"299 109 CURVE SMOOTH",
"299 63 OFFCURVE",
"261 32 OFFCURVE",
"206 32 CURVE SMOOTH",
"143 32 OFFCURVE",
"123 72 OFFCURVE",
"74 163 CURVE",
"50 163 LINE",
"55 20 LINE",
"92 1 OFFCURVE",
"147 -10 OFFCURVE",
"202 -10 CURVE SMOOTH"
);
}
);
width = 431;
},
{
associatedMasterId = "6E34CE51-C086-4FF0-804E-D019E96D60E0";
layerId = "365E1C56-ADFA-4425-B734-15EC7F5214E7";
name = "May 9 21, 21:48";
paths = (
{
closed = 1;
nodes = (
"273 -10 OFFCURVE",
"340 49 OFFCURVE",
"340 129 CURVE SMOOTH",
"340 217 OFFCURVE",
"284 241 OFFCURVE",
"214 268 CURVE SMOOTH",
"143 295 OFFCURVE",
"123 311 OFFCURVE",
"123 354 CURVE SMOOTH",
"123 389 OFFCURVE",
"153 412 OFFCURVE",
"196 412 CURVE SMOOTH",
"239 412 OFFCURVE",
"267 392 OFFCURVE",
"306 308 CURVE",
"330 308 LINE",
"330 425 LINE",
"299 442 OFFCURVE",
"249 450 OFFCURVE",
"205 450 CURVE SMOOTH",
"117 450 OFFCURVE",
"49 401 OFFCURVE",
"49 325 CURVE SMOOTH",
"49 249 OFFCURVE",
"86 219 OFFCURVE",
"170 189 CURVE SMOOTH",
"235 165 OFFCURVE",
"262 143 OFFCURVE",
"262 98 CURVE SMOOTH",
"262 57 OFFCURVE",
"228 29 OFFCURVE",
"178 29 CURVE SMOOTH",
"122 29 OFFCURVE",
"104 68 OFFCURVE",
"60 150 CURVE",
"35 150 LINE",
"40 18 LINE",
"73 1 OFFCURVE",
"125 -10 OFFCURVE",
"175 -10 CURVE SMOOTH"
);
}
);
width = 375;
},
{
associatedMasterId = "6E34CE51-C086-4FF0-804E-D019E96D60E0";
layerId = "F43CA612-9024-4DB0-B006-20B5C4C4ECDC";
name = "May 11 21, 10:19";
paths = (
{
closed = 1;
nodes = (
"283 -10 OFFCURVE",
"352 49 OFFCURVE",
"352 129 CURVE SMOOTH",
"352 220 OFFCURVE",
"294 243 OFFCURVE",
"224 271 CURVE SMOOTH",
"156 298 OFFCURVE",
"136 314 OFFCURVE",
"136 357 CURVE SMOOTH",
"136 388 OFFCURVE",
"163 410 OFFCURVE",
"201 410 CURVE SMOOTH",
"246 410 OFFCURVE",
"275 389 OFFCURVE",
"315 304 CURVE",
"340 304 LINE",
"340 425 LINE",
"309 442 OFFCURVE",
"259 450 OFFCURVE",
"215 450 CURVE SMOOTH",
"127 450 OFFCURVE",
"55 402 OFFCURVE",
"55 326 CURVE SMOOTH",
"55 245 OFFCURVE",
"96 217 OFFCURVE",
"180 186 CURVE SMOOTH",
"243 163 OFFCURVE",
"268 136 OFFCURVE",
"268 97 CURVE SMOOTH",
"268 58 OFFCURVE",
"239 35 OFFCURVE",
"195 35 CURVE SMOOTH",
"135 35 OFFCURVE",
"118 70 OFFCURVE",
"72 157 CURVE",
"45 157 LINE",
"50 18 LINE",
"83 1 OFFCURVE",
"135 -10 OFFCURVE",
"185 -10 CURVE SMOOTH"
);
}
);
width = 397;
}
);
leftKerningGroup = s;
rightKerningGroup = s;
unicode = 0073;
},
{
color = 3;
glyphname = germandbls;
layers = (
{
layerId = "6E34CE51-C086-4FF0-804E-D019E96D60E0";
paths = (
{
closed = 1;
nodes = (
"513 -10 OFFCURVE",
"572 55 OFFCURVE",
"572 135 CURVE SMOOTH",
"572 216 OFFCURVE",
"520 257 OFFCURVE",
"468 289 CURVE SMOOTH",
"417 321 OFFCURVE",
"367 345 OFFCURVE",
"367 391 CURVE SMOOTH",
"367 450 OFFCURVE",
"512 506 OFFCURVE",
"512 569 CURVE SMOOTH",
"512 666 OFFCURVE",
"436 720 OFFCURVE",
"345 720 CURVE SMOOTH",
"186 720 OFFCURVE",
"96 583 OFFCURVE",
"96 517 CURVE",
"189 519 LINE",
"191 601 OFFCURVE",
"229 673 OFFCURVE",
"312 673 CURVE SMOOTH",
"368 673 OFFCURVE",
"426 638 OFFCURVE",
"426 538 CURVE SMOOTH",
"426 490 OFFCURVE",
"302 450 OFFCURVE",
"302 354 CURVE SMOOTH",
"302 276 OFFCURVE",
"347 244 OFFCURVE",
"403 207 CURVE SMOOTH",
"456 172 OFFCURVE",
"494 154 OFFCURVE",
"494 106 CURVE SMOOTH",
"494 58 OFFCURVE",
"461 35 OFFCURVE",
"413 35 CURVE SMOOTH",
"362 35 OFFCURVE",
"336 68 OFFCURVE",
"304 147 CURVE",
"277 147 LINE",
"284 18 LINE",
"317 1 OFFCURVE",
"359 -10 OFFCURVE",
"409 -10 CURVE SMOOTH"
);
},
{
closed = 1;
nodes = (
"189 0 LINE",
"189 539 LINE",
"96 517 LINE",
"96 0 LINE"
);
},
{
closed = 1;
nodes = (
"189 401 LINE",
"189 525 LINE",
"175 525 LINE",
"25 422 LINE",
"25 401 LINE"
);
},
{
closed = 1;
nodes = (
"244 0 LINE",
"244 32 LINE",
"189 36 LINE",
"189 94 LINE",
"96 94 LINE",
"96 72 LINE SMOOTH",
"96 49 OFFCURVE",
"89 38 OFFCURVE",
"69 36 CURVE SMOOTH",
"32 32 LINE",
"32 0 LINE"
);
}
);
width = 596;
}
);
leftKerningGroup = f;
rightKerningGroup = germandbls;
unicode = 00DF;
},
{
color = 3;
glyphname = t;
layers = (
{
anchors = (
{
name = bottom;
position = "{182, -10}";
}
);
guideLines = (
{
angle = 90;
position = "{311, 342}";
}
);
layerId = "6E34CE51-C086-4FF0-804E-D019E96D60E0";
paths = (
{
closed = 1;
nodes = (
"254 -10 OFFCURVE",
"294 32 OFFCURVE",
"309 64 CURVE",
"298 74 LINE",
"278 60 OFFCURVE",
"257 52 OFFCURVE",
"225 52 CURVE SMOOTH",
"187 52 OFFCURVE",
"171 77 OFFCURVE",
"171 108 CURVE SMOOTH",
"171 297 LINE",
"78 297 LINE",
"78 77 LINE SMOOTH",
"78 23 OFFCURVE",
"117 -10 OFFCURVE",
"182 -10 CURVE SMOOTH"
);
},
{
closed = 1;
nodes = (
"171 184 LINE",
"171 511 LINE",
"78 445 LINE",
"78 180 LINE"
);
},
{
closed = 1;
nodes = (
"171 400 LINE",
"171 533 LINE",
"157 533 LINE",
"15 418 LINE",
"15 400 LINE"
);
},
{
closed = 1;
nodes = (
"298 400 LINE",
"298 440 LINE",
"107 440 LINE",
"107 400 LINE"
);
}
);
width = 318;
},
{
associatedMasterId = "6E34CE51-C086-4FF0-804E-D019E96D60E0";
guideLines = (
{
angle = 90;
position = "{325, 469}";
}
);
layerId = "2A29644D-336F-4FF9-B0AE-501AA5BE7C93";
name = "May 7 21, 15:39";
paths = (
{
closed = 1;
nodes = (
"269 -10 OFFCURVE",
"313 31 OFFCURVE",
"330 72 CURVE",
"321 79 LINE",
"299 63 OFFCURVE",
"276 53 OFFCURVE",
"240 53 CURVE SMOOTH",
"195 53 OFFCURVE",
"185 72 OFFCURVE",
"185 107 CURVE SMOOTH",
"185 330 LINE",
"90 330 LINE",
"90 85 LINE SMOOTH",
"90 25 OFFCURVE",
"129 -10 OFFCURVE",
"201 -10 CURVE SMOOTH"
);
},
{
closed = 1;
nodes = (
"185 200 LINE",
"185 568 LINE",
"90 494 LINE",
"90 200 LINE"
);
},
{
closed = 1;
nodes = (
"185 446 LINE",
"185 592 LINE",
"170 592 LINE",
"20 464 LINE",
"20 446 LINE"
);
},
{
closed = 1;
nodes = (
"324 446 LINE",
"324 490 LINE",
"118 490 LINE",
"118 446 LINE"
);
}
);
width = 355;
}
);
leftKerningGroup = t;
rightKerningGroup = t;
unicode = 0074;
},
{
color = 3;
glyphname = u;
layers = (
{
anchors = (
{
name = top;
position = "{267, 450}";
}
);
components = (
{
alignment = -1;
name = _shoulder_lc;
transform = "{-1, 0, 0, -1, 538, 440}";
},
{
name = _topserif_lc;
transform = "{1, 0, 0, 1, 290, 0}";
},
{
name = _verticalstemshort_lc;
transform = "{1, 0, 0, 1, 292, 10}";
},
{
name = _topserif_lc;
transform = "{1, 0, 0, 1, -3, 0}";
},
{
name = _bottomrightserif_lc;
transform = "{1, 0, 0, 1, 31, 0}";
}
);
layerId = "6E34CE51-C086-4FF0-804E-D019E96D60E0";
width = 555;
},
{
associatedMasterId = "6E34CE51-C086-4FF0-804E-D019E96D60E0";
components = (
{
alignment = -1;
name = _verticalstemshort_lc;
transform = "{1, 0, 0, 1, 311, 10}";
},
{
name = _topserif_lc;
transform = "{1, 0, 0, 1, -6, 0}";
},
{
name = _topserif_lc;
transform = "{1, 0, 0, 1, 311, 0}";
},
{
name = _bottomrightserif_lc;
transform = "{1, 0, 0, 1, 16, 0}";
}
);
layerId = "2A121E37-A8BD-46D5-B76C-ACFC829B85B9";
name = "May 7 21, 15:39";
paths = (
{
closed = 1;
nodes = (
"286 -10 OFFCURVE",
"343 17 OFFCURVE",
"408 97 CURVE",
"408 111 LINE",
"360 79 OFFCURVE",
"316 65 OFFCURVE",
"272 65 CURVE SMOOTH",
"216 65 OFFCURVE",
"179 91 OFFCURVE",
"179 160 CURVE",
"179 470 LINE",
"84 440 LINE",
"84 137 LINE SMOOTH",
"84 33 OFFCURVE",
"137 -10 OFFCURVE",
"220 -10 CURVE SMOOTH"
);
},
{
closed = 1;
nodes = (
"434 78 LINE",
"434 100 LINE",
"401 100 LINE",
"390 78 LINE"
);
}
);
width = 594;
}
);
leftKerningGroup = u;
rightKerningGroup = u;
unicode = 0075;
},
{
color = 3;
glyphname = v;
layers = (
{
guideLines = (
{
angle = 270;
position = "{298, 186}";
}
);
layerId = "6E34CE51-C086-4FF0-804E-D019E96D60E0";
paths = (
{
closed = 1;
nodes = (
"264 -10 LINE",
"294 64 LINE",
"149 438 LINE",
"36 438 LINE",
"226 -10 LINE"
);
},
{
closed = 1;
nodes = (
"170 382 LINE SMOOTH",
"162 403 OFFCURVE",
"180 403 OFFCURVE",
"202 405 CURVE SMOOTH",
"237 408 LINE",
"237 440 LINE",
"5 440 LINE",
"5 408 LINE",
"51 403 LINE",
"70 358 LINE",
"181 354 LINE"
);
},
{
closed = 1;
nodes = (
"267 -1 LINE",
"456 440 LINE",
"392 440 LINE",
"244 -1 LINE"
);
},
{
closed = 1;
nodes = (
"433 387 LINE SMOOTH",
"439 402 OFFCURVE",
"444 404 OFFCURVE",
"466 406 CURVE SMOOTH",
"493 408 LINE",
"493 440 LINE",
"323 440 LINE",
"323 408 LINE",
"380 401 LINE",
"365 358 LINE",
"419 355 LINE"
);
}
);
width = 498;
},
{
associatedMasterId = "6E34CE51-C086-4FF0-804E-D019E96D60E0";
guideLines = (
{
angle = 270;
position = "{295, 255}";
}
);
layerId = "CA434DE2-661A-4985-8A15-FB8F1C8B5887";
name = "May 7 21, 15:39";
paths = (
{
closed = 1;
nodes = (
"292 -10 LINE",
"317 54 LINE",
"149 488 LINE",
"40 488 LINE",
"248 -10 LINE"
);
},
{
closed = 1;
nodes = (
"172 426 LINE SMOOTH",
"163 449 OFFCURVE",
"183 449 OFFCURVE",
"208 451 CURVE SMOOTH",
"247 454 LINE",
"247 490 LINE",
"5 490 LINE",
"5 454 LINE",
"57 449 LINE",
"78 399 LINE",
"184 394 LINE"
);
},
{
closed = 1;
nodes = (
"295 0 LINE",
"496 490 LINE",
"424 490 LINE",
"257 0 LINE"
);
},
{
closed = 1;
nodes = (
"472 431 LINE SMOOTH",
"479 448 OFFCURVE",
"482 450 OFFCURVE",
"507 452 CURVE SMOOTH",
"537 454 LINE",
"537 490 LINE",
"348 490 LINE",
"348 454 LINE",
"411 447 LINE",
"394 399 LINE",
"457 396 LINE"
);
}
);
width = 542;
},
{
associatedMasterId = "6E34CE51-C086-4FF0-804E-D019E96D60E0";
guideLines = (
{
angle = 270;
position = "{288, 186}";
}
);
layerId = "B9444895-DE79-4735-8E2F-4D95093125ED";
name = "May 9 21, 22:06";
paths = (
{
closed = 1;
nodes = (
"261 -10 LINE",
"287 55 LINE",
"139 438 LINE",
"36 438 LINE",
"223 -10 LINE"
);
},
{
closed = 1;
nodes = (
"160 382 LINE SMOOTH",
"152 403 OFFCURVE",
"170 403 OFFCURVE",
"192 405 CURVE SMOOTH",
"227 408 LINE",
"227 440 LINE",
"5 440 LINE",
"5 408 LINE",
"51 403 LINE",
"70 358 LINE",
"171 354 LINE"
);
},
{
closed = 1;
nodes = (
"264 -1 LINE",
"446 440 LINE",
"382 440 LINE",
"235 -1 LINE"
);
},
{
closed = 1;
nodes = (
"425 387 LINE SMOOTH",
"431 402 OFFCURVE",
"434 404 OFFCURVE",
"456 406 CURVE SMOOTH",
"483 408 LINE",
"483 440 LINE",
"313 440 LINE",
"313 408 LINE",
"370 401 LINE",
"355 358 LINE",
"411 355 LINE"
);
}
);
width = 488;
}
);
leftKerningGroup = v;
rightKerningGroup = v;
unicode = 0076;
},
{
color = 3;
glyphname = w;
layers = (
{
anchors = (
{
name = top;
position = "{383, 450}";
}
);
layerId = "6E34CE51-C086-4FF0-804E-D019E96D60E0";
paths = (
{
closed = 1;
nodes = (
"240 -9 LINE",
"271 70 LINE",
"149 438 LINE",
"38 438 LINE",
"202 -9 LINE"
);
},
{
closed = 1;
nodes = (
"167 382 LINE SMOOTH",
"160 403 OFFCURVE",
"178 403 OFFCURVE",
"200 405 CURVE SMOOTH",
"231 408 LINE",
"231 440 LINE",
"5 440 LINE",
"5 408 LINE",
"51 403 LINE",
"69 358 LINE",
"176 354 LINE"
);
},
{
closed = 1;
nodes = (
"244 1 LINE",
"406 391 LINE",
"391 440 LINE",
"360 440 LINE",
"216 0 LINE"
);
},
{
closed = 1;
nodes = (
"521 -9 LINE",
"542 71 LINE",
"407 440 LINE",
"370 440 LINE",
"346 354 LINE",
"481 -9 LINE"
);
},
{
closed = 1;
nodes = (
"683 440 LINE",
"618 440 LINE",
"490 0 LINE",
"523 -1 LINE"
);
},
{
closed = 1;
nodes = (
"664 387 LINE SMOOTH",
"670 402 OFFCURVE",
"670 404 OFFCURVE",
"693 406 CURVE SMOOTH",
"720 408 LINE",
"720 440 LINE",
"555 440 LINE",
"555 408 LINE",
"606 401 LINE",
"594 358 LINE",
"652 355 LINE"
);
}
);
width = 725;
},
{
associatedMasterId = "6E34CE51-C086-4FF0-804E-D019E96D60E0";
layerId = "524BDA96-7627-4199-8466-F5904E3677BD";
name = "May 7 21, 15:39";
paths = (
{
closed = 1;
nodes = (
"258 -10 LINE",
"286 67 LINE",
"151 488 LINE",
"42 488 LINE",
"226 -10 LINE"
);
},
{
closed = 1;
nodes = (
"171 426 LINE SMOOTH",
"164 449 OFFCURVE",
"183 449 OFFCURVE",
"208 451 CURVE SMOOTH",
"242 454 LINE",
"242 490 LINE",
"5 490 LINE",
"5 454 LINE",
"57 449 LINE",
"77 399 LINE",
"181 394 LINE"
);
},
{
closed = 1;
nodes = (
"262 1 LINE",
"442 436 LINE",
"426 490 LINE",
"391 490 LINE",
"229 0 LINE"
);
},
{
closed = 1;
nodes = (
"564 -10 LINE",
"591 66 LINE",
"433 490 LINE",
"402 490 LINE",
"380 394 LINE",
"529 -10 LINE"
);
},
{
closed = 1;
nodes = (
"744 490 LINE",
"672 490 LINE",
"532 0 LINE",
"567 -1 LINE"
);
},
{
closed = 1;
nodes = (
"723 431 LINE SMOOTH",
"729 448 OFFCURVE",
"730 450 OFFCURVE",
"755 452 CURVE SMOOTH",
"785 454 LINE",
"785 490 LINE",
"602 490 LINE",
"602 454 LINE",
"659 447 LINE",
"646 399 LINE",
"710 396 LINE"
);
}
);
width = 790;
}
);
leftKerningGroup = v;
rightKerningGroup = v;
unicode = 0077;
},
{
color = 3;
glyphname = x;
layers = (
{
guideLines = (
{
position = "{297, 331}";
}
);
layerId = "6E34CE51-C086-4FF0-804E-D019E96D60E0";
paths = (
{
closed = 1;
nodes = (
"455 2 LINE",
"270 256 LINE",
"136 438 LINE",
"27 438 LINE",
"203 197 LINE",
"348 2 LINE"
);
},
{
closed = 1;
nodes = (
"170 0 LINE",
"170 32 LINE",
"122 36 LINE",
"247 228 LINE",
"210 228 LINE",
"62 51 LINE SMOOTH",
"51 37 OFFCURVE",
"39 36 OFFCURVE",
"24 34 CURVE SMOOTH",
"5 32 LINE",
"5 0 LINE"
);
},
{
closed = 1;
nodes = (
"472 0 LINE",
"472 32 LINE",
"430 37 LINE",
"397 82 LINE",
"285 87 LINE",
"301 65 LINE SMOOTH",
"305 59 OFFCURVE",
"307 55 OFFCURVE",
"307 50 CURVE SMOOTH",
"307 39 OFFCURVE",
"295 36 OFFCURVE",
"274 34 CURVE SMOOTH",
"251 32 LINE",
"251 0 LINE"
);
},
{
closed = 1;
nodes = (
"180 379 LINE SMOOTH",
"176 384 OFFCURVE",
"173 388 OFFCURVE",
"173 391 CURVE SMOOTH",
"173 402 OFFCURVE",
"187 404 OFFCURVE",
"208 406 CURVE SMOOTH",
"227 408 LINE",
"227 440 LINE",
"10 440 LINE",
"10 408 LINE",
"52 403 LINE",
"85 358 LINE",
"198 354 LINE"
);
},
{
closed = 1;
nodes = (
"259 218 LINE",
"407 396 LINE SMOOTH",
"414 404 OFFCURVE",
"422 405 OFFCURVE",
"435 406 CURVE SMOOTH",
"464 408 LINE",
"464 440 LINE",
"292 440 LINE",
"292 408 LINE",
"344 404 LINE",
"221 218 LINE"
);
}
);
width = 477;
},
{
associatedMasterId = "6E34CE51-C086-4FF0-804E-D019E96D60E0";
guideLines = (
{
position = "{301, 454}";
}
);
layerId = "4B537812-A769-455D-8EDC-E22A42D889B6";
name = "May 7 21, 15:39";
paths = (
{
closed = 1;
nodes = (
"500 2 LINE",
"294 284 LINE",
"146 488 LINE",
"34 488 LINE",
"230 219 LINE",
"391 2 LINE"
);
},
{
closed = 1;
nodes = (
"180 0 LINE",
"180 36 LINE",
"127 40 LINE",
"161 92 LINE",
"98 94 LINE",
"72 61 LINE SMOOTH",
"57 41 OFFCURVE",
"50 40 OFFCURVE",
"31 38 CURVE SMOOTH",
"10 36 LINE",
"10 0 LINE"
);
},
{
closed = 1;
nodes = (
"99 0 LINE",
"272 253 LINE",
"225 253 LINE",
"23 0 LINE"
);
},
{
closed = 1;
nodes = (
"519 0 LINE",
"519 36 LINE",
"472 41 LINE",
"435 91 LINE",
"321 97 LINE",
"339 72 LINE SMOOTH",
"343 66 OFFCURVE",
"346 61 OFFCURVE",
"346 55 CURVE SMOOTH",
"346 43 OFFCURVE",
"332 40 OFFCURVE",
"309 38 CURVE SMOOTH",
"283 36 LINE",
"283 0 LINE"
);
},
{
closed = 1;
nodes = (
"194 422 LINE SMOOTH",
"190 428 OFFCURVE",
"187 432 OFFCURVE",
"187 436 CURVE SMOOTH",
"187 448 OFFCURVE",
"202 450 OFFCURVE",
"225 452 CURVE SMOOTH",
"247 454 LINE",
"247 490 LINE",
"15 490 LINE",
"15 454 LINE",
"62 449 LINE",
"99 399 LINE",
"214 394 LINE"
);
},
{
closed = 1;
nodes = (
"277 232 LINE",
"484 490 LINE",
"412 490 LINE",
"233 232 LINE"
);
},
{
closed = 1;
nodes = (
"435 429 LINE SMOOTH",
"447 444 OFFCURVE",
"453 450 OFFCURVE",
"474 452 CURVE SMOOTH",
"495 454 LINE",
"495 490 LINE",
"327 490 LINE",
"327 454 LINE",
"384 450 LINE",
"349 399 LINE",
"409 397 LINE"
);
}
);
width = 529;
}
);
unicode = 0078;
},
{
color = 3;
glyphname = y;
layers = (
{
anchors = (
{
name = top;
position = "{269, 450}";
}
);
layerId = "6E34CE51-C086-4FF0-804E-D019E96D60E0";
paths = (
{
closed = 1;
nodes = (
"273 -9 LINE",
"296 58 LINE",
"146 440 LINE",
"36 440 LINE",
"231 -28 LINE"
);
},
{
closed = 1;
nodes = (
"178 -215 OFFCURVE",
"208 -173 OFFCURVE",
"221 -140 CURVE SMOOTH",
"289 32 LINE",
"262 32 LINE",
"172 -119 LINE",
"77 -119 LINE",
"66 -159 OFFCURVE",
"75 -215 OFFCURVE",
"133 -215 CURVE"
);
},
{
closed = 1;
nodes = (
"169 382 LINE SMOOTH",
"161 403 OFFCURVE",
"179 403 OFFCURVE",
"201 405 CURVE SMOOTH",
"236 408 LINE",
"236 440 LINE",
"5 440 LINE",
"5 408 LINE",
"51 403 LINE",
"70 358 LINE",
"180 354 LINE"
);
},
{
closed = 1;
nodes = (
"276 0 LINE",
"456 440 LINE",
"388 440 LINE",
"245 0 LINE"
);
},
{
closed = 1;
nodes = (
"435 387 LINE SMOOTH",
"441 402 OFFCURVE",
"444 404 OFFCURVE",
"466 406 CURVE SMOOTH",
"493 408 LINE",
"493 440 LINE",
"319 440 LINE",
"319 408 LINE",
"376 401 LINE",
"362 358 LINE",
"421 355 LINE"
);
}
);
width = 498;
},
{
associatedMasterId = "6E34CE51-C086-4FF0-804E-D019E96D60E0";
components = (
{
name = v;
}
);
layerId = "7F0A1643-CC14-418C-8AE2-1D76D828ED95";
name = "Apr 26 21, 22:45";
paths = (
{
closed = 1;
nodes = (
"164 -240 OFFCURVE",
"207 -229 OFFCURVE",
"242 -139 CURVE SMOOTH",
"310 36 LINE",
"272 36 LINE",
"180 -139 LINE",
"84 -139 LINE",
"62 -190 OFFCURVE",
"74 -240 OFFCURVE",
"127 -240 CURVE SMOOTH"
);
}
);
width = 542;
},
{
associatedMasterId = "6E34CE51-C086-4FF0-804E-D019E96D60E0";
layerId = "A24E16CC-9740-41D4-B3A1-F6B7EAB0439A";
name = "May 7 21, 15:39";
paths = (
{
closed = 1;
nodes = (
"292 -10 LINE",
"317 54 LINE",
"147 490 LINE",
"40 490 LINE",
"257 -31 LINE"
);
},
{
closed = 1;
nodes = (
"188 -240 OFFCURVE",
"220 -197 OFFCURVE",
"234 -161 CURVE SMOOTH",
"310 36 LINE",
"280 36 LINE",
"181 -139 LINE",
"84 -139 LINE",
"64 -186 OFFCURVE",
"77 -240 OFFCURVE",
"139 -240 CURVE SMOOTH"
);
},
{
closed = 1;
nodes = (
"172 426 LINE SMOOTH",
"163 449 OFFCURVE",
"183 449 OFFCURVE",
"208 451 CURVE SMOOTH",
"247 454 LINE",
"247 490 LINE",
"5 490 LINE",
"5 454 LINE",
"57 449 LINE",
"78 399 LINE",
"184 394 LINE"
);
},
{
closed = 1;
nodes = (
"295 0 LINE",
"496 490 LINE",
"424 490 LINE",
"261 0 LINE"
);
},
{
closed = 1;
nodes = (
"472 431 LINE SMOOTH",
"479 448 OFFCURVE",
"482 450 OFFCURVE",
"507 452 CURVE SMOOTH",
"537 454 LINE",
"537 490 LINE",
"348 490 LINE",
"348 454 LINE",
"411 447 LINE",
"394 399 LINE",
"457 396 LINE"
);
}
);
visible = 1;
width = 542;
}
);
rightKerningGroup = v;
unicode = 0079;
},
{
color = 3;
glyphname = z;
layers = (
{
anchors = (
{
name = bottom;
position = "{229, -10}";
}
);
layerId = "6E34CE51-C086-4FF0-804E-D019E96D60E0";
paths = (
{
closed = 1;
nodes = (
"128 0 LINE",
"414 414 LINE",
"414 441 LINE",
"332 441 LINE",
"45 27 LINE",
"45 0 LINE"
);
},
{
closed = 1;
nodes = (
"383 0 LINE",
"383 40 LINE",
"86 40 LINE",
"86 0 LINE"
);
},
{
closed = 1;
nodes = (
"403 0 LINE",
"420 175 LINE",
"391 175 LINE",
"358 108 LINE SMOOTH",
"333 57 OFFCURVE",
"321 40 OFFCURVE",
"273 40 CURVE SMOOTH",
"251 40 LINE",
"251 0 LINE"
);
},
{
closed = 1;
nodes = (
"84 284 LINE",
"148 401 LINE",
"190 401 LINE",
"190 441 LINE",
"59 441 LINE",
"59 284 LINE"
);
},
{
closed = 1;
nodes = (
"380 401 LINE",
"380 441 LINE",
"59 441 LINE",
"59 401 LINE"
);
}
);
width = 470;
},
{
associatedMasterId = "6E34CE51-C086-4FF0-804E-D019E96D60E0";
layerId = "646C7AE0-6864-4918-8A9F-D6436EBB9D04";
name = "May 4 21, 15:21";
paths = (
{
closed = 1;
nodes = (
"422 490 LINE",
"65 490 LINE",
"65 446 LINE",
"422 446 LINE"
);
},
{
closed = 1;
nodes = (
"417 44 LINE",
"101 44 LINE",
"101 0 LINE",
"417 0 LINE"
);
},
{
closed = 1;
nodes = (
"449 460 LINE",
"449 490 LINE",
"366 490 LINE",
"55 30 LINE",
"55 0 LINE",
"140 0 LINE"
);
},
{
closed = 1;
nodes = (
"397 120 LINE SMOOTH",
"377 66 OFFCURVE",
"368 44 OFFCURVE",
"314 44 CURVE SMOOTH",
"290 44 LINE",
"290 0 LINE",
"440 0 LINE",
"456 192 LINE",
"423 192 LINE"
);
},
{
closed = 1;
nodes = (
"120 395 LINE SMOOTH",
"134 435 OFFCURVE",
"152 446 OFFCURVE",
"187 446 CURVE SMOOTH",
"211 446 LINE",
"211 490 LINE",
"65 490 LINE",
"65 310 LINE",
"91 310 LINE"
);
}
);
width = 511;
},
{
associatedMasterId = "6E34CE51-C086-4FF0-804E-D019E96D60E0";
layerId = "DE83AF87-97C2-4864-AF9E-6A516CB63460";
name = "May 7 21, 15:39";
paths = (
{
closed = 1;
nodes = (
"140 0 LINE",
"449 460 LINE",
"449 490 LINE",
"366 490 LINE",
"55 30 LINE",
"55 0 LINE"
);
},
{
closed = 1;
nodes = (
"412 0 LINE",
"412 44 LINE",
"101 44 LINE",
"101 0 LINE"
);
},
{
closed = 1;
nodes = (
"435 0 LINE",
"453 192 LINE",
"420 192 LINE",
"387 120 LINE SMOOTH",
"362 66 OFFCURVE",
"358 44 OFFCURVE",
"304 44 CURVE SMOOTH",
"280 44 LINE",
"280 0 LINE"
);
},
{
closed = 1;
nodes = (
"91 316 LINE",
"158 446 LINE",
"211 446 LINE",
"211 490 LINE",
"65 490 LINE",
"65 316 LINE"
);
},
{
closed = 1;
nodes = (
"422 446 LINE",
"422 490 LINE",
"65 490 LINE",
"65 446 LINE"
);
}
);
width = 511;
}
);
leftKerningGroup = z;
rightKerningGroup = z;
unicode = 007A;
},
{
color = 3;
export = 0;
glyphname = f_short;
layers = (
{
layerId = "6E34CE51-C086-4FF0-804E-D019E96D60E0";
paths = (
{
closed = 1;
nodes = (
"189 499 LINE",
"189 546 OFFCURVE",
"181 572 OFFCURVE",
"181 605 CURVE SMOOTH",
"181 637 OFFCURVE",
"197 670 OFFCURVE",
"228 670 CURVE SMOOTH",
"232 670 OFFCURVE",
"233 670 OFFCURVE",
"239 669 CURVE",
"265 600 LINE",
"317 606 OFFCURVE",
"342 630 OFFCURVE",
"342 663 CURVE SMOOTH",
"342 696 OFFCURVE",
"321 720 OFFCURVE",
"278 720 CURVE",
"169 720 OFFCURVE",
"96 583 OFFCURVE",
"96 517 CURVE"
);
},
{
closed = 1;
nodes = (
"274 0 LINE",
"274 32 LINE",
"189 36 LINE",
"189 94 LINE",
"96 94 LINE",
"96 72 LINE SMOOTH",
"96 49 OFFCURVE",
"87 38 OFFCURVE",
"67 36 CURVE SMOOTH",
"30 32 LINE",
"30 0 LINE"
);
},
{
closed = 1;
nodes = (
"189 0 LINE",
"189 499 LINE",
"96 517 LINE",
"96 0 LINE"
);
},
{
closed = 1;
nodes = (
"189 400 LINE",
"189 515 LINE",
"175 515 LINE",
"25 422 LINE",
"25 400 LINE"
);
},
{
closed = 1;
nodes = (
"315 400 LINE",
"315 440 LINE",
"124 440 LINE",
"124 400 LINE"
);
}
);
width = 327;
}
);
leftKerningGroup = f;
},
{
glyphname = f_f;
layers = (
{
layerId = "6E34CE51-C086-4FF0-804E-D019E96D60E0";
paths = (
{
closed = 1;
nodes = (
"189 519 LINE",
"189 604 OFFCURVE",
"214 670 OFFCURVE",
"270 670 CURVE SMOOTH",
"274 670 OFFCURVE",
"278 670 OFFCURVE",
"284 669 CURVE",
"310 600 LINE",
"362 606 OFFCURVE",
"391 630 OFFCURVE",
"391 663 CURVE SMOOTH",
"391 696 OFFCURVE",
"366 720 OFFCURVE",
"323 720 CURVE",
"209 720 OFFCURVE",
"96 583 OFFCURVE",
"96 517 CURVE"
);
},
{
closed = 1;
nodes = (
"264 0 LINE",
"264 32 LINE",
"189 36 LINE",
"189 94 LINE",
"96 94 LINE",
"96 72 LINE SMOOTH",
"96 49 OFFCURVE",
"87 38 OFFCURVE",
"67 36 CURVE SMOOTH",
"30 32 LINE",
"30 0 LINE"
);
},
{
closed = 1;
nodes = (
"189 0 LINE",
"189 539 LINE",
"96 517 LINE",
"96 0 LINE"
);
},
{
closed = 1;
nodes = (
"189 400 LINE",
"189 525 LINE",
"175 525 LINE",
"25 422 LINE",
"25 400 LINE"
);
},
{
closed = 1;
nodes = (
"315 400 LINE",
"315 440 LINE",
"124 440 LINE",
"124 400 LINE"
);
},
{
closed = 1;
nodes = (
"490 519 LINE",
"490 604 OFFCURVE",
"515 670 OFFCURVE",
"571 670 CURVE SMOOTH",
"575 670 OFFCURVE",
"579 670 OFFCURVE",
"585 669 CURVE",
"611 600 LINE",
"663 606 OFFCURVE",
"692 630 OFFCURVE",
"692 663 CURVE SMOOTH",
"692 696 OFFCURVE",
"667 720 OFFCURVE",
"624 720 CURVE",
"510 720 OFFCURVE",
"397 583 OFFCURVE",
"397 517 CURVE"
);
},
{
closed = 1;
nodes = (
"575 0 LINE",
"575 32 LINE",
"490 36 LINE",
"490 94 LINE",
"397 94 LINE",
"397 72 LINE SMOOTH",
"397 49 OFFCURVE",
"388 38 OFFCURVE",
"368 36 CURVE SMOOTH",
"331 32 LINE",
"331 0 LINE"
);
},
{
closed = 1;
nodes = (
"490 0 LINE",
"490 539 LINE",
"397 517 LINE",
"397 0 LINE"
);
},
{
closed = 1;
nodes = (
"616 400 LINE",
"616 440 LINE",
"278 440 LINE",
"278 400 LINE"
);
}
);
width = 627;
}
);
leftKerningGroup = f;
leftMetricsKey = f;
rightKerningGroup = f;
rightMetricsKey = f;
},
{
glyphname = f_f_b;
layers = (
{
components = (
{
name = b;
transform = "{1, 0, 0, 1, 673, 0}";
}
);
layerId = "6E34CE51-C086-4FF0-804E-D019E96D60E0";
paths = (
{
closed = 1;
nodes = (
"189 519 LINE",
"189 604 OFFCURVE",
"214 670 OFFCURVE",
"270 670 CURVE SMOOTH",
"274 670 OFFCURVE",
"278 670 OFFCURVE",
"284 669 CURVE",
"310 600 LINE",
"362 606 OFFCURVE",
"391 630 OFFCURVE",
"391 663 CURVE SMOOTH",
"391 696 OFFCURVE",
"366 720 OFFCURVE",
"323 720 CURVE",
"209 720 OFFCURVE",
"96 583 OFFCURVE",
"96 517 CURVE"
);
},
{
closed = 1;
nodes = (
"264 0 LINE",
"264 32 LINE",
"189 36 LINE",
"189 94 LINE",
"96 94 LINE",
"96 72 LINE SMOOTH",
"96 49 OFFCURVE",
"87 38 OFFCURVE",
"67 36 CURVE SMOOTH",
"30 32 LINE",
"30 0 LINE"
);
},
{
closed = 1;
nodes = (
"189 0 LINE",
"189 539 LINE",
"96 517 LINE",
"96 0 LINE"
);
},
{
closed = 1;
nodes = (
"189 400 LINE",
"189 525 LINE",
"175 525 LINE",
"25 422 LINE",
"25 400 LINE"
);
},
{
closed = 1;
nodes = (
"479 400 LINE",
"479 440 LINE",
"124 440 LINE",
"124 400 LINE"
);
},
{
closed = 1;
nodes = (
"515 499 LINE",
"515 546 OFFCURVE",
"507 572 OFFCURVE",
"507 605 CURVE SMOOTH",
"507 637 OFFCURVE",
"523 670 OFFCURVE",
"554 670 CURVE SMOOTH",
"558 670 OFFCURVE",
"559 670 OFFCURVE",
"565 669 CURVE",
"591 600 LINE",
"643 606 OFFCURVE",
"668 630 OFFCURVE",
"668 663 CURVE SMOOTH",
"668 696 OFFCURVE",
"647 720 OFFCURVE",
"604 720 CURVE",
"495 720 OFFCURVE",
"422 583 OFFCURVE",
"422 517 CURVE"
);
},
{
closed = 1;
nodes = (
"600 0 LINE",
"600 32 LINE",
"515 36 LINE",
"515 94 LINE",
"422 94 LINE",
"422 72 LINE SMOOTH",
"422 49 OFFCURVE",
"413 38 OFFCURVE",
"393 36 CURVE SMOOTH",
"356 32 LINE",
"356 0 LINE"
);
},
{
closed = 1;
nodes = (
"515 0 LINE",
"515 499 LINE",
"422 517 LINE",
"422 0 LINE"
);
},
{
closed = 1;
nodes = (
"641 400 LINE",
"641 440 LINE",
"450 440 LINE",
"450 400 LINE"
);
}
);
width = 1200;
}
);
leftKerningGroup = f;
leftMetricsKey = f;
rightKerningGroup = o;
rightMetricsKey = b;
},
{
glyphname = f_f_h;
layers = (
{
components = (
{
name = h;
transform = "{1, 0, 0, 1, 652, 0}";
}
);
layerId = "6E34CE51-C086-4FF0-804E-D019E96D60E0";
paths = (
{
closed = 1;
nodes = (
"189 519 LINE",
"189 604 OFFCURVE",
"214 670 OFFCURVE",
"270 670 CURVE SMOOTH",
"274 670 OFFCURVE",
"278 670 OFFCURVE",
"284 669 CURVE",
"310 600 LINE",
"362 606 OFFCURVE",
"391 630 OFFCURVE",
"391 663 CURVE SMOOTH",
"391 696 OFFCURVE",
"366 720 OFFCURVE",
"323 720 CURVE",
"209 720 OFFCURVE",
"96 583 OFFCURVE",
"96 517 CURVE"
);
},
{
closed = 1;
nodes = (
"264 0 LINE",
"264 32 LINE",
"189 36 LINE",
"189 94 LINE",
"96 94 LINE",
"96 72 LINE SMOOTH",
"96 49 OFFCURVE",
"87 38 OFFCURVE",
"67 36 CURVE SMOOTH",
"30 32 LINE",
"30 0 LINE"
);
},
{
closed = 1;
nodes = (
"189 0 LINE",
"189 539 LINE",
"96 517 LINE",
"96 0 LINE"
);
},
{
closed = 1;
nodes = (
"189 400 LINE",
"189 525 LINE",
"175 525 LINE",
"25 422 LINE",
"25 400 LINE"
);
},
{
closed = 1;
nodes = (
"479 400 LINE",
"479 440 LINE",
"124 440 LINE",
"124 400 LINE"
);
},
{
closed = 1;
nodes = (
"515 499 LINE",
"515 546 OFFCURVE",
"507 572 OFFCURVE",
"507 605 CURVE SMOOTH",
"507 637 OFFCURVE",
"523 670 OFFCURVE",
"554 670 CURVE SMOOTH",
"558 670 OFFCURVE",
"559 670 OFFCURVE",
"565 669 CURVE",
"591 600 LINE",
"643 606 OFFCURVE",
"668 630 OFFCURVE",
"668 663 CURVE SMOOTH",
"668 696 OFFCURVE",
"647 720 OFFCURVE",
"604 720 CURVE",
"495 720 OFFCURVE",
"422 583 OFFCURVE",
"422 517 CURVE"
);
},
{
closed = 1;
nodes = (
"600 0 LINE",
"600 32 LINE",
"515 36 LINE",
"515 94 LINE",
"422 94 LINE",
"422 72 LINE SMOOTH",
"422 49 OFFCURVE",
"413 38 OFFCURVE",
"393 36 CURVE SMOOTH",
"356 32 LINE",
"356 0 LINE"
);
},
{
closed = 1;
nodes = (
"515 0 LINE",
"515 499 LINE",
"422 517 LINE",
"422 0 LINE"
);
},
{
closed = 1;
nodes = (
"641 400 LINE",
"641 440 LINE",
"450 440 LINE",
"450 400 LINE"
);
}
);
width = 1211;
}
);
leftKerningGroup = f;
leftMetricsKey = f;
rightKerningGroup = h;
rightMetricsKey = h;
},
{
glyphname = f_f_i;
layers = (
{
components = (
{
name = i;
transform = "{1, 0, 0, 1, 652, 0}";
}
);
layerId = "6E34CE51-C086-4FF0-804E-D019E96D60E0";
paths = (
{
closed = 1;
nodes = (
"189 519 LINE",
"189 604 OFFCURVE",
"214 670 OFFCURVE",
"270 670 CURVE SMOOTH",
"274 670 OFFCURVE",
"278 670 OFFCURVE",
"284 669 CURVE",
"310 600 LINE",
"362 606 OFFCURVE",
"391 630 OFFCURVE",
"391 663 CURVE SMOOTH",
"391 696 OFFCURVE",
"366 720 OFFCURVE",
"323 720 CURVE",
"209 720 OFFCURVE",
"96 583 OFFCURVE",
"96 517 CURVE"
);
},
{
closed = 1;
nodes = (
"264 0 LINE",
"264 32 LINE",
"189 36 LINE",
"189 94 LINE",
"96 94 LINE",
"96 72 LINE SMOOTH",
"96 49 OFFCURVE",
"87 38 OFFCURVE",
"67 36 CURVE SMOOTH",
"30 32 LINE",
"30 0 LINE"
);
},
{
closed = 1;
nodes = (
"189 0 LINE",
"189 539 LINE",
"96 517 LINE",
"96 0 LINE"
);
},
{
closed = 1;
nodes = (
"189 400 LINE",
"189 525 LINE",
"175 525 LINE",
"25 422 LINE",
"25 400 LINE"
);
},
{
closed = 1;
nodes = (
"479 400 LINE",
"479 440 LINE",
"124 440 LINE",
"124 400 LINE"
);
},
{
closed = 1;
nodes = (
"515 499 LINE",
"515 546 OFFCURVE",
"507 572 OFFCURVE",
"507 605 CURVE SMOOTH",
"507 637 OFFCURVE",
"523 670 OFFCURVE",
"554 670 CURVE SMOOTH",
"558 670 OFFCURVE",
"559 670 OFFCURVE",
"565 669 CURVE",
"591 600 LINE",
"643 606 OFFCURVE",
"668 630 OFFCURVE",
"668 663 CURVE SMOOTH",
"668 696 OFFCURVE",
"647 720 OFFCURVE",
"604 720 CURVE",
"495 720 OFFCURVE",
"422 583 OFFCURVE",
"422 517 CURVE"
);
},
{
closed = 1;
nodes = (
"600 0 LINE",
"600 32 LINE",
"515 36 LINE",
"515 94 LINE",
"422 94 LINE",
"422 72 LINE SMOOTH",
"422 49 OFFCURVE",
"413 38 OFFCURVE",
"393 36 CURVE SMOOTH",
"356 32 LINE",
"356 0 LINE"
);
},
{
closed = 1;
nodes = (
"515 0 LINE",
"515 499 LINE",
"422 517 LINE",
"422 0 LINE"
);
},
{
closed = 1;
nodes = (
"641 400 LINE",
"641 440 LINE",
"450 440 LINE",
"450 400 LINE"
);
}
);
width = 926;
}
);
leftKerningGroup = f;
rightKerningGroup = idieresis;
},
{
glyphname = f_f_j;
layers = (
{
components = (
{
name = j;
transform = "{1, 0, 0, 1, 652, 0}";
}
);
layerId = "6E34CE51-C086-4FF0-804E-D019E96D60E0";
paths = (
{
closed = 1;
nodes = (
"189 519 LINE",
"189 604 OFFCURVE",
"214 670 OFFCURVE",
"270 670 CURVE SMOOTH",
"274 670 OFFCURVE",
"278 670 OFFCURVE",
"284 669 CURVE",
"310 600 LINE",
"362 606 OFFCURVE",
"391 630 OFFCURVE",
"391 663 CURVE SMOOTH",
"391 696 OFFCURVE",
"366 720 OFFCURVE",
"323 720 CURVE",
"209 720 OFFCURVE",
"96 583 OFFCURVE",
"96 517 CURVE"
);
},
{
closed = 1;
nodes = (
"264 0 LINE",
"264 32 LINE",
"189 36 LINE",
"189 94 LINE",
"96 94 LINE",
"96 72 LINE SMOOTH",
"96 49 OFFCURVE",
"87 38 OFFCURVE",
"67 36 CURVE SMOOTH",
"30 32 LINE",
"30 0 LINE"
);
},
{
closed = 1;
nodes = (
"189 0 LINE",
"189 539 LINE",
"96 517 LINE",
"96 0 LINE"
);
},
{
closed = 1;
nodes = (
"189 400 LINE",
"189 525 LINE",
"175 525 LINE",
"25 422 LINE",
"25 400 LINE"
);
},
{
closed = 1;
nodes = (
"479 400 LINE",
"479 440 LINE",
"124 440 LINE",
"124 400 LINE"
);
},
{
closed = 1;
nodes = (
"515 499 LINE",
"515 546 OFFCURVE",
"507 572 OFFCURVE",
"507 605 CURVE SMOOTH",
"507 637 OFFCURVE",
"523 670 OFFCURVE",
"554 670 CURVE SMOOTH",
"558 670 OFFCURVE",
"559 670 OFFCURVE",
"565 669 CURVE",
"591 600 LINE",
"643 606 OFFCURVE",
"668 630 OFFCURVE",
"668 663 CURVE SMOOTH",
"668 696 OFFCURVE",
"647 720 OFFCURVE",
"604 720 CURVE",
"495 720 OFFCURVE",
"422 583 OFFCURVE",
"422 517 CURVE"
);
},
{
closed = 1;
nodes = (
"600 0 LINE",
"600 32 LINE",
"515 36 LINE",
"515 94 LINE",
"422 94 LINE",
"422 72 LINE SMOOTH",
"422 49 OFFCURVE",
"413 38 OFFCURVE",
"393 36 CURVE SMOOTH",
"356 32 LINE",
"356 0 LINE"
);
},
{
closed = 1;
nodes = (
"515 0 LINE",
"515 499 LINE",
"422 517 LINE",
"422 0 LINE"
);
},
{
closed = 1;
nodes = (
"641 400 LINE",
"641 440 LINE",
"450 440 LINE",
"450 400 LINE"
);
}
);
width = 904;
}
);
leftKerningGroup = f;
rightKerningGroup = j;
},
{
glyphname = f_f_k;
layers = (
{
components = (
{
name = k;
transform = "{1, 0, 0, 1, 652, 0}";
}
);
layerId = "6E34CE51-C086-4FF0-804E-D019E96D60E0";
paths = (
{
closed = 1;
nodes = (
"189 519 LINE",
"189 604 OFFCURVE",
"214 670 OFFCURVE",
"270 670 CURVE SMOOTH",
"274 670 OFFCURVE",
"278 670 OFFCURVE",
"284 669 CURVE",
"310 600 LINE",
"362 606 OFFCURVE",
"391 630 OFFCURVE",
"391 663 CURVE SMOOTH",
"391 696 OFFCURVE",
"366 720 OFFCURVE",
"323 720 CURVE",
"209 720 OFFCURVE",
"96 583 OFFCURVE",
"96 517 CURVE"
);
},
{
closed = 1;
nodes = (
"264 0 LINE",
"264 32 LINE",
"189 36 LINE",
"189 94 LINE",
"96 94 LINE",
"96 72 LINE SMOOTH",
"96 49 OFFCURVE",
"87 38 OFFCURVE",
"67 36 CURVE SMOOTH",
"30 32 LINE",
"30 0 LINE"
);
},
{
closed = 1;
nodes = (
"189 0 LINE",
"189 539 LINE",
"96 517 LINE",
"96 0 LINE"
);
},
{
closed = 1;
nodes = (
"189 400 LINE",
"189 525 LINE",
"175 525 LINE",
"25 422 LINE",
"25 400 LINE"
);
},
{
closed = 1;
nodes = (
"479 400 LINE",
"479 440 LINE",
"124 440 LINE",
"124 400 LINE"
);
},
{
closed = 1;
nodes = (
"515 499 LINE",
"515 546 OFFCURVE",
"507 572 OFFCURVE",
"507 605 CURVE SMOOTH",
"507 637 OFFCURVE",
"523 670 OFFCURVE",
"554 670 CURVE SMOOTH",
"558 670 OFFCURVE",
"559 670 OFFCURVE",
"565 669 CURVE",
"591 600 LINE",
"643 606 OFFCURVE",
"668 630 OFFCURVE",
"668 663 CURVE SMOOTH",
"668 696 OFFCURVE",
"647 720 OFFCURVE",
"604 720 CURVE",
"495 720 OFFCURVE",
"422 583 OFFCURVE",
"422 517 CURVE"
);
},
{
closed = 1;
nodes = (
"600 0 LINE",
"600 32 LINE",
"515 36 LINE",
"515 94 LINE",
"422 94 LINE",
"422 72 LINE SMOOTH",
"422 49 OFFCURVE",
"413 38 OFFCURVE",
"393 36 CURVE SMOOTH",
"356 32 LINE",
"356 0 LINE"
);
},
{
closed = 1;
nodes = (
"515 0 LINE",
"515 499 LINE",
"422 517 LINE",
"422 0 LINE"
);
},
{
closed = 1;
nodes = (
"641 400 LINE",
"641 440 LINE",
"450 440 LINE",
"450 400 LINE"
);
}
);
width = 1186;
}
);
leftKerningGroup = f;
rightKerningGroup = k;
},
{
glyphname = f_f_l;
layers = (
{
components = (
{
name = l;
transform = "{1, 0, 0, 1, 652, 0}";
}
);
layerId = "6E34CE51-C086-4FF0-804E-D019E96D60E0";
paths = (
{
closed = 1;
nodes = (
"189 519 LINE",
"189 604 OFFCURVE",
"214 670 OFFCURVE",
"270 670 CURVE SMOOTH",
"274 670 OFFCURVE",
"278 670 OFFCURVE",
"284 669 CURVE",
"310 600 LINE",
"362 606 OFFCURVE",
"391 630 OFFCURVE",
"391 663 CURVE SMOOTH",
"391 696 OFFCURVE",
"366 720 OFFCURVE",
"323 720 CURVE",
"209 720 OFFCURVE",
"96 583 OFFCURVE",
"96 517 CURVE"
);
},
{
closed = 1;
nodes = (
"264 0 LINE",
"264 32 LINE",
"189 36 LINE",
"189 94 LINE",
"96 94 LINE",
"96 72 LINE SMOOTH",
"96 49 OFFCURVE",
"87 38 OFFCURVE",
"67 36 CURVE SMOOTH",
"30 32 LINE",
"30 0 LINE"
);
},
{
closed = 1;
nodes = (
"189 0 LINE",
"189 539 LINE",
"96 517 LINE",
"96 0 LINE"
);
},
{
closed = 1;
nodes = (
"189 400 LINE",
"189 525 LINE",
"175 525 LINE",
"25 422 LINE",
"25 400 LINE"
);
},
{
closed = 1;
nodes = (
"479 400 LINE",
"479 440 LINE",
"124 440 LINE",
"124 400 LINE"
);
},
{
closed = 1;
nodes = (
"515 499 LINE",
"515 546 OFFCURVE",
"507 572 OFFCURVE",
"507 605 CURVE SMOOTH",
"507 637 OFFCURVE",
"523 670 OFFCURVE",
"554 670 CURVE SMOOTH",
"558 670 OFFCURVE",
"559 670 OFFCURVE",
"565 669 CURVE",
"591 600 LINE",
"643 606 OFFCURVE",
"668 630 OFFCURVE",
"668 663 CURVE SMOOTH",
"668 696 OFFCURVE",
"647 720 OFFCURVE",
"604 720 CURVE",
"495 720 OFFCURVE",
"422 583 OFFCURVE",
"422 517 CURVE"
);
},
{
closed = 1;
nodes = (
"600 0 LINE",
"600 32 LINE",
"515 36 LINE",
"515 94 LINE",
"422 94 LINE",
"422 72 LINE SMOOTH",
"422 49 OFFCURVE",
"413 38 OFFCURVE",
"393 36 CURVE SMOOTH",
"356 32 LINE",
"356 0 LINE"
);
},
{
closed = 1;
nodes = (
"515 0 LINE",
"515 499 LINE",
"422 517 LINE",
"422 0 LINE"
);
},
{
closed = 1;
nodes = (
"641 400 LINE",
"641 440 LINE",
"450 440 LINE",
"450 400 LINE"
);
}
);
width = 921;
}
);
leftKerningGroup = f;
rightKerningGroup = l;
},
{
glyphname = ordfeminine;
layers = (
{
anchors = (
{
name = top;
position = "{191, 640}";
}
);
layerId = "6E34CE51-C086-4FF0-804E-D019E96D60E0";
paths = (
{
closed = 1;
nodes = (
"304 363 OFFCURVE",
"336 377 OFFCURVE",
"353 406 CURVE",
"346 415 LINE",
"334 406 OFFCURVE",
"324 403 OFFCURVE",
"316 403 CURVE SMOOTH",
"299 403 OFFCURVE",
"294 413 OFFCURVE",
"294 434 CURVE SMOOTH",
"294 592 LINE SMOOTH",
"294 658 OFFCURVE",
"259 685 OFFCURVE",
"186 685 CURVE SMOOTH",
"142 685 OFFCURVE",
"87 648 OFFCURVE",
"58 621 CURVE SMOOTH",
"49 612 OFFCURVE",
"43 604 OFFCURVE",
"43 591 CURVE SMOOTH",
"43 575 OFFCURVE",
"51 555 OFFCURVE",
"85 555 CURVE SMOOTH",
"93 555 OFFCURVE",
"101 556 OFFCURVE",
"111 557 CURVE",
"111 635 LINE",
"131 642 OFFCURVE",
"146 645 OFFCURVE",
"166 645 CURVE SMOOTH",
"199 645 OFFCURVE",
"214 622 OFFCURVE",
"214 579 CURVE SMOOTH",
"214 429 LINE SMOOTH",
"214 382 OFFCURVE",
"235 363 OFFCURVE",
"275 363 CURVE SMOOTH"
);
},
{
closed = 1;
nodes = (
"166 363 OFFCURVE",
"196 387 OFFCURVE",
"233 417 CURVE",
"233 433 LINE",
"196 416 OFFCURVE",
"187 405 OFFCURVE",
"156 405 CURVE SMOOTH",
"125 405 OFFCURVE",
"112 425 OFFCURVE",
"112 450 CURVE SMOOTH",
"112 471 OFFCURVE",
"127 489 OFFCURVE",
"158 502 CURVE SMOOTH",
"191 516 OFFCURVE",
"211 518 OFFCURVE",
"228 520 CURVE",
"228 544 LINE",
"184 538 OFFCURVE",
"147 531 OFFCURVE",
"115 522 CURVE SMOOTH",
"49 504 OFFCURVE",
"30 470 OFFCURVE",
"30 434 CURVE SMOOTH",
"30 392 OFFCURVE",
"55 363 OFFCURVE",
"108 363 CURVE SMOOTH"
);
},
{
closed = 1;
nodes = (
"228 401 LINE",
"228 409 LINE",
"208 409 LINE",
"208 401 LINE"
);
}
);
width = 363;
}
);
leftKerningGroup = onesuperior;
rightKerningGroup = onesuperior;
unicode = 00AA;
},
{
glyphname = ordmasculine;
layers = (
{
anchors = (
{
name = top;
position = "{190, 685}";
}
);
layerId = "6E34CE51-C086-4FF0-804E-D019E96D60E0";
paths = (
{
closed = 1;
nodes = (
"281 363 OFFCURVE",
"350 434 OFFCURVE",
"350 525 CURVE SMOOTH",
"350 619 OFFCURVE",
"288 685 OFFCURVE",
"190 685 CURVE SMOOTH",
"99 685 OFFCURVE",
"30 614 OFFCURVE",
"30 525 CURVE SMOOTH",
"30 434 OFFCURVE",
"87 363 OFFCURVE",
"190 363 CURVE SMOOTH"
);
},
{
closed = 1;
nodes = (
"139 395 OFFCURVE",
"115 445 OFFCURVE",
"115 525 CURVE SMOOTH",
"115 604 OFFCURVE",
"141 654 OFFCURVE",
"190 654 CURVE SMOOTH",
"240 654 OFFCURVE",
"265 604 OFFCURVE",
"265 525 CURVE SMOOTH",
"265 444 OFFCURVE",
"240 395 OFFCURVE",
"190 395 CURVE SMOOTH"
);
}
);
width = 380;
}
);
leftKerningGroup = onesuperior;
rightKerningGroup = onesuperior;
unicode = 00BA;
},
{
color = 3;
glyphname = HAMZAu1;
layers = (
{
anchors = (
{
name = bottom;
position = "{243, 0}";
},
{
name = top;
position = "{250, 410}";
}
);
layerId = "6E34CE51-C086-4FF0-804E-D019E96D60E0";
paths = (
{
closed = 1;
nodes = (
"254 110 OFFCURVE",
"279 122 OFFCURVE",
"307 137 CURVE SMOOTH",
"376 174 LINE",
"411 259 LINE",
"396 272 LINE",
"360 246 OFFCURVE",
"301 212 OFFCURVE",
"253 212 CURVE SMOOTH",
"215 212 OFFCURVE",
"173 230 OFFCURVE",
"153 272 CURVE",
"153 250 LINE",
"196 312 OFFCURVE",
"235 332 OFFCURVE",
"266 332 CURVE SMOOTH",
"288 332 OFFCURVE",
"305 322 OFFCURVE",
"319 311 CURVE",
"370 352 OFFCURVE",
"323 408 OFFCURVE",
"264 408 CURVE SMOOTH",
"221 408 OFFCURVE",
"188 380 OFFCURVE",
"167 346 CURVE SMOOTH",
"105 244 LINE",
"87 215 OFFCURVE",
"77 196 OFFCURVE",
"77 165 CURVE SMOOTH",
"77 103 OFFCURVE",
"178 64 OFFCURVE",
"224 92 CURVE SMOOTH"
);
},
{
closed = 1;
nodes = (
"122 18 OFFCURVE",
"193 73 OFFCURVE",
"224 92 CURVE",
"156 120 LINE",
"117 81 OFFCURVE",
"88 47 OFFCURVE",
"60 -7 CURVE",
"90 -21 LINE"
);
}
);
width = 471;
}
);
note = HAMZAu1;
unicode = 0621;
},
{
color = 3;
glyphname = ALIFu1;
layers = (
{
anchors = (
{
name = bottom;
position = "{89, 81}";
},
{
name = top;
position = "{118, 684}";
}
);
layerId = "6E34CE51-C086-4FF0-804E-D019E96D60E0";
paths = (
{
closed = 1;
nodes = (
"99 81 LINE",
"115 139 OFFCURVE",
"134 207 OFFCURVE",
"134 298 CURVE SMOOTH",
"134 679 LINE",
"118 684 LINE",
"75 588 OFFCURVE",
"68 565 OFFCURVE",
"70 475 CURVE SMOOTH",
"80 81 LINE"
);
}
);
width = 204;
}
);
note = ALIFu1;
unicode = 0627;
},
{
color = 3;
glyphname = BEu1;
layers = (
{
anchors = (
{
name = bottom;
position = "{490, 0}";
},
{
name = top;
position = "{490, 237}";
}
);
layerId = "6E34CE51-C086-4FF0-804E-D019E96D60E0";
paths = (
{
closed = 1;
nodes = (
"392 0 OFFCURVE",
"545 12 OFFCURVE",
"673 51 CURVE SMOOTH",
"779 83 OFFCURVE",
"848 129 OFFCURVE",
"886 200 CURVE SMOOTH",
"903 234 OFFCURVE",
"917 277 OFFCURVE",
"929 335 CURVE",
"911 340 LINE",
"896 304 OFFCURVE",
"887 287 OFFCURVE",
"859 263 CURVE SMOOTH",
"840 246 OFFCURVE",
"778 212 OFFCURVE",
"676 188 CURVE SMOOTH",
"587 167 OFFCURVE",
"476 152 OFFCURVE",
"327 152 CURVE SMOOTH",
"214 152 OFFCURVE",
"146 175 OFFCURVE",
"118 215 CURVE SMOOTH",
"99 243 OFFCURVE",
"93 268 OFFCURVE",
"100 324 CURVE",
"69 324 LINE",
"62 271 OFFCURVE",
"50 206 OFFCURVE",
"50 165 CURVE SMOOTH",
"50 24 OFFCURVE",
"168 0 OFFCURVE",
"303 0 CURVE SMOOTH"
);
}
);
width = 979;
}
);
note = BEu1;
unicode = 0628;
},
{
color = 3;
glyphname = DALu1;
layers = (
{
anchors = (
{
name = bottom;
position = "{178, -8}";
},
{
name = top;
position = "{254, 397}";
}
);
layerId = "6E34CE51-C086-4FF0-804E-D019E96D60E0";
paths = (
{
closed = 1;
nodes = (
"178 4 LINE SMOOTH",
"218 10 OFFCURVE",
"227 13 OFFCURVE",
"251 52 CURVE SMOOTH",
"293 119 OFFCURVE",
"323 204 OFFCURVE",
"323 264 CURVE SMOOTH",
"323 316 OFFCURVE",
"299 367 OFFCURVE",
"247 395 CURVE SMOOTH",
"226 407 OFFCURVE",
"200 414 OFFCURVE",
"169 417 CURVE",
"137 259 LINE",
"167 257 OFFCURVE",
"193 248 OFFCURVE",
"215 236 CURVE SMOOTH",
"252 217 OFFCURVE",
"275 188 OFFCURVE",
"275 168 CURVE SMOOTH",
"275 155 OFFCURVE",
"256 122 OFFCURVE",
"159 70 CURVE SMOOTH",
"50 12 LINE",
"58 -14 LINE"
);
}
);
width = 373;
}
);
note = DALu1;
unicode = 062F;
},
{
color = 3;
glyphname = "dal-ar.fina";
layers = (
{
anchors = (
{
name = bottom;
position = "{226, -17}";
},
{
name = entry;
position = "{449, 135}";
},
{
name = top;
position = "{332, 369}";
}
);
layerId = "6E34CE51-C086-4FF0-804E-D019E96D60E0";
paths = (
{
closed = 1;
nodes = (
"193 10 LINE SMOOTH",
"217 14 OFFCURVE",
"226 20 OFFCURVE",
"243 43 CURVE SMOOTH",
"258 64 OFFCURVE",
"283 110 OFFCURVE",
"291 135 CURVE",
"275 110 LINE",
"298 37 OFFCURVE",
"351 0 OFFCURVE",
"400 0 CURVE SMOOTH",
"402 0 LINE",
"434 19 OFFCURVE",
"454 88 OFFCURVE",
"449 135 CURVE",
"447 135 LINE SMOOTH",
"370 135 OFFCURVE",
"344 192 OFFCURVE",
"344 237 CURVE SMOOTH",
"344 258 OFFCURVE",
"351 305 OFFCURVE",
"360 363 CURVE",
"332 369 LINE",
"301 251 LINE SMOOTH",
"287 197 OFFCURVE",
"263 153 OFFCURVE",
"239 128 CURVE SMOOTH",
"221 110 OFFCURVE",
"183 86 OFFCURVE",
"140 63 CURVE SMOOTH",
"50 16 LINE",
"58 -10 LINE"
);
}
);
width = 450;
}
);
unicode = FEAA;
},
{
color = 3;
glyphname = REu1;
layers = (
{
anchors = (
{
name = bottom;
position = "{188, -16}";
},
{
name = top;
position = "{327, 365}";
}
);
layerId = "6E34CE51-C086-4FF0-804E-D019E96D60E0";
paths = (
{
closed = 1;
nodes = (
"192 6 LINE SMOOTH",
"215 8 OFFCURVE",
"227 13 OFFCURVE",
"245 29 CURVE SMOOTH",
"275 56 OFFCURVE",
"304 105 OFFCURVE",
"329 226 CURVE SMOOTH",
"356 359 LINE",
"327 365 LINE",
"303 277 LINE SMOOTH",
"289 226 OFFCURVE",
"279 188 OFFCURVE",
"238 145 CURVE SMOOTH",
"212 119 OFFCURVE",
"174 90 OFFCURVE",
"114 56 CURVE SMOOTH",
"50 19 LINE",
"58 -7 LINE"
);
}
);
width = 406;
}
);
note = REu1;
unicode = 0631;
},
{
color = 3;
glyphname = SINu1;
layers = (
{
anchors = (
{
name = bottom;
position = "{281, -381}";
},
{
name = top;
position = "{821, 512}";
}
);
layerId = "6E34CE51-C086-4FF0-804E-D019E96D60E0";
paths = (
{
closed = 1;
nodes = (
"423 -381 OFFCURVE",
"537 -291 OFFCURVE",
"608 -172 CURVE SMOOTH",
"696 -25 OFFCURVE",
"725 152 OFFCURVE",
"725 363 CURVE",
"702 338 LINE",
"713 333 OFFCURVE",
"724 331 OFFCURVE",
"736 331 CURVE SMOOTH",
"784 331 OFFCURVE",
"832 370 OFFCURVE",
"850 408 CURVE",
"834 390 LINE",
"851 382 OFFCURVE",
"866 378 OFFCURVE",
"880 378 CURVE SMOOTH",
"936 378 OFFCURVE",
"982 459 OFFCURVE",
"982 554 CURVE",
"964 554 LINE",
"955 505 OFFCURVE",
"938 467 OFFCURVE",
"900 467 CURVE SMOOTH",
"872 467 OFFCURVE",
"860 486 OFFCURVE",
"858 512 CURVE",
"841 512 LINE",
"830 465 OFFCURVE",
"794 429 OFFCURVE",
"753 429 CURVE SMOOTH",
"731 429 OFFCURVE",
"709 441 OFFCURVE",
"694 471 CURVE",
"687 468 LINE SMOOTH",
"667 459 OFFCURVE",
"655 445 OFFCURVE",
"655 414 CURVE SMOOTH",
"655 402 OFFCURVE",
"656 388 OFFCURVE",
"660 370 CURVE SMOOTH",
"670 320 OFFCURVE",
"677 278 OFFCURVE",
"677 224 CURVE SMOOTH",
"677 121 OFFCURVE",
"655 21 OFFCURVE",
"608 -59 CURVE SMOOTH",
"550 -160 OFFCURVE",
"453 -229 OFFCURVE",
"316 -229 CURVE SMOOTH",
"181 -229 OFFCURVE",
"106 -157 OFFCURVE",
"106 -25 CURVE SMOOTH",
"106 83 OFFCURVE",
"145 184 OFFCURVE",
"181 287 CURVE",
"149 296 LINE",
"98 171 OFFCURVE",
"50 29 OFFCURVE",
"50 -101 CURVE SMOOTH",
"50 -260 OFFCURVE",
"128 -381 OFFCURVE",
"281 -381 CURVE SMOOTH"
);
}
);
width = 1032;
}
);
note = SINu1;
unicode = 0633;
},
{
color = 3;
glyphname = SADu1;
layers = (
{
anchors = (
{
name = bottom;
position = "{281, -381}";
},
{
name = entry;
position = "{774, 315}";
},
{
name = top;
position = "{940, 704}";
}
);
background = {
paths = (
{
closed = 0;
nodes = (
"106 -27 LINE SMOOTH",
"106 83 OFFCURVE",
"143 180 OFFCURVE",
"181 287 CURVE"
);
}
);
};
layerId = "6E34CE51-C086-4FF0-804E-D019E96D60E0";
paths = (
{
closed = 1;
nodes = (
"423 -381 OFFCURVE",
"537 -291 OFFCURVE",
"608 -172 CURVE SMOOTH",
"693 -31 OFFCURVE",
"724 134 OFFCURVE",
"725 333 CURVE",
"712 321 LINE",
"732 317 OFFCURVE",
"753 315 OFFCURVE",
"774 315 CURVE SMOOTH",
"870 315 OFFCURVE",
"958 361 OFFCURVE",
"1013 427 CURVE SMOOTH",
"1061 484 OFFCURVE",
"1096 566 OFFCURVE",
"1096 618 CURVE SMOOTH",
"1096 672 OFFCURVE",
"1055 704 OFFCURVE",
"1012 704 CURVE SMOOTH",
"940 704 OFFCURVE",
"847 622 OFFCURVE",
"750 445 CURVE",
"776 436 LINE",
"846 572 OFFCURVE",
"931 608 OFFCURVE",
"975 608 CURVE SMOOTH",
"1018 608 OFFCURVE",
"1041 576 OFFCURVE",
"1051 543 CURVE",
"1018 484 OFFCURVE",
"903 443 OFFCURVE",
"823 443 CURVE SMOOTH",
"777 443 OFFCURVE",
"731 453 OFFCURVE",
"691 469 CURVE",
"664 462 OFFCURVE",
"653 440 OFFCURVE",
"653 406 CURVE SMOOTH",
"653 390 OFFCURVE",
"656 371 OFFCURVE",
"660 350 CURVE SMOOTH",
"670 300 OFFCURVE",
"677 258 OFFCURVE",
"677 204 CURVE SMOOTH",
"677 0 OFFCURVE",
"561 -229 OFFCURVE",
"316 -229 CURVE SMOOTH",
"181 -229 OFFCURVE",
"106 -156 OFFCURVE",
"106 -27 CURVE SMOOTH",
"106 83 OFFCURVE",
"143 180 OFFCURVE",
"181 287 CURVE",
"149 296 LINE",
"97 170 OFFCURVE",
"50 29 OFFCURVE",
"50 -101 CURVE SMOOTH",
"50 -260 OFFCURVE",
"128 -381 OFFCURVE",
"281 -381 CURVE SMOOTH"
);
}
);
width = 1146;
}
);
note = SADu1;
unicode = 0635;
},
{
color = 3;
glyphname = TOEu1;
layers = (
{
anchors = (
{
name = bottom;
position = "{247, 0}";
},
{
name = top;
position = "{462, 396}";
}
);
layerId = "6E34CE51-C086-4FF0-804E-D019E96D60E0";
paths = (
{
closed = 1;
nodes = (
"239 -13 OFFCURVE",
"301 5 CURVE SMOOTH",
"362 24 OFFCURVE",
"409 61 OFFCURVE",
"459 127 CURVE SMOOTH",
"512 198 OFFCURVE",
"537 256 OFFCURVE",
"537 313 CURVE SMOOTH",
"537 367 OFFCURVE",
"498 396 OFFCURVE",
"462 396 CURVE SMOOTH",
"392 396 OFFCURVE",
"317 322 OFFCURVE",
"279 245 CURVE",
"252 209 LINE",
"221 143 OFFCURVE",
"200 107 OFFCURVE",
"174 42 CURVE",
"207 52 LINE",
"279 217 OFFCURVE",
"370 300 OFFCURVE",
"426 300 CURVE SMOOTH",
"451 300 OFFCURVE",
"491 291 OFFCURVE",
"495 235 CURVE",
"427 154 OFFCURVE",
"224 64 OFFCURVE",
"50 14 CURVE",
"53 -7 LINE",
"162 -14 OFFCURVE"
);
},
{
closed = 1;
nodes = (
"264 179 LINE",
"287 227 OFFCURVE",
"310 313 OFFCURVE",
"311 396 CURVE SMOOTH",
"313 570 LINE SMOOTH",
"314 626 OFFCURVE",
"315 672 OFFCURVE",
"317 707 CURVE",
"301 712 LINE",
"254 636 OFFCURVE",
"246 593 OFFCURVE",
"246 503 CURVE SMOOTH",
"246 315 LINE SMOOTH",
"246 263 OFFCURVE",
"246 217 OFFCURVE",
"243 179 CURVE"
);
}
);
width = 587;
}
);
note = TOEu1;
unicode = 0637;
},
{
color = 3;
glyphname = AINu1;
layers = (
{
anchors = (
{
name = bottom;
position = "{296, -381}";
},
{
name = top;
position = "{252, 685}";
}
);
layerId = "6E34CE51-C086-4FF0-804E-D019E96D60E0";
paths = (
{
closed = 1;
nodes = (
"430 -381 OFFCURVE",
"540 -305 OFFCURVE",
"622 -196 CURVE SMOOTH",
"686 -112 OFFCURVE",
"733 -6 OFFCURVE",
"762 98 CURVE",
"734 111 LINE",
"697 9 OFFCURVE",
"649 -65 OFFCURVE",
"596 -118 CURVE SMOOTH",
"514 -197 OFFCURVE",
"421 -227 OFFCURVE",
"333 -227 CURVE SMOOTH",
"162 -227 OFFCURVE",
"112 -110 OFFCURVE",
"112 -9 CURVE SMOOTH",
"112 158 OFFCURVE",
"236 338 OFFCURVE",
"406 454 CURVE",
"447 522 LINE",
"434 534 LINE",
"368 494 OFFCURVE",
"315 470 OFFCURVE",
"257 470 CURVE SMOOTH",
"207 470 OFFCURVE",
"160 495 OFFCURVE",
"160 534 CURVE SMOOTH",
"160 580 OFFCURVE",
"203 611 OFFCURVE",
"255 611 CURVE SMOOTH",
"272 611 OFFCURVE",
"290 608 OFFCURVE",
"307 601 CURVE",
"332 625 OFFCURVE",
"315 685 OFFCURVE",
"252 685 CURVE SMOOTH",
"204 685 OFFCURVE",
"170 657 OFFCURVE",
"137 575 CURVE",
"118 539 OFFCURVE",
"83 479 OFFCURVE",
"83 449 CURVE SMOOTH",
"83 396 OFFCURVE",
"135 348 OFFCURVE",
"236 355 CURVE",
"264 401 LINE",
"135 269 OFFCURVE",
"50 85 OFFCURVE",
"50 -95 CURVE SMOOTH",
"50 -204 OFFCURVE",
"94 -381 OFFCURVE",
"296 -381 CURVE SMOOTH"
);
}
);
width = 812;
}
);
note = AINu1;
unicode = 0639;
},
{
color = 3;
glyphname = FEu1;
layers = (
{
anchors = (
{
name = bottom;
position = "{404, 0}";
},
{
name = top;
position = "{847, 526}";
}
);
layerId = "6E34CE51-C086-4FF0-804E-D019E96D60E0";
paths = (
{
closed = 1;
nodes = (
"445 0 OFFCURVE",
"576 18 OFFCURVE",
"682 50 CURVE SMOOTH",
"757 73 OFFCURVE",
"819 102 OFFCURVE",
"857 137 CURVE SMOOTH",
"886 164 OFFCURVE",
"906 197 OFFCURVE",
"920 232 CURVE SMOOTH",
"936 276 OFFCURVE",
"943 324 OFFCURVE",
"943 369 CURVE SMOOTH",
"943 458 OFFCURVE",
"906 526 OFFCURVE",
"847 526 CURVE SMOOTH",
"833 526 OFFCURVE",
"814 521 OFFCURVE",
"800 509 CURVE",
"746 356 LINE",
"746 295 OFFCURVE",
"785 278 OFFCURVE",
"818 278 CURVE SMOOTH",
"840 278 OFFCURVE",
"861 286 OFFCURVE",
"871 294 CURVE",
"886 290 OFFCURVE",
"896 278 OFFCURVE",
"899 260 CURVE",
"881 244 OFFCURVE",
"857 232 OFFCURVE",
"830 221 CURVE SMOOTH",
"697 169 OFFCURVE",
"503 152 OFFCURVE",
"367 152 CURVE SMOOTH",
"224 152 OFFCURVE",
"146 175 OFFCURVE",
"118 215 CURVE SMOOTH",
"99 243 OFFCURVE",
"93 268 OFFCURVE",
"100 324 CURVE",
"69 324 LINE",
"62 271 OFFCURVE",
"50 206 OFFCURVE",
"50 165 CURVE SMOOTH",
"50 24 OFFCURVE",
"178 0 OFFCURVE",
"323 0 CURVE SMOOTH"
);
}
);
width = 993;
}
);
note = FEu1;
unicode = 06A1;
},
{
color = 3;
glyphname = QAFu1;
layers = (
{
anchors = (
{
name = bottom;
position = "{281, -381}";
},
{
name = top;
position = "{597, 512}";
}
);
layerId = "6E34CE51-C086-4FF0-804E-D019E96D60E0";
paths = (
{
closed = 1;
nodes = (
"423 -381 OFFCURVE",
"537 -291 OFFCURVE",
"608 -172 CURVE SMOOTH",
"679 -55 OFFCURVE",
"722 90 OFFCURVE",
"722 242 CURVE SMOOTH",
"722 357 OFFCURVE",
"700 512 OFFCURVE",
"597 512 CURVE SMOOTH",
"583 512 OFFCURVE",
"564 507 OFFCURVE",
"550 495 CURVE",
"496 342 LINE",
"496 281 OFFCURVE",
"535 264 OFFCURVE",
"568 264 CURVE SMOOTH",
"590 264 OFFCURVE",
"622 273 OFFCURVE",
"644 297 CURVE",
"671 261 OFFCURVE",
"681 217 OFFCURVE",
"681 172 CURVE SMOOTH",
"680 21 OFFCURVE",
"577 -229 OFFCURVE",
"316 -229 CURVE SMOOTH",
"181 -229 OFFCURVE",
"106 -154 OFFCURVE",
"106 -26 CURVE SMOOTH",
"106 83 OFFCURVE",
"144 182 OFFCURVE",
"181 287 CURVE",
"149 296 LINE",
"97 171 OFFCURVE",
"50 29 OFFCURVE",
"50 -101 CURVE SMOOTH",
"50 -260 OFFCURVE",
"128 -381 OFFCURVE",
"281 -381 CURVE SMOOTH"
);
}
);
width = 792;
}
);
note = QAFu1;
unicode = 066F;
},
{
color = 3;
glyphname = "kaf-ar";
layers = (
{
anchors = (
{
name = bottom;
position = "{313, -153}";
},
{
name = top;
position = "{330, 597}";
}
);
layerId = "6E34CE51-C086-4FF0-804E-D019E96D60E0";
paths = (
{
closed = 1;
nodes = (
"426 -18 OFFCURVE",
"525 47 OFFCURVE",
"554 78 CURVE SMOOTH",
"607 134 OFFCURVE",
"630 209 OFFCURVE",
"645 292 CURVE SMOOTH",
"654 344 OFFCURVE",
"662 413 OFFCURVE",
"662 527 CURVE SMOOTH",
"662 824 LINE",
"642 833 LINE",
"621 792 LINE SMOOTH",
"599 749 OFFCURVE",
"592 716 OFFCURVE",
"592 651 CURVE SMOOTH",
"592 221 LINE",
"520 162 OFFCURVE",
"428 134 OFFCURVE",
"283 134 CURVE SMOOTH",
"202 134 OFFCURVE",
"142 149 OFFCURVE",
"114 187 CURVE SMOOTH",
"93 216 OFFCURVE",
"93 250 OFFCURVE",
"100 306 CURVE",
"69 306 LINE",
"62 253 OFFCURVE",
"50 188 OFFCURVE",
"50 147 CURVE SMOOTH",
"50 24 OFFCURVE",
"126 -18 OFFCURVE",
"256 -18 CURVE SMOOTH"
);
},
{
closed = 1;
nodes = (
"310 358 OFFCURVE",
"328 369 OFFCURVE",
"358 411 CURVE SMOOTH",
"370 428 OFFCURVE",
"380 442 OFFCURVE",
"396 442 CURVE SMOOTH",
"407 442 OFFCURVE",
"415 431 OFFCURVE",
"418 422 CURVE",
"427 422 LINE",
"446 431 OFFCURVE",
"458 448 OFFCURVE",
"458 469 CURVE SMOOTH",
"458 490 OFFCURVE",
"443 507 OFFCURVE",
"422 507 CURVE SMOOTH",
"367 507 OFFCURVE",
"357 423 OFFCURVE",
"291 423 CURVE SMOOTH",
"276 423 OFFCURVE",
"260 430 OFFCURVE",
"251 438 CURVE",
"238 412 LINE",
"247 380 OFFCURVE",
"263 358 OFFCURVE",
"287 358 CURVE SMOOTH"
);
}
);
width = 732;
}
);
unicode = 0643;
},
{
color = 3;
glyphname = KAFu1;
layers = (
{
anchors = (
{
name = bottom;
position = "{256, -18}";
},
{
name = top;
position = "{1004, 1185}";
}
);
layerId = "6E34CE51-C086-4FF0-804E-D019E96D60E0";
paths = (
{
closed = 1;
nodes = (
"426 -18 OFFCURVE",
"525 47 OFFCURVE",
"554 78 CURVE SMOOTH",
"607 134 OFFCURVE",
"630 209 OFFCURVE",
"645 292 CURVE SMOOTH",
"654 344 OFFCURVE",
"662 413 OFFCURVE",
"662 527 CURVE SMOOTH",
"662 794 LINE",
"1134 1121 LINE SMOOTH",
"1187 1158 OFFCURVE",
"1215 1183 OFFCURVE",
"1238 1227 CURVE SMOOTH",
"1270 1289 LINE",
"1256 1299 LINE",
"804 983 LINE SMOOTH",
"729 931 OFFCURVE",
"684 901 OFFCURVE",
"653 841 CURVE SMOOTH",
"612 762 LINE SMOOTH",
"595 730 OFFCURVE",
"592 670 OFFCURVE",
"592 621 CURVE SMOOTH",
"592 221 LINE",
"520 162 OFFCURVE",
"428 134 OFFCURVE",
"283 134 CURVE SMOOTH",
"201 134 OFFCURVE",
"145 146 OFFCURVE",
"116 181 CURVE SMOOTH",
"95 207 OFFCURVE",
"89 246 OFFCURVE",
"98 302 CURVE",
"69 306 LINE",
"57 243 OFFCURVE",
"50 188 OFFCURVE",
"50 147 CURVE SMOOTH",
"50 24 OFFCURVE",
"126 -18 OFFCURVE",
"256 -18 CURVE SMOOTH"
);
}
);
width = 759;
}
);
note = KAFu1;
unicode = 06A9;
},
{
color = 3;
glyphname = LAMu1;
layers = (
{
anchors = (
{
name = bottom;
position = "{281, -381}";
},
{
name = toeda;
position = "{691, 890}";
},
{
name = top;
position = "{371, 445}";
}
);
layerId = "6E34CE51-C086-4FF0-804E-D019E96D60E0";
paths = (
{
closed = 1;
nodes = (
"488 -381 OFFCURVE",
"600 -197 OFFCURVE",
"650 -75 CURVE SMOOTH",
"696 35 OFFCURVE",
"714 182 OFFCURVE",
"713 358 CURVE SMOOTH",
"711 884 LINE",
"691 890 LINE",
"640 780 OFFCURVE",
"638 760 OFFCURVE",
"638 673 CURVE SMOOTH",
"638 542 OFFCURVE",
"649 260 OFFCURVE",
"649 182 CURVE SMOOTH",
"649 118 OFFCURVE",
"647 21 OFFCURVE",
"610 -54 CURVE SMOOTH",
"557 -160 OFFCURVE",
"458 -229 OFFCURVE",
"316 -229 CURVE SMOOTH",
"181 -229 OFFCURVE",
"106 -158 OFFCURVE",
"106 -23 CURVE SMOOTH",
"106 83 OFFCURVE",
"144 181 OFFCURVE",
"181 287 CURVE",
"149 296 LINE",
"97 169 OFFCURVE",
"50 29 OFFCURVE",
"50 -101 CURVE SMOOTH",
"50 -260 OFFCURVE",
"128 -381 OFFCURVE",
"281 -381 CURVE SMOOTH"
);
}
);
width = 783;
}
);
note = LAMu1;
unicode = 0644;
},
{
color = 3;
glyphname = MIMu1;
layers = (
{
anchors = (
{
name = bottom;
position = "{368, -35}";
},
{
name = top;
position = "{318, 551}";
}
);
layerId = "6E34CE51-C086-4FF0-804E-D019E96D60E0";
paths = (
{
closed = 1;
nodes = (
"103 -513 OFFCURVE",
"106 -445 OFFCURVE",
"104 -370 CURVE SMOOTH",
"101 -277 OFFCURVE",
"103 -161 OFFCURVE",
"105 -91 CURVE SMOOTH",
"108 27 OFFCURVE",
"121 109 OFFCURVE",
"159 166 CURVE SMOOTH",
"189 210 OFFCURVE",
"235 239 OFFCURVE",
"303 258 CURVE SMOOTH",
"411 289 LINE SMOOTH",
"436 296 OFFCURVE",
"463 308 OFFCURVE",
"485 347 CURVE SMOOTH",
"518 404 LINE SMOOTH",
"538 438 OFFCURVE",
"530 467 OFFCURVE",
"487 478 CURVE SMOOTH",
"419 495 LINE SMOOTH",
"382 504 OFFCURVE",
"364 489 OFFCURVE",
"351 452 CURVE SMOOTH",
"322 368 LINE",
"351 395 LINE",
"328 379 OFFCURVE",
"290 360 OFFCURVE",
"257 339 CURVE SMOOTH",
"197 300 OFFCURVE",
"150 254 OFFCURVE",
"110 171 CURVE SMOOTH",
"83 116 OFFCURVE",
"68 47 OFFCURVE",
"60 -22 CURVE SMOOTH",
"51 -97 OFFCURVE",
"50 -174 OFFCURVE",
"50 -237 CURVE SMOOTH",
"50 -360 OFFCURVE",
"56 -469 OFFCURVE",
"67 -585 CURVE",
"88 -586 LINE"
);
}
);
width = 578;
}
);
note = MIMu1;
unicode = 0645;
},
{
color = 3;
glyphname = NUNu1;
layers = (
{
anchors = (
{
name = bottom;
position = "{281, -381}";
},
{
name = inside;
position = "{411, 203}";
},
{
name = top;
position = "{412, 216}";
}
);
background = {
paths = (
{
closed = 1;
nodes = (
"424 -381 OFFCURVE",
"568 -274 OFFCURVE",
"650 -101 CURVE SMOOTH",
"696 -4 OFFCURVE",
"731 102 OFFCURVE",
"725 296 CURVE SMOOTH",
"719 489 LINE",
"696 489 LINE",
"674 430 LINE SMOOTH",
"652 370 OFFCURVE",
"651 332 OFFCURVE",
"651 300 CURVE SMOOTH",
"651 258 OFFCURVE",
"665 187 OFFCURVE",
"662 121 CURVE SMOOTH",
"659 40 OFFCURVE",
"638 -31 OFFCURVE",
"597 -88 CURVE SMOOTH",
"541 -165 OFFCURVE",
"447 -229 OFFCURVE",
"316 -229 CURVE SMOOTH",
"179 -229 OFFCURVE",
"103 -154 OFFCURVE",
"103 -32 CURVE SMOOTH",
"103 83 OFFCURVE",
"140 180 OFFCURVE",
"177 283 CURVE",
"149 296 LINE",
"97 169 OFFCURVE",
"50 29 OFFCURVE",
"50 -101 CURVE SMOOTH",
"50 -260 OFFCURVE",
"128 -381 OFFCURVE",
"281 -381 CURVE SMOOTH"
);
}
);
};
layerId = "6E34CE51-C086-4FF0-804E-D019E96D60E0";
paths = (
{
closed = 1;
nodes = (
"424 -381 OFFCURVE",
"568 -274 OFFCURVE",
"650 -101 CURVE SMOOTH",
"696 -4 OFFCURVE",
"731 102 OFFCURVE",
"725 296 CURVE SMOOTH",
"719 489 LINE",
"696 489 LINE",
"674 430 LINE SMOOTH",
"652 370 OFFCURVE",
"651 338 OFFCURVE",
"651 300 CURVE SMOOTH",
"651 258 OFFCURVE",
"665 193 OFFCURVE",
"662 121 CURVE SMOOTH",
"659 41 OFFCURVE",
"638 -31 OFFCURVE",
"597 -88 CURVE SMOOTH",
"541 -165 OFFCURVE",
"447 -229 OFFCURVE",
"316 -229 CURVE SMOOTH",
"181 -229 OFFCURVE",
"106 -158 OFFCURVE",
"106 -22 CURVE SMOOTH",
"106 78 OFFCURVE",
"144 184 OFFCURVE",
"181 287 CURVE",
"149 296 LINE",
"97 169 OFFCURVE",
"50 28 OFFCURVE",
"50 -98 CURVE SMOOTH",
"50 -261 OFFCURVE",
"128 -381 OFFCURVE",
"281 -381 CURVE SMOOTH"
);
}
);
width = 796;
}
);
note = NUNu1;
unicode = 06BA;
},
{
color = 3;
glyphname = HAYCu1;
layers = (
{
anchors = (
{
name = bottom;
position = "{120, -1}";
},
{
name = top;
position = "{172, 385}";
}
);
layerId = "6E34CE51-C086-4FF0-804E-D019E96D60E0";
paths = (
{
closed = 1;
nodes = (
"227 -1 OFFCURVE",
"270 155 OFFCURVE",
"270 243 CURVE SMOOTH",
"270 366 OFFCURVE",
"198 385 OFFCURVE",
"172 385 CURVE SMOOTH",
"144 385 OFFCURVE",
"125 379 OFFCURVE",
"100 366 CURVE",
"70 226 LINE",
"86 213 LINE",
"111 219 OFFCURVE",
"131 223 OFFCURVE",
"148 223 CURVE SMOOTH",
"198 223 OFFCURVE",
"220 189 OFFCURVE",
"220 166 CURVE SMOOTH",
"220 120 OFFCURVE",
"174 91 OFFCURVE",
"139 91 CURVE SMOOTH",
"102 91 OFFCURVE",
"87 113 OFFCURVE",
"87 138 CURVE SMOOTH",
"87 164 OFFCURVE",
"98 196 OFFCURVE",
"116 234 CURVE",
"91 235 LINE",
"70 187 OFFCURVE",
"50 130 OFFCURVE",
"50 82 CURVE SMOOTH",
"50 34 OFFCURVE",
"76 -1 OFFCURVE",
"121 -1 CURVE SMOOTH"
);
}
);
width = 320;
}
);
note = HAYCu1;
unicode = 06C1;
},
{
color = 3;
glyphname = HAYAu1;
layers = (
{
anchors = (
{
name = bottom;
position = "{328, -11}";
},
{
name = entry;
position = "{376, 229}";
},
{
name = top;
position = "{318, 326}";
}
);
layerId = "6E34CE51-C086-4FF0-804E-D019E96D60E0";
paths = (
{
closed = 1;
nodes = (
"120 0 LINE SMOOTH",
"255 0 OFFCURVE",
"371 4 OFFCURVE",
"445 56 CURVE SMOOTH",
"496 90 OFFCURVE",
"540 151 OFFCURVE",
"540 193 CURVE SMOOTH",
"540 239 OFFCURVE",
"503 258 OFFCURVE",
"458 258 CURVE SMOOTH",
"437 258 OFFCURVE",
"414 254 OFFCURVE",
"392 246 CURVE",
"386 293 OFFCURVE",
"357 326 OFFCURVE",
"318 326 CURVE SMOOTH",
"273 326 OFFCURVE",
"235 280 OFFCURVE",
"182 190 CURVE SMOOTH",
"100 51 LINE",
"50 27 LINE",
"53 0 LINE"
);
},
{
closed = 1;
nodes = (
"201 163 LINE SMOOTH",
"238 223 OFFCURVE",
"261 246 OFFCURVE",
"287 246 CURVE SMOOTH",
"314 246 OFFCURVE",
"335 218 OFFCURVE",
"335 195 CURVE",
"321 166 OFFCURVE",
"253 105 OFFCURVE",
"139 62 CURVE"
);
},
{
closed = 1;
nodes = (
"310 97 OFFCURVE",
"335 133 OFFCURVE",
"360 180 CURVE",
"374 183 OFFCURVE",
"388 184 OFFCURVE",
"401 184 CURVE SMOOTH",
"443 184 OFFCURVE",
"475 169 OFFCURVE",
"475 130 CURVE",
"456 96 OFFCURVE",
"376 67 OFFCURVE",
"277 57 CURVE"
);
}
);
width = 590;
}
);
note = HAYAu1;
unicode = 06BE;
},
{
color = 3;
glyphname = VAOu1;
layers = (
{
anchors = (
{
name = bottom;
position = "{205, -79}";
},
{
name = top;
position = "{227, 427}";
}
);
layerId = "6E34CE51-C086-4FF0-804E-D019E96D60E0";
paths = (
{
closed = 1;
nodes = (
"177 4 LINE SMOOTH",
"208 9 OFFCURVE",
"218 12 OFFCURVE",
"238 39 CURVE SMOOTH",
"273 86 OFFCURVE",
"318 180 OFFCURVE",
"318 271 CURVE SMOOTH",
"318 366 OFFCURVE",
"281 427 OFFCURVE",
"227 427 CURVE SMOOTH",
"213 427 OFFCURVE",
"194 422 OFFCURVE",
"180 410 CURVE",
"126 257 LINE",
"126 196 OFFCURVE",
"165 179 OFFCURVE",
"198 179 CURVE SMOOTH",
"238 179 OFFCURVE",
"259 199 OFFCURVE",
"264 204 CURVE",
"269 204 OFFCURVE",
"279 193 OFFCURVE",
"279 179 CURVE SMOOTH",
"279 168 OFFCURVE",
"267 150 OFFCURVE",
"250 136 CURVE SMOOTH",
"225 116 OFFCURVE",
"192 94 OFFCURVE",
"146 67 CURVE SMOOTH",
"50 11 LINE",
"58 -15 LINE"
);
}
);
width = 368;
}
);
note = VAOu1;
unicode = 0648;
},
